<svg width="15" height="16" viewBox="0 0 15 16" fill="none" xmlns="http://www.w3.org/2000/svg">
<path fill-rule="evenodd" clip-rule="evenodd" d="M13.6386 7.01563H1.01328C0.720025 7.01563 0.482025 6.77763 0.482025 6.48438C0.482025 6.19113 0.720025 5.95312 1.01328 5.95312H13.6386C13.9319 5.95312 14.1699 6.19113 14.1699 6.48438C14.1699 6.77763 13.9319 7.01563 13.6386 7.01563" fill="#21C58E"/>
<path fill-rule="evenodd" clip-rule="evenodd" d="M10.4755 9.78223C10.1822 9.78223 9.94141 9.54423 9.94141 9.25098C9.94141 8.95773 10.1759 8.71973 10.4691 8.71973H10.4755C10.7687 8.71973 11.0067 8.95773 11.0067 9.25098C11.0067 9.54423 10.7687 9.78223 10.4755 9.78223" fill="#21C58E"/>
<path fill-rule="evenodd" clip-rule="evenodd" d="M7.33245 9.78223C7.0392 9.78223 6.79837 9.54423 6.79837 9.25098C6.79837 8.95773 7.03283 8.71973 7.32608 8.71973H7.33245C7.6257 8.71973 7.8637 8.95773 7.8637 9.25098C7.8637 9.54423 7.6257 9.78223 7.33245 9.78223" fill="#21C58E"/>
<path fill-rule="evenodd" clip-rule="evenodd" d="M4.18274 9.78223C3.88949 9.78223 3.64795 9.54423 3.64795 9.25098C3.64795 8.95773 3.88312 8.71973 4.17637 8.71973H4.18274C4.47599 8.71973 4.71399 8.95773 4.71399 9.25098C4.71399 9.54423 4.47599 9.78223 4.18274 9.78223" fill="#21C58E"/>
<path fill-rule="evenodd" clip-rule="evenodd" d="M10.4755 12.5352C10.1822 12.5352 9.94141 12.2972 9.94141 12.0039C9.94141 11.7107 10.1759 11.4727 10.4691 11.4727H10.4755C10.7687 11.4727 11.0067 11.7107 11.0067 12.0039C11.0067 12.2972 10.7687 12.5352 10.4755 12.5352" fill="#21C58E"/>
<path fill-rule="evenodd" clip-rule="evenodd" d="M7.33245 12.5352C7.0392 12.5352 6.79837 12.2972 6.79837 12.0039C6.79837 11.7107 7.03283 11.4727 7.32608 11.4727H7.33245C7.6257 11.4727 7.8637 11.7107 7.8637 12.0039C7.8637 12.2972 7.6257 12.5352 7.33245 12.5352" fill="#21C58E"/>
<path fill-rule="evenodd" clip-rule="evenodd" d="M4.18274 12.5352C3.88949 12.5352 3.64795 12.2972 3.64795 12.0039C3.64795 11.7107 3.88312 11.4727 4.17637 11.4727H4.18274C4.47599 11.4727 4.71399 11.7107 4.71399 12.0039C4.71399 12.2972 4.47599 12.5352 4.18274 12.5352" fill="#21C58E"/>
<path fill-rule="evenodd" clip-rule="evenodd" d="M10.187 4.10212C9.89376 4.10212 9.65576 3.86412 9.65576 3.57087V1.23975C9.65576 0.946496 9.89376 0.708496 10.187 0.708496C10.4803 0.708496 10.7183 0.946496 10.7183 1.23975V3.57087C10.7183 3.86412 10.4803 4.10212 10.187 4.10212" fill="#21C58E"/>
<path fill-rule="evenodd" clip-rule="evenodd" d="M4.46484 4.10212C4.17159 4.10212 3.93359 3.86412 3.93359 3.57087V1.23975C3.93359 0.946496 4.17159 0.708496 4.46484 0.708496C4.75809 0.708496 4.99609 0.946496 4.99609 1.23975V3.57087C4.99609 3.86412 4.75809 4.10212 4.46484 4.10212" fill="#21C58E"/>
<mask id="mask0_2_1106" style="mask-type:alpha" maskUnits="userSpaceOnUse" x="0" y="1" width="15" height="15">
<path fill-rule="evenodd" clip-rule="evenodd" d="M0.416504 1.82715H14.229V15.9378H0.416504V1.82715Z" fill="white"/>
</mask>
<g mask="url(#mask0_2_1106)">
<path fill-rule="evenodd" clip-rule="evenodd" d="M4.32721 2.88965C2.4905 2.88965 1.479 3.86927 1.479 5.6479V12.0576C1.479 13.8752 2.4905 14.8754 4.32721 14.8754H10.3183C12.155 14.8754 13.1665 13.8936 13.1665 12.1114V5.6479C13.1693 4.77311 12.9342 4.09311 12.4674 3.62561C11.9871 3.14394 11.2469 2.88965 10.3247 2.88965H4.32721ZM10.3183 15.9379H4.32721C1.91534 15.9379 0.416504 14.4511 0.416504 12.0576V5.6479C0.416504 3.29057 1.91534 1.82715 4.32721 1.82715H10.3247C11.5352 1.82715 12.5361 2.18982 13.2196 2.87477C13.8833 3.54132 14.2325 4.49969 14.229 5.64932V12.1114C14.229 14.4716 12.7302 15.9379 10.3183 15.9379V15.9379Z" fill="#21C58E"/>
</g>
</svg>
