<svg width="15" height="15" viewBox="0 0 15 15" fill="none" xmlns="http://www.w3.org/2000/svg">
<path fill-rule="evenodd" clip-rule="evenodd" d="M7.49984 1.479C4.17988 1.479 1.479 4.17988 1.479 7.49984C1.479 10.8198 4.17988 13.5207 7.49984 13.5207C10.8198 13.5207 13.5207 10.8198 13.5207 7.49984C13.5207 4.17988 10.8198 1.479 7.49984 1.479ZM7.49984 14.5832C3.59409 14.5832 0.416504 11.4056 0.416504 7.49984C0.416504 3.59409 3.59409 0.416504 7.49984 0.416504C11.4056 0.416504 14.5832 3.59409 14.5832 7.49984C14.5832 11.4056 11.4056 14.5832 7.49984 14.5832Z" fill="#516D9E"/>
<path fill-rule="evenodd" clip-rule="evenodd" d="M9.93027 10.1154C9.83748 10.1154 9.74398 10.0913 9.65827 10.041L6.98786 8.448C6.82777 8.35167 6.72861 8.17813 6.72861 7.99113V4.55713C6.72861 4.26388 6.96661 4.02588 7.25986 4.02588C7.55382 4.02588 7.79111 4.26388 7.79111 4.55713V7.68938L10.203 9.12729C10.4544 9.27817 10.5373 9.604 10.3872 9.85617C10.2873 10.0226 10.1109 10.1154 9.93027 10.1154Z" fill="#516D9E"/>
</svg>
