<svg width="366" height="362" viewBox="0 0 366 362" fill="none" xmlns="http://www.w3.org/2000/svg">
<rect width="366" height="362" rx="12" fill="#E6F8F5"/>
<path d="M273.387 308.82L294.004 278.161L273.43 312.118L273.473 315.568C271.968 315.58 270.477 315.554 269.001 315.493L270.024 271.147L269.996 270.804L270.033 270.738L270.131 266.548L247.554 233.768L270.105 263.411L270.185 264.297L270.957 230.792L251.456 196.806L271.013 224.906L270.808 155.491L270.809 155.26L270.816 155.487L272.11 210.196L289.883 187.973L272.168 214.909L272.556 244.878L288.911 215.629L272.616 249.284L272.832 265.949L296.616 225.205L272.905 271.763L273.387 308.82Z" fill="#BDE3DB"/>
<path d="M342.771 309.786L363.388 279.127L342.813 313.084L342.856 316.534C341.351 316.546 339.861 316.521 338.385 316.459L339.408 272.113L339.38 271.771L339.417 271.705L339.515 267.514L316.937 234.734L339.488 264.378L339.568 265.263L340.341 231.758L320.84 197.773L340.396 225.872L340.192 156.458L340.193 156.227L340.199 156.454L341.494 211.162L359.267 188.939L341.552 215.875L341.94 245.845L358.295 216.595L342 250.251L342.216 266.915L366 226.171L342.288 272.729L342.771 309.786Z" fill="#BDE3DB"/>
<path d="M134.199 65.3984H10.8271V232.274H134.199V65.3984Z" fill="#BDE3DB"/>
<path d="M129.852 71.2783H15.1747V226.393H129.852V71.2783Z" fill="white"/>
<path d="M114.779 98.4857H30.6156C29.9339 98.4848 29.2804 98.2133 28.7986 97.731C28.3169 97.2486 28.0463 96.5947 28.0463 95.913C28.0463 95.2313 28.3169 94.5774 28.7986 94.095C29.2804 93.6127 29.9339 93.3412 30.6156 93.3403H114.779C115.117 93.3399 115.452 93.4061 115.764 93.5352C116.077 93.6643 116.361 93.8537 116.6 94.0927C116.839 94.3316 117.029 94.6154 117.159 94.9277C117.288 95.2401 117.355 95.5749 117.355 95.913C117.355 96.2511 117.288 96.5859 117.159 96.8983C117.029 97.2107 116.839 97.4944 116.6 97.7334C116.361 97.9723 116.077 98.1617 115.764 98.2908C115.452 98.4199 115.117 98.4861 114.779 98.4857Z" fill="#BDE3DB"/>
<path d="M114.779 124.948H30.6156C29.9339 124.947 29.2804 124.675 28.7986 124.193C28.3169 123.71 28.0463 123.057 28.0463 122.375C28.0463 121.693 28.3169 121.039 28.7986 120.557C29.2804 120.075 29.9339 119.803 30.6156 119.802H114.779C115.117 119.802 115.452 119.868 115.764 119.997C116.077 120.126 116.361 120.316 116.6 120.555C116.839 120.794 117.029 121.077 117.159 121.39C117.288 121.702 117.355 122.037 117.355 122.375C117.355 122.713 117.288 123.048 117.159 123.36C117.029 123.673 116.839 123.956 116.6 124.195C116.361 124.434 116.077 124.624 115.764 124.753C115.452 124.882 115.117 124.948 114.779 124.948Z" fill="#BDE3DB"/>
<path d="M114.779 151.41H30.6156C29.9339 151.409 29.2804 151.138 28.7986 150.655C28.3169 150.173 28.0463 149.519 28.0463 148.837C28.0463 148.156 28.3169 147.502 28.7986 147.019C29.2804 146.537 29.9339 146.266 30.6156 146.265H114.779C115.117 146.264 115.452 146.33 115.764 146.46C116.077 146.589 116.361 146.778 116.6 147.017C116.839 147.256 117.029 147.54 117.159 147.852C117.288 148.164 117.355 148.499 117.355 148.837C117.355 149.175 117.288 149.51 117.159 149.823C117.029 150.135 116.839 150.419 116.6 150.658C116.361 150.897 116.077 151.086 115.764 151.215C115.452 151.344 115.117 151.41 114.779 151.41Z" fill="#BDE3DB"/>
<path d="M114.779 177.871H30.6156C29.9339 177.87 29.2804 177.599 28.7986 177.116C28.3169 176.634 28.0463 175.98 28.0463 175.298C28.0463 174.617 28.3169 173.963 28.7986 173.48C29.2804 172.998 29.9339 172.726 30.6156 172.726H114.779C115.117 172.725 115.452 172.791 115.764 172.92C116.077 173.05 116.361 173.239 116.6 173.478C116.839 173.717 117.029 174.001 117.159 174.313C117.288 174.625 117.355 174.96 117.355 175.298C117.355 175.636 117.288 175.971 117.159 176.284C117.029 176.596 116.839 176.88 116.6 177.119C116.361 177.358 116.077 177.547 115.764 177.676C115.452 177.805 115.117 177.871 114.779 177.871Z" fill="#BDE3DB"/>
<path d="M114.779 204.332H30.6156C29.9339 204.331 29.2804 204.06 28.7986 203.577C28.3169 203.095 28.0463 202.441 28.0463 201.759C28.0463 201.077 28.3169 200.424 28.7986 199.941C29.2804 199.459 29.9339 199.187 30.6156 199.187H114.779C115.117 199.186 115.452 199.252 115.764 199.381C116.077 199.51 116.361 199.7 116.6 199.939C116.839 200.178 117.029 200.462 117.159 200.774C117.288 201.086 117.355 201.421 117.355 201.759C117.355 202.097 117.288 202.432 117.159 202.745C117.029 203.057 116.839 203.341 116.6 203.58C116.361 203.818 116.077 204.008 115.764 204.137C115.452 204.266 115.117 204.332 114.779 204.332Z" fill="#BDE3DB"/>
<path d="M100.077 98.4857H30.2479C29.9097 98.4861 29.5748 98.4199 29.2623 98.2908C28.9498 98.1617 28.6658 97.9723 28.4265 97.7334C28.1873 97.4944 27.9975 97.2107 27.868 96.8983C27.7385 96.5859 27.6718 96.2511 27.6718 95.913C27.6718 95.5749 27.7385 95.2401 27.868 94.9277C27.9975 94.6154 28.1873 94.3316 28.4265 94.0927C28.6658 93.8537 28.9498 93.6643 29.2623 93.5352C29.5748 93.4061 29.9097 93.3399 30.2479 93.3403H100.077C100.759 93.3412 101.413 93.6127 101.894 94.095C102.376 94.5774 102.647 95.2313 102.647 95.913C102.647 96.5947 102.376 97.2486 101.894 97.731C101.413 98.2133 100.759 98.4848 100.077 98.4857Z" fill="#58C490"/>
<path d="M78.3935 124.948H30.2479C29.5656 124.948 28.9112 124.677 28.4287 124.194C27.9463 123.712 27.6752 123.057 27.6752 122.375C27.6752 121.693 27.9463 121.038 28.4287 120.556C28.9112 120.073 29.5656 119.802 30.2479 119.802H78.3935C78.7317 119.802 79.0666 119.868 79.3791 119.997C79.6916 120.126 79.9756 120.316 80.2149 120.555C80.4541 120.794 80.6439 121.077 80.7734 121.39C80.9029 121.702 80.9696 122.037 80.9696 122.375C80.9696 122.713 80.9029 123.048 80.7734 123.36C80.6439 123.673 80.4541 123.956 80.2149 124.195C79.9756 124.434 79.6916 124.624 79.3791 124.753C79.0666 124.882 78.7317 124.948 78.3935 124.948Z" fill="#58C490"/>
<path d="M51.9317 151.41H30.2478C29.9097 151.41 29.5748 151.344 29.2623 151.215C28.9497 151.086 28.6657 150.897 28.4265 150.658C28.1872 150.419 27.9974 150.135 27.8679 149.823C27.7384 149.51 27.6718 149.175 27.6718 148.837C27.6718 148.499 27.7384 148.164 27.8679 147.852C27.9974 147.54 28.1872 147.256 28.4265 147.017C28.6657 146.778 28.9497 146.589 29.2623 146.46C29.5748 146.33 29.9097 146.264 30.2478 146.265H51.9317C52.6135 146.266 53.267 146.537 53.7487 147.019C54.2304 147.502 54.501 148.156 54.501 148.837C54.501 149.519 54.2304 150.173 53.7487 150.655C53.267 151.138 52.6135 151.409 51.9317 151.41Z" fill="#58C490"/>
<path d="M106.693 177.871H30.2479C29.5656 177.871 28.9112 177.6 28.4287 177.117C27.9463 176.635 27.6752 175.981 27.6752 175.298C27.6752 174.616 27.9463 173.962 28.4287 173.479C28.9112 172.997 29.5656 172.726 30.2479 172.726H106.693C107.375 172.726 108.03 172.997 108.512 173.479C108.995 173.962 109.266 174.616 109.266 175.298C109.266 175.981 108.995 176.635 108.512 177.117C108.03 177.6 107.375 177.871 106.693 177.871Z" fill="#58C490"/>
<path d="M89.7868 204.332H30.2479C29.9097 204.332 29.5748 204.266 29.2623 204.137C28.9498 204.008 28.6658 203.818 28.4265 203.58C28.1873 203.341 27.9975 203.057 27.868 202.745C27.7385 202.432 27.6718 202.097 27.6718 201.759C27.6718 201.421 27.7385 201.086 27.868 200.774C27.9975 200.462 28.1873 200.178 28.4265 199.939C28.6658 199.7 28.9498 199.51 29.2623 199.381C29.5748 199.252 29.9097 199.186 30.2479 199.187H89.7868C90.1249 199.186 90.4598 199.252 90.7723 199.381C91.0849 199.51 91.3689 199.7 91.6081 199.939C91.8474 200.178 92.0372 200.462 92.1667 200.774C92.2962 201.086 92.3628 201.421 92.3628 201.759C92.3628 202.097 92.2962 202.432 92.1667 202.745C92.0372 203.057 91.8474 203.341 91.6081 203.58C91.3689 203.818 91.0849 204.008 90.7723 204.137C90.4598 204.266 90.1249 204.332 89.7868 204.332Z" fill="#58C490"/>
<path d="M194.543 185.62C194.543 185.62 191.754 165.165 187.105 170.743C182.456 176.322 187.105 184.69 187.105 184.69L190.824 189.339L194.543 186.549V185.62Z" fill="#FFBDBD"/>
<path d="M205.701 192.128C205.701 192.128 196.403 181.9 194.544 183.76C192.684 185.619 187.106 186.549 188.035 190.268C188.965 193.987 208.49 206.074 208.49 206.074L205.701 192.128Z" fill="#3CA4FF"/>
<path d="M258.698 191.199V198.637C258.698 198.637 259.628 215.373 254.049 214.443C248.47 213.513 251.26 199.567 251.26 199.567L252.19 191.199L258.698 191.199Z" fill="#FFBDBD"/>
<path d="M255.908 245.125C255.908 245.125 264.276 258.142 267.066 259.072C269.855 260.002 284.731 268.37 286.591 276.738L299.608 293.474L293.099 301.842C293.099 301.842 263.347 270.229 254.979 267.44C246.611 264.651 238.243 250.704 238.243 250.704L255.908 245.125Z" fill="#FFBDBD"/>
<path d="M189.895 223.739C189.895 223.739 172.229 226.529 175.018 237.686C177.808 248.843 204.771 272.087 204.771 272.087L205.701 277.666L215.928 279.526L220.577 274.877L219.648 272.087C219.648 272.087 208.49 261.86 207.56 258.141C206.631 254.422 196.403 239.545 191.754 238.616L198.263 234.897L189.895 223.739Z" fill="#FFBDBD"/>
<path d="M296.818 293.474C296.818 293.474 293.099 287.895 298.678 288.825C304.257 289.755 307.976 290.684 307.976 294.403C307.976 298.123 303.327 324.156 297.748 322.297C292.169 320.437 296.818 312.069 296.818 312.069C296.818 312.069 294.029 304.631 292.17 303.701C290.31 302.771 290.31 298.122 292.17 298.122C294.029 298.122 297.748 295.333 296.818 293.474Z" fill="#191919"/>
<path d="M217.788 273.018C217.788 273.018 217.788 268.369 221.507 273.018C225.226 277.667 227.085 281.386 223.366 284.176C219.647 286.965 206.63 293.473 206.63 293.473C206.63 293.473 192.684 296.263 194.543 289.754C194.543 289.754 203.841 285.105 203.841 281.386C203.841 277.667 203.841 271.159 206.63 273.018C209.42 274.878 217.788 275.808 217.788 273.018Z" fill="#191919"/>
<path d="M235.454 203.285C235.454 203.285 248.471 205.145 247.541 223.74C247.541 223.74 264.277 240.476 259.628 246.055C254.979 251.633 244.751 261.861 241.032 259.072C237.313 256.282 226.156 234.897 226.156 234.897C226.156 234.897 200.122 244.195 195.473 239.546C190.825 234.897 186.176 223.74 186.176 223.74L209.42 211.653L235.454 203.285Z" fill="#191919"/>
<path d="M199.192 150.288C205.354 150.288 210.35 145.292 210.35 139.13C210.35 132.968 205.354 127.973 199.192 127.973C193.03 127.973 188.035 132.968 188.035 139.13C188.035 145.292 193.03 150.288 199.192 150.288Z" fill="#FFBDBD"/>
<path d="M207.56 140.061C207.56 140.061 214.069 150.288 215.928 151.218C217.788 152.148 202.911 161.445 202.911 161.445C202.911 161.445 202.911 149.358 198.263 146.569L207.56 140.061Z" fill="#FFBDBD"/>
<path d="M208.49 150.288C208.49 150.288 223.366 145.639 226.156 153.078C228.945 160.516 235.454 174.462 234.524 183.76C233.594 193.058 231.734 191.198 234.524 193.988C237.313 196.777 239.173 194.917 238.243 198.637C237.313 202.356 236.383 202.356 237.313 204.215C238.243 206.075 226.156 212.583 215.928 213.513L205.701 214.443C205.701 214.443 205.701 197.707 203.841 193.988C201.982 190.269 198.263 182.83 198.263 180.041V172.661C198.263 167.749 199.545 162.921 201.982 158.656C201.982 158.656 207.56 150.288 208.49 150.288Z" fill="#58B1FF"/>
<path d="M219.647 154.007C219.647 154.007 254.049 156.796 257.768 166.094C261.487 175.392 263.347 193.987 259.628 193.987C255.909 193.987 251.26 195.847 250.33 193.987C249.4 192.128 245.681 173.532 244.751 173.532C243.821 173.532 215.928 170.743 215.928 170.743C215.928 170.743 203.841 155.866 219.647 154.007Z" fill="#58B1FF"/>
<path d="M198.744 136.365C198.744 136.365 195.783 131.22 192.082 135.689C188.381 140.158 182.36 131.945 183.285 130.193C184.209 128.44 187.473 130.272 193.066 128.443C198.66 126.614 209.435 122.889 211.239 135.041C213.044 147.192 208.746 145.918 208.746 145.918C208.746 145.918 206.776 135.151 204.996 138.244L203.215 141.336L201.671 141.717L198.744 136.365Z" fill="#191919"/>
</svg>
