<svg width="366" height="362" viewBox="0 0 366 362" fill="none" xmlns="http://www.w3.org/2000/svg">
<rect width="366" height="362" rx="12" fill="#E6F8F5"/>
<path d="M171.994 289.189C171.994 289.189 176.653 281.546 182.633 286.065C188.614 290.584 199.689 298.208 199.689 298.208C199.689 298.208 201.958 303.085 196.087 301.253C190.215 299.421 171.048 296.474 171.048 296.474L171.994 289.189Z" fill="#FEB8B8"/>
<path d="M41.8141 240.654C43.2985 228.717 50.6962 216.956 62.0802 213.071C57.5907 225.357 57.5917 238.836 62.0829 251.121C63.8322 255.853 66.2705 260.934 64.6251 265.702C63.6013 268.67 61.0968 270.94 58.2973 272.36C55.4976 273.779 52.3905 274.456 49.3223 275.119L48.7185 275.618C43.8477 264.62 40.3296 252.59 41.8141 240.654Z" fill="#58C490"/>
<path d="M62.1929 213.297C55.5634 220.725 51.443 230.054 50.4169 239.957C50.1581 242.085 50.2364 244.24 50.6489 246.344C51.1169 248.38 52.1217 250.254 53.5588 251.771C54.8703 253.212 56.3787 254.534 57.3172 256.268C57.7843 257.163 58.057 258.147 58.1173 259.155C58.1776 260.163 58.0242 261.172 57.6671 262.117C56.8386 264.493 55.2056 266.43 53.5429 268.269C51.6967 270.31 49.7468 272.401 48.9621 275.108C48.867 275.436 48.3637 275.269 48.4586 274.941C49.824 270.233 54.395 267.558 56.5749 263.317C57.592 261.338 58.019 259.04 57.0654 256.951C56.2315 255.125 54.6772 253.76 53.3366 252.312C51.913 250.853 50.8683 249.068 50.2937 247.112C49.7755 245.036 49.6142 242.888 49.817 240.758C50.1969 235.955 51.3295 231.242 53.1734 226.792C55.2496 221.701 58.1815 217.002 61.8421 212.9C62.0688 212.646 62.4181 213.045 62.1929 213.297Z" fill="white"/>
<path d="M50.5596 236.748C48.9215 236.35 47.478 235.383 46.487 234.019C45.4961 232.655 45.0221 230.984 45.1498 229.303C45.1768 228.963 45.7065 228.989 45.6795 229.329C45.5576 230.894 45.9993 232.451 46.9247 233.719C47.85 234.988 49.1982 235.883 50.7259 236.244C51.0577 236.323 50.8896 236.826 50.5596 236.748Z" fill="white"/>
<path d="M52.7976 251.127C55.7564 249.361 57.9406 246.544 58.9146 243.238C59.0109 242.911 59.5142 243.077 59.4181 243.404C58.398 246.842 56.1191 249.769 53.0361 251.601C52.7421 251.775 52.5053 251.301 52.7976 251.127Z" fill="white"/>
<path d="M55.7415 222.202C56.3433 222.488 57.0067 222.62 57.6721 222.586C58.3375 222.552 58.9841 222.354 59.5538 222.009C59.8455 221.83 60.082 222.305 59.7923 222.482C59.161 222.861 58.4467 223.079 57.7116 223.118C56.9765 223.157 56.243 223.015 55.5753 222.705C55.5099 222.682 55.4561 222.634 55.4248 222.571C55.3935 222.509 55.387 222.437 55.4067 222.371C55.429 222.304 55.4767 222.249 55.5394 222.217C55.6021 222.186 55.6748 222.18 55.7415 222.202Z" fill="white"/>
<path d="M96.7803 234.392C96.6013 234.509 96.4224 234.625 96.2433 234.746C93.8458 236.322 91.5803 238.091 89.4693 240.034C89.3037 240.182 89.1381 240.334 88.9771 240.486C83.941 245.223 79.828 250.853 76.8472 257.09C75.6634 259.574 74.6702 262.143 73.8762 264.777C72.7799 268.415 71.8807 272.446 69.7106 275.422C69.4877 275.735 69.2456 276.034 68.9857 276.317H49.3747C49.3301 276.294 49.2853 276.276 49.2405 276.254L48.4575 276.29C48.489 276.151 48.5246 276.008 48.5561 275.869C48.5739 275.789 48.5962 275.708 48.6142 275.628C48.6275 275.574 48.641 275.52 48.65 275.471C48.6544 275.453 48.6589 275.435 48.6633 275.422C48.6723 275.373 48.6858 275.328 48.6948 275.283C48.8916 274.482 49.0944 273.681 49.3032 272.88C49.3032 272.876 49.3032 272.876 49.3076 272.871C50.914 266.773 53.0437 260.755 56.0191 255.252C56.1087 255.086 56.198 254.916 56.2966 254.75C57.6515 252.277 59.2063 249.919 60.9454 247.699C61.9017 246.486 62.9186 245.323 63.9925 244.213C66.7727 241.352 69.9857 238.945 73.5138 237.081C80.5475 233.368 88.6906 231.945 96.2076 234.213C96.3999 234.271 96.588 234.33 96.7803 234.392Z" fill="#58C490"/>
<path d="M96.7359 234.64C86.9704 236.58 78.0642 241.547 71.2825 248.837C69.7947 250.38 68.5594 252.148 67.6222 254.076C66.77 255.984 66.4441 258.085 66.6784 260.161C66.8581 262.101 67.2665 264.065 66.9713 266.015C66.8054 267.011 66.4309 267.96 65.8722 268.802C65.3136 269.643 64.5834 270.356 63.7297 270.895C61.6375 272.294 59.1675 272.857 56.7328 273.324C54.0297 273.842 51.2137 274.338 48.9576 276.027C48.6843 276.231 48.3828 275.795 48.6558 275.591C52.5809 272.653 57.841 273.27 62.135 271.196C64.1386 270.228 65.8628 268.651 66.3591 266.409C66.7932 264.448 66.3738 262.423 66.1749 260.46C65.9166 258.438 66.1573 256.383 66.8761 254.476C67.7121 252.506 68.8772 250.693 70.3214 249.115C73.5161 245.509 77.2579 242.428 81.4098 239.985C86.1327 237.17 91.3024 235.183 96.6952 234.112C97.029 234.045 97.0675 234.575 96.7359 234.64H96.7359Z" fill="white"/>
<path d="M73.3279 246.362C72.2593 245.058 71.6891 243.417 71.7189 241.731C71.7487 240.046 72.3767 238.426 73.4907 237.16C73.717 236.905 74.1243 237.245 73.8977 237.5C72.8581 238.677 72.2733 240.186 72.2487 241.755C72.2242 243.325 72.7615 244.852 73.7637 246.06C73.9812 246.323 73.5441 246.623 73.3279 246.362H73.3279Z" fill="white"/>
<path d="M66.4578 259.189C69.8839 259.56 73.3238 258.626 76.0917 256.573C76.3658 256.369 76.6673 256.805 76.3936 257.009C73.5092 259.14 69.9275 260.104 66.3631 259.711C66.0234 259.673 66.12 259.151 66.4578 259.189Z" fill="white"/>
<path d="M86.2233 237.867C86.5317 238.457 86.9818 238.962 87.5335 239.336C88.0851 239.709 88.7209 239.94 89.3838 240.007C89.7238 240.041 89.6269 240.562 89.2891 240.529C88.5571 240.451 87.8552 240.196 87.2448 239.784C86.6344 239.373 86.1341 238.818 85.7875 238.168C85.7497 238.11 85.7356 238.039 85.7481 237.971C85.7605 237.902 85.7986 237.841 85.8545 237.8C85.9124 237.76 85.9836 237.745 86.0527 237.757C86.1218 237.77 86.1831 237.809 86.2233 237.867Z" fill="white"/>
<path d="M199.978 319.766C200.553 315.14 203.42 310.582 207.832 309.076C206.092 313.838 206.092 319.061 207.833 323.823C208.511 325.656 209.456 327.625 208.818 329.474C208.362 330.616 207.484 331.539 206.366 332.054C205.257 332.557 204.088 332.916 202.888 333.123L202.654 333.316C200.766 329.054 199.403 324.392 199.978 319.766Z" fill="#58C490"/>
<path d="M207.876 309.164C205.307 312.042 203.71 315.658 203.312 319.496C203.212 320.32 203.242 321.156 203.402 321.971C203.584 322.76 203.973 323.486 204.53 324.074C205.084 324.594 205.573 325.179 205.987 325.817C206.168 326.164 206.273 326.545 206.297 326.936C206.32 327.327 206.261 327.718 206.122 328.084C205.754 328.977 205.211 329.788 204.524 330.468C203.808 331.259 203.053 332.07 202.748 333.118C202.712 333.246 202.517 333.181 202.553 333.054C203.083 331.229 204.854 330.193 205.699 328.549C205.917 328.179 206.047 327.765 206.08 327.337C206.113 326.91 206.048 326.48 205.889 326.082C205.506 325.41 205.018 324.803 204.444 324.284C203.892 323.719 203.487 323.027 203.265 322.269C203.064 321.464 203.001 320.631 203.08 319.806C203.227 317.945 203.666 316.118 204.381 314.393C205.185 312.42 206.322 310.599 207.74 309.01C207.828 308.911 207.963 309.066 207.876 309.164H207.876Z" fill="white"/>
<path d="M203.367 318.253C202.732 318.098 202.173 317.724 201.789 317.195C201.405 316.667 201.221 316.019 201.271 315.367C201.281 315.236 201.486 315.246 201.476 315.378C201.429 315.984 201.6 316.588 201.958 317.079C202.317 317.57 202.84 317.917 203.432 318.058C203.56 318.088 203.495 318.283 203.367 318.253H203.367Z" fill="white"/>
<path d="M204.235 323.826C205.382 323.141 206.228 322.049 206.606 320.768C206.643 320.641 206.838 320.706 206.801 320.832C206.405 322.165 205.522 323.299 204.327 324.009C204.213 324.077 204.122 323.893 204.235 323.826Z" fill="white"/>
<path d="M205.376 312.616C205.609 312.726 205.866 312.778 206.124 312.765C206.382 312.751 206.632 312.674 206.853 312.541C206.966 312.472 207.058 312.656 206.946 312.724C206.701 312.871 206.424 312.956 206.139 312.971C205.854 312.986 205.57 312.931 205.311 312.811C205.286 312.801 205.265 312.783 205.253 312.759C205.241 312.735 205.238 312.707 205.246 312.681C205.255 312.655 205.273 312.634 205.297 312.622C205.322 312.609 205.35 312.607 205.376 312.616L205.376 312.616Z" fill="white"/>
<path d="M221.28 317.339C221.211 317.384 221.142 317.429 221.072 317.476C220.143 318.087 219.265 318.772 218.447 319.526C218.383 319.583 218.319 319.642 218.256 319.701C216.304 321.536 214.71 323.718 213.555 326.136C213.096 327.098 212.712 328.094 212.404 329.115C211.979 330.525 211.63 332.087 210.789 333.24C210.703 333.361 210.609 333.477 210.509 333.587H202.908C202.891 333.578 202.874 333.571 202.856 333.563L202.553 333.577C202.565 333.523 202.579 333.467 202.591 333.414C202.598 333.382 202.607 333.351 202.613 333.32C202.619 333.299 202.624 333.278 202.627 333.259C202.629 333.252 202.631 333.245 202.632 333.24C202.636 333.221 202.641 333.204 202.645 333.186C202.721 332.876 202.8 332.566 202.88 332.255L202.882 332.252C203.476 329.881 204.349 327.588 205.483 325.423C205.518 325.359 205.553 325.293 205.591 325.229C206.116 324.27 206.718 323.356 207.392 322.496C207.763 322.026 208.157 321.575 208.573 321.145C209.651 320.036 210.896 319.103 212.263 318.381C214.989 316.942 218.145 316.391 221.058 317.27C221.133 317.292 221.206 317.315 221.28 317.339Z" fill="#58C490"/>
<path d="M221.263 317.436C217.478 318.187 214.027 320.112 211.399 322.937C210.822 323.536 210.343 324.221 209.98 324.968C209.65 325.707 209.523 326.522 209.614 327.326C209.744 328.075 209.782 328.837 209.728 329.595C209.663 329.981 209.518 330.349 209.302 330.675C209.085 331.001 208.802 331.277 208.471 331.486C207.64 331.978 206.718 332.299 205.76 332.428C204.712 332.628 203.621 332.821 202.747 333.475C202.641 333.554 202.524 333.385 202.63 333.306C204.151 332.168 206.189 332.406 207.853 331.603C208.25 331.439 208.603 331.186 208.887 330.865C209.171 330.543 209.377 330.161 209.491 329.747C209.589 328.98 209.565 328.202 209.419 327.442C209.319 326.658 209.412 325.862 209.691 325.123C210.015 324.36 210.466 323.657 211.026 323.045C212.264 321.648 213.714 320.454 215.323 319.507C217.154 318.416 219.157 317.646 221.247 317.231C221.377 317.205 221.392 317.41 221.263 317.436H221.263Z" fill="white"/>
<path d="M212.191 321.979C211.777 321.473 211.556 320.837 211.568 320.184C211.579 319.531 211.823 318.903 212.255 318.413C212.342 318.314 212.5 318.445 212.412 318.544C212.009 319 211.783 319.585 211.773 320.193C211.764 320.802 211.972 321.393 212.36 321.862C212.445 321.963 212.275 322.08 212.191 321.979Z" fill="white"/>
<path d="M209.529 326.949C210.857 327.093 212.19 326.731 213.263 325.936C213.369 325.857 213.486 326.026 213.38 326.104C212.262 326.93 210.874 327.304 209.492 327.152C209.361 327.137 209.398 326.935 209.529 326.949H209.529Z" fill="white"/>
<path d="M217.189 318.687C217.308 318.916 217.483 319.112 217.697 319.256C217.91 319.401 218.157 319.491 218.414 319.517C218.545 319.53 218.508 319.732 218.377 319.719C218.093 319.689 217.821 319.59 217.585 319.43C217.348 319.271 217.154 319.056 217.02 318.804C217.005 318.781 217 318.754 217.005 318.728C217.009 318.701 217.024 318.677 217.046 318.661C217.068 318.646 217.096 318.64 217.123 318.645C217.149 318.65 217.173 318.665 217.189 318.687Z" fill="white"/>
<path d="M330.558 221.501C328.276 203.154 316.906 185.076 299.408 179.105C306.309 197.99 306.307 218.707 299.404 237.59C296.715 244.863 292.967 252.672 295.496 260.002C297.07 264.563 300.92 268.053 305.223 270.234C309.526 272.416 314.302 273.456 319.018 274.475L319.946 275.243C327.432 258.338 332.84 239.848 330.558 221.501Z" fill="#58C490"/>
<path d="M299.235 179.452C309.425 190.87 315.758 205.208 317.335 220.429C317.653 223.692 317.692 227.03 316.978 230.247C316.259 233.377 314.715 236.257 312.506 238.588C310.49 240.803 308.171 242.835 306.729 245.501C305.209 248.311 305.15 251.505 306.191 254.49C307.465 258.143 309.974 261.12 312.53 263.946C315.368 267.084 318.365 270.298 319.571 274.458C319.717 274.962 320.491 274.706 320.345 274.202C318.246 266.965 311.22 262.854 307.87 256.335C306.306 253.293 305.65 249.762 307.116 246.551C308.398 243.743 310.787 241.645 312.847 239.42C315.011 237.084 316.67 234.521 317.524 231.428C318.399 228.264 318.49 224.917 318.257 221.66C317.673 214.279 315.932 207.035 313.098 200.194C309.907 192.369 305.4 185.147 299.774 178.841C299.426 178.451 298.889 179.065 299.235 179.452L299.235 179.452Z" fill="white"/>
<path d="M317.116 215.499C319.634 214.888 321.852 213.401 323.375 211.305C324.899 209.209 325.627 206.64 325.431 204.056C325.389 203.533 324.575 203.573 324.617 204.097C324.804 206.502 324.125 208.896 322.703 210.845C321.28 212.794 319.208 214.17 316.86 214.725C316.35 214.847 316.608 215.62 317.116 215.499H317.116Z" fill="white"/>
<path d="M313.675 237.6C309.128 234.885 305.771 230.555 304.273 225.474C304.125 224.971 303.352 225.227 303.5 225.73C305.067 231.014 308.57 235.513 313.309 238.328C313.761 238.596 314.125 237.867 313.675 237.6Z" fill="white"/>
<path d="M309.151 193.142C308.226 193.581 307.206 193.784 306.183 193.732C305.16 193.68 304.167 193.375 303.291 192.844C302.843 192.57 302.479 193.3 302.924 193.572C303.895 194.154 304.993 194.49 306.123 194.549C307.252 194.609 308.38 194.392 309.406 193.915C309.507 193.879 309.589 193.805 309.637 193.709C309.686 193.614 309.696 193.503 309.665 193.401C309.631 193.298 309.558 193.214 309.461 193.165C309.365 193.117 309.253 193.108 309.151 193.142Z" fill="white"/>
<path d="M246.073 211.876C246.348 212.054 246.623 212.233 246.898 212.419C250.583 214.842 254.065 217.561 257.31 220.548C257.565 220.775 257.819 221.009 258.067 221.242C265.807 228.522 272.129 237.176 276.711 246.764C278.53 250.581 280.057 254.531 281.277 258.579C282.962 264.17 284.345 270.367 287.68 274.94C288.023 275.421 288.395 275.88 288.794 276.315H318.937C319.006 276.281 319.075 276.254 319.144 276.219L320.347 276.274C320.299 276.061 320.244 275.841 320.196 275.628C320.168 275.504 320.134 275.38 320.106 275.256C320.086 275.174 320.065 275.091 320.051 275.016C320.044 274.988 320.037 274.961 320.031 274.94C320.017 274.864 319.996 274.796 319.982 274.727C319.68 273.496 319.368 272.265 319.047 271.034C319.047 271.027 319.047 271.027 319.04 271.02C316.571 261.646 313.298 252.396 308.725 243.937C308.587 243.683 308.45 243.422 308.298 243.167C306.215 239.366 303.826 235.741 301.153 232.329C299.683 230.465 298.12 228.677 296.469 226.971C292.196 222.572 287.257 218.873 281.834 216.009C271.023 210.301 258.507 208.114 246.953 211.601C246.657 211.69 246.368 211.779 246.073 211.876Z" fill="#58C490"/>
<path d="M246.14 212.259C261.15 215.24 274.839 222.875 285.263 234.079C287.482 236.493 289.522 239.135 290.889 242.132C292.199 245.065 292.7 248.294 292.34 251.485C292.064 254.467 291.436 257.486 291.89 260.483C292.368 263.642 294.244 266.227 296.872 267.984C300.088 270.134 303.885 271 307.627 271.717C311.782 272.514 316.11 273.276 319.578 275.872C319.998 276.186 320.461 275.516 320.042 275.202C314.008 270.686 305.924 271.634 299.323 268.446C296.244 266.959 293.594 264.534 292.831 261.088C292.164 258.075 292.808 254.961 293.114 251.944C293.435 248.776 293.216 245.731 292.036 242.747C290.829 239.694 288.888 236.967 286.741 234.507C281.83 228.965 276.079 224.229 269.697 220.473C262.438 216.146 254.492 213.093 246.203 211.446C245.69 211.345 245.631 212.158 246.14 212.259V212.259Z" fill="white"/>
<path d="M282.12 230.274C283.762 228.27 284.638 225.747 284.593 223.157C284.547 220.566 283.582 218.076 281.869 216.131C281.521 215.739 280.895 216.261 281.244 216.654C282.842 218.462 283.74 220.781 283.778 223.194C283.816 225.607 282.99 227.953 281.45 229.81C281.115 230.214 281.787 230.676 282.12 230.274L282.12 230.274Z" fill="white"/>
<path d="M292.679 249.991C287.413 250.561 282.126 249.125 277.872 245.97C277.45 245.657 276.987 246.327 277.408 246.64C281.841 249.915 287.346 251.398 292.825 250.793C293.347 250.735 293.199 249.933 292.679 249.991Z" fill="white"/>
<path d="M262.299 217.219C261.825 218.126 261.133 218.902 260.285 219.477C259.438 220.051 258.46 220.406 257.441 220.509C256.919 220.56 257.068 221.362 257.587 221.311C258.712 221.191 259.791 220.798 260.729 220.166C261.667 219.533 262.436 218.681 262.969 217.683C263.027 217.593 263.049 217.484 263.03 217.379C263.011 217.273 262.952 217.179 262.866 217.116C262.777 217.055 262.668 217.031 262.561 217.051C262.455 217.07 262.361 217.13 262.299 217.219V217.219Z" fill="white"/>
<path d="M365.699 276.764H0.447433C0.328766 276.764 0.21496 276.717 0.13105 276.633C0.0471398 276.549 0 276.435 0 276.317C0 276.198 0.0471398 276.084 0.13105 276C0.21496 275.916 0.328766 275.869 0.447433 275.869H365.553C365.671 275.869 365.785 275.916 365.869 276C365.953 276.084 366 276.198 366 276.317C366 276.564 365.946 276.764 365.699 276.764Z" fill="#BDE3DB"/>
<path d="M128.112 316.137H47.4278C47.3092 316.137 47.1954 316.09 47.1115 316.006C47.0276 315.922 46.9804 315.808 46.9804 315.69C46.9804 315.571 47.0276 315.457 47.1115 315.373C47.1954 315.289 47.3092 315.242 47.4278 315.242H127.966C128.084 315.242 128.198 315.289 128.282 315.373C128.366 315.457 128.413 315.571 128.413 315.69C128.413 315.937 128.359 316.137 128.112 316.137Z" fill="#BDE3DB"/>
<path d="M254.736 333.587H174.051C173.933 333.587 173.819 333.54 173.735 333.456C173.651 333.372 173.604 333.258 173.604 333.139C173.604 333.021 173.651 332.907 173.735 332.823C173.819 332.739 173.933 332.692 174.051 332.692H254.589C254.708 332.692 254.822 332.739 254.906 332.823C254.99 332.907 255.037 333.021 255.037 333.139C255.037 333.386 254.983 333.587 254.736 333.587Z" fill="#BDE3DB"/>
<path d="M330.799 315.69H250.115C249.996 315.69 249.882 315.643 249.799 315.559C249.715 315.475 249.667 315.362 249.667 315.243C249.667 315.124 249.715 315.01 249.799 314.926C249.882 314.843 249.996 314.795 250.115 314.795H330.653C330.771 314.795 330.885 314.843 330.969 314.926C331.053 315.01 331.1 315.124 331.1 315.243C331.1 315.49 331.046 315.69 330.799 315.69Z" fill="#BDE3DB"/>
<path d="M149.111 298.688C144.099 298.688 139.51 298.208 135.864 297.072C131.531 295.723 128.81 293.541 127.776 290.582C127.291 289.326 127.146 287.963 127.356 286.633C127.566 285.302 128.125 284.051 128.974 283.006C135.385 274.653 157.631 272.297 160.616 272.018L166.671 260.552C167.059 257.816 165.225 255.745 168.393 255.693L205.858 255.184C208.969 255.119 208.086 257.045 208.619 259.713L214.327 269.902L189.76 280.271L193.474 289.322L193.232 289.462C186.042 293.633 165.364 298.687 149.111 298.688Z" fill="#292742"/>
<path d="M210.925 270.337C210.925 270.337 245.235 266.41 242.997 282.116C240.76 297.821 214.655 308.945 175.125 282.116L179.6 274.263C179.6 274.263 194.33 273.53 203.281 269.604L210.925 270.337Z" fill="#292742"/>
<path d="M162.353 199.187C162.353 199.187 155.832 198.001 154.053 208.079C152.275 218.156 149.426 242.028 149.426 242.028L140.581 272.693C139.538 273.246 138.673 274.086 138.089 275.112C137.505 276.139 137.225 277.31 137.282 278.49C137.339 279.67 137.73 280.809 138.41 281.775C139.091 282.74 140.032 283.493 141.123 283.944C142.215 284.394 143.412 284.525 144.576 284.321C145.739 284.117 146.82 283.586 147.693 282.79C148.566 281.994 149.194 280.967 149.505 279.827C149.815 278.687 149.795 277.483 149.447 276.354L161.282 243.809L163.538 215.788V201.105C163.538 200.707 163.427 200.316 163.218 199.977C163.009 199.639 162.709 199.365 162.353 199.187Z" fill="#FEB8B8"/>
<path d="M208.252 199.187C208.252 199.187 214.773 198.001 216.551 208.079C218.33 218.156 221.179 242.028 221.179 242.028L230.024 272.693C231.067 273.246 231.931 274.086 232.515 275.112C233.1 276.139 233.38 277.31 233.323 278.49C233.266 279.67 232.874 280.809 232.194 281.775C231.514 282.74 230.573 283.493 229.481 283.944C228.39 284.394 227.192 284.525 226.029 284.321C224.866 284.117 223.784 283.586 222.912 282.79C222.039 281.994 221.41 280.967 221.1 279.827C220.789 278.687 220.809 277.483 221.158 276.354L209.322 243.809L207.066 215.788V201.105C207.066 200.707 207.177 200.316 207.387 199.977C207.596 199.639 207.896 199.365 208.252 199.187Z" fill="#FEB8B8"/>
<path d="M207.755 190.857L195.421 186.244L171.513 185.935L161.222 190.857L164.113 207.468C164.113 207.468 158.277 217.35 164.702 227.232L166.144 262.446C166.144 262.446 189.194 275.812 208.65 259.761L204.253 227.021C204.253 227.021 211.608 211.831 205.907 206.187L207.755 190.857Z" fill="#9093FD"/>
<path d="M202.731 196.019L207.755 190.857C207.755 190.857 218.719 196.624 218.493 215.913L204.662 211.651L202.731 196.019Z" fill="#9093FD"/>
<path d="M166.803 196.019L161.466 190.682C161.466 190.682 152.048 197.967 152.274 217.256L164.872 211.651L166.803 196.019Z" fill="#9093FD"/>
<path d="M201.597 285.373C201.597 285.373 197.755 277.289 191.339 281.164C184.922 285.039 173.117 291.476 173.117 291.476C173.117 291.476 170.356 296.091 176.385 294.877C182.415 293.663 201.784 292.716 201.784 292.716L201.597 285.373Z" fill="#FEB8B8"/>
<path d="M190.923 140.871C190.978 140.819 191.034 140.772 191.088 140.719C194.521 137.285 195.217 132.415 192.642 129.84C190.209 127.406 185.727 127.897 182.343 130.856C179.443 128.094 175.553 127.325 173.035 129.231C170.132 131.429 170.155 136.349 173.086 140.22C173.287 140.485 173.498 140.736 173.714 140.977C169.813 142.405 166.445 144.997 164.066 148.401C161.686 151.806 160.41 155.86 160.41 160.014V179.307C160.41 179.873 160.522 180.433 160.738 180.956C160.955 181.478 161.272 181.953 161.672 182.353C162.072 182.753 162.547 183.071 163.07 183.287C163.592 183.504 164.153 183.615 164.718 183.615H200.377C201.481 183.615 202.54 183.176 203.321 182.396C204.102 181.615 204.54 180.556 204.54 179.452V160.014C204.54 155.804 203.228 151.699 200.788 148.268C198.348 144.838 194.9 142.253 190.923 140.871Z" fill="#191919"/>
<path d="M195.003 176.733C201.611 170.125 201.611 159.411 195.003 152.803C188.395 146.195 177.681 146.195 171.073 152.803C164.465 159.411 164.465 170.125 171.073 176.733C177.681 183.341 188.395 183.341 195.003 176.733Z" fill="#FFB6B6"/>
<path d="M165.258 154.126C169.125 156.791 173.714 158.209 178.411 158.191C176.735 159.352 174.828 160.137 172.821 160.49C179.065 161.83 185.518 161.866 191.776 160.597C193.167 160.374 194.51 159.913 195.744 159.234C196.359 158.89 196.896 158.421 197.318 157.857C197.739 157.292 198.038 156.646 198.194 155.958C198.609 153.582 196.758 151.424 194.834 149.969C191.889 147.776 188.492 146.265 184.891 145.545C181.29 144.826 177.574 144.916 174.012 145.808C171.686 146.41 169.355 147.425 167.845 149.293C166.334 151.161 165.886 154.041 167.326 155.965L165.258 154.126Z" fill="#191919"/>
<path d="M74.7526 120.36L75.2858 119.641L89.4914 130.178C88.7194 127.825 85.9869 120.366 81.5074 117.39C76.1561 113.835 72.3911 114.941 70.3398 118.028C68.2886 121.115 68.7278 125.015 74.0792 128.57C78.6154 131.584 86.6963 131.165 89.0539 130.968L74.7526 120.36Z" fill="#BDE3DB"/>
<path d="M288.49 62.6699L289.15 63.275L277.192 76.3076C279.613 75.7845 287.315 73.8426 290.741 69.697C294.834 64.7445 294.125 60.8848 291.268 58.5236C288.411 56.1624 284.487 56.1937 280.394 61.1463C276.925 65.3443 276.501 73.425 276.452 75.7904L288.49 62.6699Z" fill="#BDE3DB"/>
<path d="M95.6463 201.822L96.3058 202.427L84.3484 215.46C86.7688 214.937 94.4713 212.995 97.8972 208.849C101.99 203.897 101.282 200.037 98.4242 197.676C95.5669 195.315 91.643 195.346 87.5502 200.299C84.0808 204.497 83.6571 212.577 83.6084 214.943L95.6463 201.822Z" fill="#BDE3DB"/>
<path d="M196.756 77.6036L197.531 78.0519L188.673 93.3607C190.923 92.3269 198.023 88.7662 200.472 83.9782C203.398 78.2581 201.872 74.6428 198.572 72.9549C195.272 71.267 191.448 72.1456 188.522 77.8657C186.042 82.7144 187.375 90.6957 187.838 93.0157L196.756 77.6036Z" fill="#BDE3DB"/>
<path d="M279.531 173.355L280.306 173.803L271.448 189.112C273.698 188.078 280.799 184.518 283.247 179.73C286.173 174.01 284.647 170.394 281.347 168.706C278.047 167.018 274.223 167.897 271.297 173.617C268.817 178.466 270.15 186.447 270.613 188.767L279.531 173.355Z" fill="#BDE3DB"/>
</svg>
