<svg width="102" height="101" viewBox="0 0 102 101" fill="none" xmlns="http://www.w3.org/2000/svg">
<rect width="102" height="101" rx="12" fill="#E6F8F5"/>
<path d="M94.2009 88.5466C94.2009 91.4299 74.6803 98.0004 50.6005 98.0004C26.5206 98.0004 7 91.4299 7 88.5466C7 85.6632 26.5206 87.5589 50.6005 87.5589C74.6803 87.5589 94.2009 85.6632 94.2009 88.5466Z" fill="#3F3D56"/>
<path d="M94.2009 88.5466C94.2009 91.4299 74.6803 98.0004 50.6005 98.0004C26.5206 98.0004 7 91.4299 7 88.5466C7 85.6632 26.5206 87.5589 50.6005 87.5589C74.6803 87.5589 94.2009 85.6632 94.2009 88.5466Z" fill="#141326"/>
<path d="M19.4168 50.1667C20.4299 50.1667 21.2512 49.3454 21.2512 48.3324C21.2512 47.3193 20.4299 46.498 19.4168 46.498C18.4038 46.498 17.5825 47.3193 17.5825 48.3324C17.5825 49.3454 18.4038 50.1667 19.4168 50.1667Z" fill="#58C490"/>
<path d="M27.4598 65.2648C28.4729 65.2648 29.2941 64.4436 29.2941 63.4305C29.2941 62.4174 28.4729 61.5962 27.4598 61.5962C26.4467 61.5962 25.6255 62.4174 25.6255 63.4305C25.6255 64.4436 26.4467 65.2648 27.4598 65.2648Z" fill="#58C490"/>
<path d="M21.2514 61.4548C22.2645 61.4548 23.0858 60.6335 23.0858 59.6205C23.0858 58.6074 22.2645 57.7861 21.2514 57.7861C20.2384 57.7861 19.4171 58.6074 19.4171 59.6205C19.4171 60.6335 20.2384 61.4548 21.2514 61.4548Z" fill="#58C490"/>
<path d="M21.8364 85.6566C21.804 85.6037 21.0405 84.3289 20.7758 81.6815C20.533 79.2528 20.6891 75.1589 22.8122 69.4483C26.8345 58.6299 21.8853 49.901 21.8347 49.814L22.0789 49.6724C22.0917 49.6944 23.3688 51.9199 24.1232 55.4637C25.12 60.1621 24.7571 65.0472 23.0768 69.5466C19.0615 80.3466 22.0466 85.4592 22.0772 85.5096L21.8364 85.6566Z" fill="#BDE3DB"/>
<path d="M20.2636 49.3195C19.8729 49.3195 19.491 49.2036 19.1661 48.9866C18.8413 48.7695 18.5881 48.461 18.4386 48.1C18.2891 47.7391 18.2499 47.3419 18.3262 46.9587C18.4024 46.5755 18.5905 46.2235 18.8668 45.9472C19.1431 45.671 19.4951 45.4828 19.8782 45.4066C20.2614 45.3304 20.6586 45.3695 21.0196 45.519C21.3806 45.6685 21.6891 45.9217 21.9061 46.2466C22.1232 46.5714 22.2391 46.9534 22.2391 47.3441C22.2385 47.8678 22.0302 48.3699 21.6598 48.7403C21.2895 49.1106 20.7874 49.3189 20.2636 49.3195ZM20.2636 45.6509C19.9287 45.6509 19.6014 45.7502 19.3229 45.9362C19.0445 46.1223 18.8275 46.3867 18.6993 46.6961C18.5711 47.0055 18.5376 47.346 18.6029 47.6744C18.6683 48.0029 18.8295 48.3046 19.0663 48.5414C19.3031 48.7782 19.6049 48.9394 19.9333 49.0048C20.2618 49.0701 20.6022 49.0366 20.9116 48.9084C21.221 48.7803 21.4854 48.5632 21.6715 48.2848C21.8576 48.0063 21.9569 47.679 21.9569 47.3441C21.9563 46.8952 21.7778 46.4648 21.4604 46.1474C21.1429 45.8299 20.7125 45.6514 20.2636 45.6509Z" fill="#BDE3DB"/>
<path d="M26.0487 55.9523C27.0617 55.9523 27.883 55.1311 27.883 54.118C27.883 53.1049 27.0617 52.2837 26.0487 52.2837C25.0356 52.2837 24.2144 53.1049 24.2144 54.118C24.2144 55.1311 25.0356 55.9523 26.0487 55.9523Z" fill="#BDE3DB"/>
<path d="M22.098 60.6086C21.7073 60.6086 21.3253 60.4927 21.0005 60.2756C20.6756 60.0586 20.4224 59.7501 20.2729 59.3891C20.1234 59.0281 20.0843 58.6309 20.1605 58.2478C20.2367 57.8646 20.4249 57.5126 20.7011 57.2363C20.9774 56.96 21.3294 56.7719 21.7126 56.6957C22.0958 56.6195 22.493 56.6586 22.8539 56.8081C23.2149 56.9576 23.5234 57.2108 23.7405 57.5357C23.9576 57.8605 24.0734 58.2424 24.0734 58.6331C24.0728 59.1569 23.8645 59.659 23.4942 60.0293C23.1238 60.3997 22.6217 60.608 22.098 60.6086ZM22.098 56.9399C21.7631 56.9399 21.4357 57.0392 21.1573 57.2253C20.8788 57.4113 20.6618 57.6758 20.5336 57.9852C20.4055 58.2946 20.372 58.635 20.4373 58.9635C20.5026 59.2919 20.6639 59.5936 20.9007 59.8304C21.1375 60.0672 21.4392 60.2285 21.7676 60.2938C22.0961 60.3592 22.4366 60.3256 22.7459 60.1975C23.0553 60.0693 23.3198 59.8523 23.5058 59.5738C23.6919 59.2954 23.7912 58.968 23.7912 58.6331C23.7907 58.1842 23.6121 57.7538 23.2947 57.4364C22.9773 57.119 22.5469 56.9404 22.098 56.9399V56.9399Z" fill="#BDE3DB"/>
<path d="M26.8952 64.4181C26.5045 64.4181 26.1226 64.3023 25.7977 64.0852C25.4729 63.8682 25.2197 63.5596 25.0702 63.1987C24.9207 62.8377 24.8815 62.4405 24.9578 62.0573C25.034 61.6741 25.2221 61.3221 25.4984 61.0459C25.7747 60.7696 26.1266 60.5815 26.5098 60.5052C26.893 60.429 27.2902 60.4681 27.6512 60.6177C28.0122 60.7672 28.3207 61.0204 28.5377 61.3452C28.7548 61.6701 28.8707 62.052 28.8707 62.4427C28.8701 62.9664 28.6618 63.4686 28.2914 63.8389C27.9211 64.2092 27.419 64.4175 26.8952 64.4181ZM26.8952 60.7495C26.5603 60.7495 26.233 60.8488 25.9545 61.0348C25.6761 61.2209 25.4591 61.4854 25.3309 61.7947C25.2027 62.1041 25.1692 62.4446 25.2345 62.773C25.2999 63.1015 25.4611 63.4032 25.6979 63.64C25.9347 63.8768 26.2364 64.0381 26.5649 64.1034C26.8933 64.1687 27.2338 64.1352 27.5432 64.007C27.8526 63.8789 28.117 63.6619 28.3031 63.3834C28.4891 63.105 28.5884 62.7776 28.5884 62.4427C28.5879 61.9938 28.4094 61.5634 28.092 61.246C27.7745 60.9285 27.3441 60.75 26.8952 60.7495Z" fill="#BDE3DB"/>
<path d="M20.6869 70.2033C21.6999 70.2033 22.5212 69.3821 22.5212 68.369C22.5212 67.3559 21.6999 66.5347 20.6869 66.5347C19.6738 66.5347 18.8525 67.3559 18.8525 68.369C18.8525 69.3821 19.6738 70.2033 20.6869 70.2033Z" fill="#BDE3DB"/>
<path d="M22.9444 85.724C22.9444 85.724 21.11 81.2087 26.613 77.8223L22.9444 85.724Z" fill="#BDE3DB"/>
<path d="M20.6887 85.6421C20.6887 85.6421 19.8539 80.8405 13.3926 80.8816L20.6887 85.6421Z" fill="#BDE3DB"/>
<path d="M86.9115 87.4173H55.6893C55.6893 87.4173 55.0564 78.135 58.801 78.0296C62.5455 77.9241 62.1236 82.1433 66.8175 76.3419C71.5114 70.5405 77.2073 70.8569 77.9456 74.285C78.684 77.7131 76.5217 80.4556 80.4772 79.6118C84.4327 78.7679 90.1286 80.983 86.9115 87.4173Z" fill="#58C490"/>
<path d="M70.7734 87.4192L70.668 87.415C70.9137 81.3036 72.1936 77.377 73.2241 75.1592C74.3429 72.751 75.421 71.7762 75.4318 71.7666L75.5019 71.8454C75.4913 71.8549 74.4257 72.8201 73.3159 75.2119C72.2911 77.4204 71.0182 81.3309 70.7734 87.4192Z" fill="#BDE3DB"/>
<path d="M82.0734 87.4325L81.9722 87.403C83.1915 83.2179 86.0628 80.5755 86.0917 80.5493L86.1625 80.6274C86.1339 80.6534 83.2841 83.2771 82.0734 87.4325Z" fill="#BDE3DB"/>
<path d="M60.607 87.4253L60.5024 87.4108C60.9161 84.4273 60.1689 82.1125 59.4691 80.696C58.7115 79.1623 57.847 78.3246 57.8384 78.3164L57.9114 78.2402C57.9201 78.2486 58.798 79.0992 59.5637 80.6493C60.27 82.079 61.0243 84.4152 60.607 87.4253Z" fill="#BDE3DB"/>
<path d="M91.1486 87.5582H52.3214L52.3125 87.4267C52.2902 87.0995 51.7949 79.3817 54.2956 76.6279C54.8546 76.0123 55.528 75.6892 56.297 75.6676C57.9271 75.6212 58.9514 76.2318 59.7776 76.7218C61.3349 77.6457 62.3637 78.256 66.1042 73.6329C70.1563 68.6245 74.5284 67.547 77.0418 68.1462C78.6657 68.5334 79.785 69.6277 80.1126 71.1485C80.4227 72.5886 80.3239 73.9418 80.2446 75.029C80.1596 76.1924 80.0925 77.1112 80.5703 77.5277C80.9692 77.8751 81.7653 77.9067 83.0756 77.6271C85.7407 77.0585 89.4595 77.545 91.326 79.9567C92.3303 81.2542 93.1214 83.6127 91.1876 87.4802L91.1486 87.5582ZM52.5864 87.276H90.9739C92.4149 84.3525 92.4599 81.8827 91.1029 80.1294C89.3906 77.9171 85.7982 77.3347 83.1344 77.9031C81.7109 78.2068 80.8626 78.1567 80.3849 77.7404C79.8007 77.2314 79.8724 76.2504 79.9631 75.0085C80.0412 73.9392 80.1383 72.6085 79.8367 71.2079C79.5329 69.7976 78.4904 68.7817 76.9764 68.4207C74.5432 67.8402 70.2933 68.9041 66.3236 73.8104C62.4298 78.623 61.2568 77.9274 59.6337 76.9646C58.7973 76.4685 57.8476 75.9059 56.305 75.9496C55.6156 75.9691 55.0099 76.2611 54.5045 76.8177C52.257 79.2925 52.5314 86.2326 52.5864 87.276Z" fill="#BDE3DB"/>
<path d="M50.6005 93.7667C74.6803 93.7667 94.2009 91.4293 94.2009 88.546C94.2009 85.6626 74.6803 83.3252 50.6005 83.3252C26.5206 83.3252 7 85.6626 7 88.546C7 91.4293 26.5206 93.7667 50.6005 93.7667Z" fill="#292742"/>
<path d="M51.5594 20.25C51.5594 20.25 49.3797 19.4715 47.9785 22.5854C46.5772 25.6993 44.3975 29.1246 44.3975 29.1246L45.643 29.436C45.643 29.436 45.9544 27.2562 46.7329 26.9448L46.4215 29.7474C46.4215 29.7474 55.7632 33.017 59.967 29.436L59.8113 28.3461C59.8113 28.3461 60.4341 28.5018 60.4341 29.436L60.9012 28.9689C60.9012 28.9689 60.4341 28.0347 59.0328 26.7891C58.1131 25.9716 57.797 24.4163 57.6884 23.4438C57.607 22.6319 57.2822 21.8634 56.7564 21.2393C55.8252 20.1601 54.1284 19.013 51.5594 20.25Z" fill="#191919"/>
<path d="M49.2602 32.4583L47.0025 29.6363L45.3093 23.8511L51.8 16.9371C51.8 16.9371 53.211 11.5752 51.9411 11.8574C50.6712 12.1396 50.389 16.0905 50.389 16.0905L42.2051 22.4401C42.2051 22.4401 43.0517 31.3295 45.4504 34.4337L47.2847 40.2189L49.2602 32.4583Z" fill="#FFBDBD"/>
<path d="M55.4683 32.4583L57.7259 29.6363L59.4191 23.8511L52.9284 16.9371C52.9284 16.9371 51.5174 11.5752 52.7873 11.8574C54.0573 12.1396 54.3395 16.0905 54.3395 16.0905L62.5234 22.4401C62.5234 22.4401 61.6768 31.3295 59.278 34.4337L57.4437 40.2189L55.4683 32.4583Z" fill="#FFBDBD"/>
<path d="M52.3644 30.06C54.3906 30.06 56.0331 28.4174 56.0331 26.3913C56.0331 24.3652 54.3906 22.7227 52.3644 22.7227C50.3383 22.7227 48.6958 24.3652 48.6958 26.3913C48.6958 28.4174 50.3383 30.06 52.3644 30.06Z" fill="#FFBDBD"/>
<path d="M50.6712 28.3662C50.6712 28.3662 50.8123 31.3293 49.9657 32.3171C49.1191 33.3048 48.2725 38.3844 52.3644 38.5255C56.4564 38.6666 56.0331 34.2925 56.0331 34.2925L55.1865 31.8938C55.1865 31.8938 53.9166 30.0594 54.3399 28.3662H50.6712Z" fill="#FFBDBD"/>
<path d="M46.8612 61.2432L49.8949 62.1603C49.8949 62.1603 52.3641 60.6788 52.3641 62.0898C52.3641 63.5008 51.5175 65.3351 51.7997 66.605C52.0819 67.875 52.6463 70.9792 51.7997 70.9792C50.9531 70.9792 49.2599 65.4762 49.2599 65.4762L46.4379 63.9241L46.8612 61.2432Z" fill="#FFBDBD"/>
<path d="M50.6708 80.9971L49.542 85.3712C49.542 85.3712 48.5543 86.6411 49.542 87.2055C50.0055 87.4704 50.3447 88.0149 50.5742 88.5182C50.7742 88.9715 51.109 89.3523 51.5329 89.6088C51.9569 89.8653 52.4495 89.9851 52.9439 89.9518C53.4255 89.9119 53.8312 89.7215 53.9299 89.2267C53.9572 89.0714 53.9519 88.9121 53.9142 88.7591C53.8766 88.606 53.8075 88.4624 53.7114 88.3375C52.6705 86.931 52.4346 86.0062 52.4346 86.0062L52.8579 81.0676L50.6708 80.9971Z" fill="#FFBDBD"/>
<path d="M47.9388 27.0427C47.9388 27.0427 49.1843 25.3301 50.2742 25.0187C51.3641 24.7073 51.5198 23.1503 51.5198 23.1503C51.5198 23.1503 54.3223 26.2643 56.0349 26.4199C57.7476 26.5756 56.1906 22.6833 56.1906 22.6833L53.0767 21.9048L50.1185 22.2162L47.7831 23.7731L47.9388 27.0427Z" fill="#191919"/>
<path d="M45.5915 50.5191L45.0271 51.648C45.0271 51.648 31.3402 56.0221 32.469 60.1141C33.5978 64.206 39.9474 63.0772 39.9474 63.0772L47.0025 64.3471L47.708 61.2429L42.7694 59.973L51.2356 56.8687L51.5177 71.2611L50.3889 81.5616L53.211 81.8438C53.211 81.8438 56.3152 72.3899 55.8919 68.4391C55.8919 68.4391 61.1127 52.3535 58.1495 49.9547C55.1864 47.556 45.5915 50.5191 45.5915 50.5191Z" fill="#191919"/>
<path d="M52.5296 34.2947L50.3279 31.6339L48.8366 32.3174L47.2845 37.2559C47.2845 37.2559 46.0146 39.6547 47.5667 42.1945C47.5667 42.1945 47.8489 43.8877 47.4256 44.311C47.0023 44.7343 46.8612 47.4153 46.8612 47.4153L45.0269 50.9428C45.0269 50.9428 55.4684 52.7771 58.5726 50.2373C58.5726 50.2373 56.9437 44.2318 57.9314 42.3975C58.9191 40.5632 59.0602 37.7511 57.9314 36.4812C56.8026 35.2113 55.6095 31.8941 55.6095 31.8941L54.9261 31.457L52.5296 34.2947Z" fill="#58B1FF"/>
<path d="M60.7611 13.2278H59.4078V11.8745H59.2848V13.2278H57.9315V13.3508H59.2848V14.704H59.4078V13.3508H60.7611V13.2278Z" fill="#58B1FF"/>
<path d="M47.8994 10.3987H46.5461V9.04541H46.4231V10.3987H45.0698V10.5217H46.4231V11.8749H46.5461V10.5217H47.8994V10.3987Z" fill="#58B1FF"/>
<path d="M54.0732 4.35328H52.72V3H52.5969V4.35328H51.2437V4.47625H52.5969V5.82953H52.72V4.47625H54.0732V4.35328Z" fill="#58B1FF"/>
</svg>
