<svg width="102" height="101" viewBox="0 0 102 101" fill="none" xmlns="http://www.w3.org/2000/svg">
<rect width="102" height="101" rx="12" fill="#E6F8F5"/>
<path opacity="0.1" d="M58.9386 28.8137C52.6561 28.5943 46.6729 26.5681 40.9628 24.3489C35.2527 22.1297 29.5893 19.6706 23.4573 18.495C19.5088 17.7388 14.998 17.6325 11.8202 19.748C8.76226 21.7826 7.77385 25.2956 7.24307 28.5543C6.84329 31.0066 6.60852 33.5882 7.70325 35.8831C8.46369 37.4771 9.8136 38.8169 10.7476 40.3437C13.9986 45.6549 11.702 52.2054 8.17959 57.3924C6.52771 59.8251 4.61215 62.1464 3.33794 64.7365C2.06374 67.3266 1.47427 70.2944 2.58941 72.9364C3.6952 75.5545 6.32782 77.522 9.18075 78.9051C14.9751 81.7121 21.8029 82.5193 28.4606 82.9752C43.199 83.9832 58.0157 83.5468 72.7933 83.1096C78.2619 82.948 83.7551 82.7838 89.1343 81.9383C92.1225 81.4688 95.2068 80.7237 97.3758 78.9238C100.129 76.6399 100.811 72.7722 98.9665 69.9073C95.872 65.1031 87.3131 63.9106 85.1518 58.7542C83.9609 55.9166 85.1841 52.7549 86.9142 50.1231C90.6263 44.4768 96.8476 39.5237 97.1759 33.0693C97.4005 28.6368 94.4098 24.1983 89.785 22.0965C84.9366 19.8985 78.2168 20.175 74.64 23.8139C70.9577 27.565 64.4863 29.0068 58.9386 28.8137Z" fill="white"/>
<g opacity="0.5">
<path opacity="0.5" d="M44.5947 52.2437L41.7486 52.3023L41.2833 52.9412V55.1485L41.8643 55.5551H44.5947L45.1757 54.9163V52.8246L44.5947 52.2437Z" fill="#58C490"/>
<path opacity="0.2" d="M44.5352 52.5925C44.5352 52.5925 41.9213 52.9991 41.6891 52.5925L41.7478 52.3025L44.5352 52.2412V52.5925Z" fill="white"/>
<path opacity="0.5" d="M44.8272 58.6333L45.2916 59.0985V61.3101L44.8272 61.7678C44.8272 61.7678 43.143 62.3487 42.0389 61.8834L41.5157 61.3612V59.1496L41.981 58.6265L44.8272 58.6333Z" fill="#58C490"/>
<path opacity="0.2" d="M44.7107 59.1569C44.7107 59.1569 42.6777 59.6213 41.9811 59.1569V58.6338H44.8272L44.7107 59.1569Z" fill="white"/>
<path opacity="0.5" d="M43.7227 55.5399V58.6821C43.7161 58.8065 43.6605 58.9232 43.568 59.0068C43.4755 59.0903 43.3538 59.1338 43.2293 59.1278C43.1049 59.1338 42.9831 59.0903 42.8906 59.0068C42.7982 58.9232 42.7426 58.8065 42.736 58.6821V55.5399C42.736 55.2728 42.9911 55.0661 43.2872 55.0968C43.4017 55.1038 43.5095 55.153 43.5899 55.2348C43.6703 55.3166 43.7176 55.4253 43.7227 55.5399Z" fill="#58C490"/>
<path opacity="0.5" d="M49.1533 52.3335L46.3072 52.3913L45.8419 53.0301V55.2375L46.4229 55.6441H49.1533L49.7343 55.0052V52.9136L49.1533 52.3335Z" fill="#58C490"/>
<path opacity="0.2" d="M49.0948 52.6819C49.0948 52.6819 46.4809 53.0885 46.2487 52.6819L46.3065 52.3918L49.0948 52.334V52.6819Z" fill="white"/>
<path opacity="0.5" d="M49.3838 58.7231L49.8482 59.1884V61.4L49.3838 61.8602C49.3838 61.8602 47.6987 62.4411 46.5955 61.9759L46.0724 61.4536V59.2463L46.5377 58.7231H49.3838Z" fill="#58C490"/>
<path opacity="0.2" d="M49.2688 59.2463C49.2688 59.2463 47.2358 59.7107 46.5392 59.2463V58.7231H49.3836L49.2688 59.2463Z" fill="white"/>
<path opacity="0.5" d="M48.2782 55.6288V58.7709C48.2714 58.8953 48.2157 59.0119 48.1233 59.0954C48.0309 59.1789 47.9092 59.2224 47.7849 59.2167C47.6603 59.2227 47.5384 59.1792 47.4459 59.0957C47.3533 59.0122 47.2975 58.8954 47.2906 58.7709V55.6288C47.2906 55.3617 47.5458 55.155 47.8427 55.1856C47.9572 55.1927 48.0651 55.2418 48.1455 55.3237C48.2259 55.4055 48.2732 55.5142 48.2782 55.6288Z" fill="#58C490"/>
<path opacity="0.5" d="M54.9563 54.0142L52.6129 54.0626L52.2301 54.5883V56.4052L52.7081 56.7404H54.9563L55.4343 56.2138V54.4922L54.9563 54.0142Z" fill="#58C490"/>
<path opacity="0.2" d="M54.9076 54.3017C54.9076 54.3017 52.7564 54.636 52.5651 54.3017L52.6127 54.0626L54.9093 54.0142L54.9076 54.3017Z" fill="white"/>
<path opacity="0.5" d="M55.1466 59.2739L55.5294 59.6567V61.4736L55.1466 61.8564C55.1466 61.8564 53.7601 62.3344 52.85 61.9516L52.4196 61.5212V59.7043L52.8023 59.2739H55.1466Z" fill="#58C490"/>
<path opacity="0.2" d="M55.0511 59.7043C55.0511 59.7043 53.3771 60.0871 52.8038 59.7043V59.2739H55.1464L55.0511 59.7043Z" fill="white"/>
<path opacity="0.5" d="M54.2382 56.7271V59.3138C54.2327 59.4163 54.1869 59.5124 54.1107 59.5811C54.0345 59.6498 53.9341 59.6855 53.8316 59.6804C53.7292 59.6855 53.629 59.6498 53.5529 59.581C53.4769 59.5123 53.4312 59.4162 53.4259 59.3138V56.7271C53.4292 56.6724 53.4438 56.619 53.4689 56.5703C53.4941 56.5215 53.5291 56.4786 53.5718 56.4443C53.6145 56.4099 53.6639 56.3848 53.7169 56.3707C53.7698 56.3566 53.8251 56.3537 53.8793 56.3622C53.9736 56.368 54.0624 56.4085 54.1287 56.4758C54.195 56.5432 54.234 56.6327 54.2382 56.7271Z" fill="#58C490"/>
<path opacity="0.5" d="M58.7079 54.0884L56.3645 54.136L55.9825 54.6617V56.4794L56.4606 56.8137H58.7079L59.1859 56.288V54.5664L58.7079 54.0884Z" fill="#58C490"/>
<path opacity="0.2" d="M58.6603 54.3745C58.6603 54.3745 56.5083 54.7097 56.3169 54.3745L56.3645 54.1355L58.6612 54.0879L58.6603 54.3745Z" fill="white"/>
<path opacity="0.5" d="M58.8995 59.3481L59.2815 59.7301V61.547L58.8995 61.9297C58.8995 61.9297 57.5122 62.4078 56.6029 62.0259L56.1733 61.598V59.7786L56.5561 59.3481H58.8995Z" fill="#58C490"/>
<path opacity="0.2" d="M58.8035 59.7786C58.8035 59.7786 57.1303 60.1605 56.5562 59.7786V59.3481H58.8996L58.8035 59.7786Z" fill="white"/>
<path opacity="0.5" d="M57.991 56.8002V59.386C57.9855 59.4885 57.9397 59.5846 57.8635 59.6533C57.7873 59.722 57.6869 59.7577 57.5844 59.7526C57.482 59.7577 57.3816 59.722 57.3054 59.6533C57.2292 59.5846 57.1834 59.4885 57.1779 59.386V56.8002C57.1779 56.5807 57.3905 56.4106 57.6321 56.4361C57.7263 56.4417 57.8152 56.482 57.8815 56.5492C57.9477 56.6165 57.9868 56.7059 57.991 56.8002Z" fill="#58C490"/>
</g>
<path opacity="0.12" d="M73.2618 43.7587C72.9275 43.9842 72.811 44.4197 72.7684 44.8211C72.5873 46.5283 73.2916 48.2185 73.2448 49.9341C73.2074 51.2994 72.6987 52.6016 72.1968 53.8716C71.3411 56.0381 70.8954 58.3909 70.7227 60.7139C70.5501 63.0369 70.2974 65.456 69.0504 67.4209C68.7672 67.8658 68.4372 68.2792 68.1599 68.7266C67.869 69.1944 67.6384 69.6963 67.3816 70.1828C66.6247 71.6198 65.649 72.9303 64.4895 74.0675C64.1493 74.3993 63.7886 74.7208 63.3548 74.9122C63.0752 75.0335 62.7742 75.0976 62.4695 75.1008C62.1648 75.104 61.8625 75.0463 61.5804 74.9309C60.9986 74.6902 60.5087 74.1475 60.4848 73.518C60.4636 72.9549 60.7996 72.4471 61.1364 71.9963C62.2781 70.469 63.5909 69.0774 65.0492 67.8487C65.3137 67.6259 65.5927 67.3954 65.7297 67.0772C65.8836 66.7106 65.8207 66.2947 65.8403 65.8975C65.8717 65.2638 66.1184 64.6624 66.2656 64.0448C66.861 61.5364 65.8028 58.7975 66.6636 56.3673C66.855 55.8271 67.1391 55.3108 67.2063 54.7418C67.254 54.3437 67.1553 53.8988 66.9061 53.6003C66.6727 53.332 66.5421 52.9895 66.5378 52.634C66.5378 52.5608 66.5378 52.4885 66.5463 52.4171C66.65 51.3036 66.753 50.1851 66.6968 49.0682C66.6407 47.9514 66.4187 46.8286 65.9032 45.8359C65.6361 45.3213 65.2908 44.8399 65.1258 44.2844C64.8604 43.3853 65.1053 42.4131 65.5009 41.5625C65.8096 40.8973 66.2213 40.2636 66.7963 39.8077C67.8647 38.9613 69.4638 38.8635 70.6334 39.5636C71.4959 40.079 72.0863 40.9458 72.5652 41.8296C72.9088 42.4752 73.2669 43.0221 73.2618 43.7587Z" fill="black"/>
<path d="M70.427 36.9793C70.2637 37.4199 70.1012 37.8606 69.9396 38.3012C69.8324 38.5904 69.7261 38.8821 69.6155 39.1713C69.1051 40.5042 68.5344 41.8159 67.6412 42.9191C67.7748 42.7541 66.5184 41.9239 65.5921 41.3574C65.1405 41.0793 64.7662 40.8649 64.6743 40.8224C64.456 40.7237 64.2325 40.6368 64.0049 40.5621C63.6519 40.443 63.2946 40.3401 62.9416 40.2116C62.1251 39.9165 62.6958 39.4733 63.0454 38.997C64.1895 37.437 64.4064 35.3053 65.7053 33.8721C66.1816 34.7771 66.9351 35.5059 67.8556 35.9518C67.8734 35.9612 67.8922 35.9697 67.9109 35.9773C68.6824 36.338 69.5347 36.4936 70.3326 36.7956C70.3759 36.8118 70.4261 36.8347 70.4406 36.8807C70.446 36.9142 70.4412 36.9485 70.427 36.9793Z" fill="#FFBDBD"/>
<path d="M68.2058 68.4876C67.8363 69.0169 67.6063 69.631 67.5372 70.2729C67.4681 70.9147 67.562 71.5637 67.8103 72.1596C67.8731 72.3261 67.9708 72.4773 68.097 72.6028C68.2575 72.7283 68.4446 72.8155 68.6439 72.858C70.3332 73.3386 72.1365 73.2441 73.8666 72.943C74.4527 72.8528 75.0287 72.7061 75.5865 72.505C76.4431 72.1775 77.2078 71.6544 77.9631 71.1321L79.5606 70.0314C80.0777 69.675 80.5992 69.3169 81.1767 69.0668C82.0614 68.6849 83.0413 68.5752 84.005 68.576C84.8328 68.577 85.6587 68.6559 86.4718 68.8116C87.0136 68.9163 87.6626 69.0243 88.0437 68.6287C88.2614 68.405 88.3261 68.0776 88.3686 67.7688C88.5369 66.5674 88.5337 65.3482 88.3592 64.1478C88.355 64.0468 88.3183 63.9498 88.2546 63.8713C88.1946 63.8204 88.1215 63.7871 88.0437 63.7752C87.2909 63.6051 86.5355 63.9581 85.804 64.2005C84.284 64.7058 82.6517 64.7662 81.1053 65.1821C79.4823 65.6185 77.958 66.4444 76.2806 66.612C75.4811 66.6919 74.6781 66.6222 73.8768 66.64C73.1334 66.6562 72.4402 66.9131 71.712 66.9437C70.3085 67.0058 69.0879 67.2508 68.2058 68.4876Z" fill="#FFBDBD"/>
<path opacity="0.12" d="M68.2058 68.4876C67.8363 69.0169 67.6063 69.631 67.5372 70.2729C67.4681 70.9147 67.562 71.5637 67.8103 72.1596C67.8731 72.3261 67.9708 72.4773 68.097 72.6028C68.2575 72.7283 68.4446 72.8155 68.6439 72.858C70.3332 73.3386 72.1365 73.2441 73.8666 72.943C74.4527 72.8528 75.0287 72.7061 75.5865 72.505C76.4431 72.1775 77.2078 71.6544 77.9631 71.1321L79.5606 70.0314C80.0777 69.675 80.5992 69.3169 81.1767 69.0668C82.0614 68.6849 83.0413 68.5752 84.005 68.576C84.8328 68.577 85.6587 68.6559 86.4718 68.8116C87.0136 68.9163 87.6626 69.0243 88.0437 68.6287C88.2614 68.405 88.3261 68.0776 88.3686 67.7688C88.5369 66.5674 88.5337 65.3482 88.3592 64.1478C88.355 64.0468 88.3183 63.9498 88.2546 63.8713C88.1946 63.8204 88.1215 63.7871 88.0437 63.7752C87.2909 63.6051 86.5355 63.9581 85.804 64.2005C84.284 64.7058 82.6517 64.7662 81.1053 65.1821C79.4823 65.6185 77.958 66.4444 76.2806 66.612C75.4811 66.6919 74.6781 66.6222 73.8768 66.64C73.1334 66.6562 72.4402 66.9131 71.712 66.9437C70.3085 67.0058 69.0879 67.2508 68.2058 68.4876Z" fill="black"/>
<path d="M69.5789 66.6898C69.5389 66.8778 69.5032 67.0768 69.5593 67.2606C69.6289 67.4412 69.7466 67.5995 69.8995 67.7182C71.3456 69.0128 73.4117 69.2807 75.3434 69.4908C75.8665 69.5478 76.399 69.6048 76.917 69.5104C77.3891 69.4254 77.8297 69.217 78.2644 69.0111C79.2001 68.5679 80.1408 68.1197 80.943 67.4681C81.7298 66.8302 82.3609 66.0136 83.1758 65.4122C84.1021 64.7317 85.2411 64.3421 86.0679 63.5409C86.6656 62.9642 87.063 62.2112 87.2017 61.3922C87.2953 60.8334 87.2647 60.2626 87.2017 59.6995C87.1345 59.0522 87.0265 58.3938 86.7186 57.8205C86.3622 57.1571 85.7633 56.6561 85.1313 56.2444C83.7942 55.375 82.2197 54.8358 80.6231 54.8494C78.4116 54.8689 76.3701 56.1559 74.7829 57.6011C73.104 59.1317 71.7452 60.98 70.785 63.039C70.243 64.2051 69.8382 65.4303 69.5789 66.6898Z" fill="#292742"/>
<path opacity="0.12" d="M69.5789 66.6898C69.5389 66.8778 69.5032 67.0768 69.5593 67.2606C69.6289 67.4412 69.7466 67.5995 69.8995 67.7182C71.3456 69.0128 73.4117 69.2807 75.3434 69.4908C75.8665 69.5478 76.399 69.6048 76.917 69.5104C77.3891 69.4254 77.8297 69.217 78.2644 69.0111C79.2001 68.5679 80.1408 68.1197 80.943 67.4681C81.7298 66.8302 82.3609 66.0136 83.1758 65.4122C84.1021 64.7317 85.2411 64.3421 86.0679 63.5409C86.6656 62.9642 87.063 62.2112 87.2017 61.3922C87.2953 60.8334 87.2647 60.2626 87.2017 59.6995C87.1345 59.0522 87.0265 58.3938 86.7186 57.8205C86.3622 57.1571 85.7633 56.6561 85.1313 56.2444C83.7942 55.375 82.2197 54.8358 80.6231 54.8494C78.4116 54.8689 76.3701 56.1559 74.7829 57.6011C73.104 59.1317 71.7452 60.98 70.785 63.039C70.243 64.2051 69.8382 65.4303 69.5789 66.6898Z" fill="black"/>
<path d="M73.2618 43.7587C72.9275 43.9842 72.811 44.4197 72.7684 44.8211C72.5873 46.5283 73.2916 48.2185 73.2448 49.9341C73.2074 51.2994 72.6987 52.6016 72.1968 53.8716C71.3411 56.0381 70.8954 58.3909 70.7227 60.7139C70.5501 63.0369 70.2974 65.456 69.0504 67.4209C68.7672 67.8658 68.4372 68.2792 68.1599 68.7266C67.869 69.1944 67.6384 69.6963 67.3816 70.1828C66.6247 71.6198 65.649 72.9303 64.4895 74.0675C64.1493 74.3993 63.7886 74.7208 63.3548 74.9122C63.0752 75.0335 62.7742 75.0976 62.4695 75.1008C62.1648 75.104 61.8625 75.0463 61.5804 74.9309C60.9986 74.6902 60.5087 74.1475 60.4848 73.518C60.4636 72.9549 60.7996 72.4471 61.1364 71.9963C62.2781 70.469 63.5909 69.0774 65.0492 67.8487C65.3137 67.6259 65.5927 67.3954 65.7297 67.0772C65.8836 66.7106 65.8207 66.2947 65.8403 65.8975C65.8717 65.2638 66.1184 64.6624 66.2656 64.0448C66.861 61.5364 65.8028 58.7975 66.6636 56.3673C66.855 55.8271 67.1391 55.3108 67.2063 54.7418C67.254 54.3437 67.1553 53.8988 66.9061 53.6003C66.6727 53.332 66.5421 52.9895 66.5378 52.634C66.5378 52.5608 66.5378 52.4885 66.5463 52.4171C66.65 51.3036 66.753 50.1851 66.6968 49.0682C66.6407 47.9514 66.4187 46.8286 65.9032 45.8359C65.6361 45.3213 65.2908 44.8399 65.1258 44.2844C64.8604 43.3853 65.1053 42.4131 65.5009 41.5625C65.8096 40.8973 66.2213 40.2636 66.7963 39.8077C67.8647 38.9613 69.4638 38.8635 70.6334 39.5636C71.4959 40.079 72.0863 40.9458 72.5652 41.8296C72.9088 42.4752 73.2669 43.0221 73.2618 43.7587Z" fill="#FFBDBD"/>
<path d="M68.5623 49.4726C70.3404 49.4726 71.7819 47.2109 71.7819 44.4209C71.7819 41.6309 70.3404 39.3691 68.5623 39.3691C66.7842 39.3691 65.3428 41.6309 65.3428 44.4209C65.3428 47.2109 66.7842 49.4726 68.5623 49.4726Z" fill="#FFBDBD"/>
<path d="M60.3513 70.8199C60.4464 70.9539 60.511 71.1072 60.5403 71.2688C60.5697 71.4305 60.5633 71.5967 60.5215 71.7556C60.8249 71.9735 61.1938 72.0809 61.5668 72.0601C61.9371 72.0399 62.301 71.9562 62.6429 71.8126C62.9402 71.7042 63.2216 71.5565 63.4799 71.3736C63.9239 71.0453 64.2454 70.5758 64.5006 70.0892C64.6443 69.8204 64.7668 69.4725 64.5856 69.231C64.5144 69.149 64.4277 69.0819 64.3305 69.0336C63.6751 68.6597 62.9927 68.3353 62.289 68.0631C62.0958 67.974 61.8859 67.9271 61.6732 67.9253C61.412 67.9398 61.1747 68.0827 60.9672 68.2426C60.5007 68.6053 60.1246 69.0711 59.8682 69.6035C59.7882 69.7737 59.5467 70.1777 59.6666 70.3529C59.721 70.4337 59.9218 70.4618 60.0068 70.5128C60.1421 70.5897 60.2595 70.6943 60.3513 70.8199Z" fill="#FFB6B6"/>
<path opacity="0.12" d="M60.3513 70.8199C60.4464 70.9539 60.511 71.1072 60.5403 71.2688C60.5697 71.4305 60.5633 71.5967 60.5215 71.7556C60.8249 71.9735 61.1938 72.0809 61.5668 72.0601C61.9371 72.0399 62.301 71.9562 62.6429 71.8126C62.9402 71.7042 63.2216 71.5565 63.4799 71.3736C63.9239 71.0453 64.2454 70.5758 64.5006 70.0892C64.6443 69.8204 64.7668 69.4725 64.5856 69.231C64.5144 69.149 64.4277 69.0819 64.3305 69.0336C63.6751 68.6597 62.9927 68.3353 62.289 68.0631C62.0958 67.974 61.8859 67.9271 61.6732 67.9253C61.412 67.9398 61.1747 68.0827 60.9672 68.2426C60.5007 68.6053 60.1246 69.0711 59.8682 69.6035C59.7882 69.7737 59.5467 70.1777 59.6666 70.3529C59.721 70.4337 59.9218 70.4618 60.0068 70.5128C60.1421 70.5897 60.2595 70.6943 60.3513 70.8199Z" fill="black"/>
<path d="M63.8741 68.8492C65.3133 69.1163 66.6368 69.812 68.0514 70.1872C68.6238 70.3386 69.2133 70.4423 69.7602 70.6652C70.3072 70.8881 70.8227 71.2691 71.0583 71.8118C71.1579 72.0723 71.2239 72.3444 71.2548 72.6216C71.316 73.0137 71.3662 73.4518 71.1331 73.7733C70.8873 74.1136 70.4229 74.1884 70.0069 74.2386C68.5116 74.4164 67.0162 74.595 65.5157 74.7209C65.2119 74.7393 64.9094 74.7754 64.6098 74.8289C64.3632 74.8783 64.1224 74.9531 63.8775 75.011C63.5602 75.085 63.2378 75.1317 62.9163 75.1811C62.0937 75.2993 61.2618 75.4175 60.4359 75.3274C60.0591 75.2857 59.6372 75.1641 59.4713 74.8238C59.4025 74.6475 59.3734 74.4581 59.3863 74.2692C59.382 73.764 59.3778 73.2596 59.3863 72.7551C59.3939 72.2371 59.4194 71.6995 59.6542 71.2377C59.7124 71.0963 59.8222 70.9822 59.9613 70.9187C60.0469 70.8942 60.1363 70.8861 60.225 70.8949C60.6673 70.9102 61.1249 70.9289 61.5204 71.1262C61.8343 71.2819 62.0895 71.5413 62.4093 71.6825C63.0149 71.9513 63.7456 71.7582 64.3589 72.0109C64.5018 71.5703 64.4695 71.1245 64.3631 70.6729C64.2568 70.2212 64.108 69.778 64.0629 69.317C64.0611 69.2157 64.0415 69.1155 64.005 69.021C63.9591 68.9266 63.9744 68.8347 63.8741 68.8492Z" fill="#292742"/>
<path opacity="0.12" d="M63.8741 68.8492C65.3133 69.1163 66.6368 69.812 68.0514 70.1872C68.6238 70.3386 69.2133 70.4423 69.7602 70.6652C70.3072 70.8881 70.8227 71.2691 71.0583 71.8118C71.1579 72.0723 71.2239 72.3444 71.2548 72.6216C71.316 73.0137 71.3662 73.4518 71.1331 73.7733C70.8873 74.1136 70.4229 74.1884 70.0069 74.2386C68.5116 74.4164 67.0162 74.595 65.5157 74.7209C65.2119 74.7393 64.9094 74.7754 64.6098 74.8289C64.3632 74.8783 64.1224 74.9531 63.8775 75.011C63.5602 75.085 63.2378 75.1317 62.9163 75.1811C62.0937 75.2993 61.2618 75.4175 60.4359 75.3274C60.0591 75.2857 59.6372 75.1641 59.4713 74.8238C59.4025 74.6475 59.3734 74.4581 59.3863 74.2692C59.382 73.764 59.3778 73.2596 59.3863 72.7551C59.3939 72.2371 59.4194 71.6995 59.6542 71.2377C59.7124 71.0963 59.8222 70.9822 59.9613 70.9187C60.0469 70.8942 60.1363 70.8861 60.225 70.8949C60.6673 70.9102 61.1249 70.9289 61.5204 71.1262C61.8343 71.2819 62.0895 71.5413 62.4093 71.6825C63.0149 71.9513 63.7456 71.7582 64.3589 72.0109C64.5018 71.5703 64.4695 71.1245 64.3631 70.6729C64.2568 70.2212 64.108 69.778 64.0629 69.317C64.0611 69.2157 64.0415 69.1155 64.005 69.021C63.9591 68.9266 63.9744 68.8347 63.8741 68.8492Z" fill="black"/>
<path d="M15.7966 54.3454C15.5065 54.2536 15.2267 54.5105 15.0642 54.7707C14.3888 55.8323 14.4441 57.2494 14.9842 58.3858C15.1128 58.674 15.29 58.9379 15.5082 59.1658C15.8008 59.4542 16.1776 59.6388 16.5289 59.8463C17.5037 60.4222 18.3391 61.2064 18.9753 62.1429C19.3912 62.7562 19.7187 63.4308 20.1908 64.0015C21.3527 65.4067 23.2623 66.043 24.3894 67.472C24.659 67.8122 24.887 68.2069 25.2468 68.4544C25.4607 68.6015 25.71 68.6888 25.9689 68.7073C26.2278 68.7258 26.4869 68.6748 26.7196 68.5597C26.9522 68.4446 27.1499 68.2694 27.2922 68.0523C27.4344 67.8352 27.5162 67.5841 27.529 67.3248C27.967 66.6809 28.3251 65.9698 28.6662 65.2689C29.1709 64.1991 29.5973 63.0941 29.9422 61.9626C30.0689 61.5628 30.1914 61.1605 30.353 60.7718C30.7519 59.8123 31.3873 58.9438 31.6119 57.9299C31.7021 57.5233 31.7242 57.1005 31.8552 56.7059C31.9725 56.3516 32.1732 56.0307 32.4404 55.7702C33.325 54.9102 33.8013 53.6573 34.5048 52.6451C34.7906 52.2359 35.0875 51.8276 35.2763 51.3649C35.4651 50.9022 35.5374 50.3723 35.3614 49.9044C35.1853 49.4366 34.7251 49.0589 34.2267 49.0853C34.0036 49.1084 33.7872 49.1749 33.5896 49.2809C32.9026 49.6069 32.2725 50.0411 31.7233 50.567C31.4832 50.7981 31.256 51.0424 31.0428 51.2986C30.0034 52.5404 29.1902 54.0477 29.1188 55.6656C29.0949 56.2202 29.1392 56.8352 28.787 57.2647C27.8156 58.4513 27.5035 60.0828 26.675 61.374C26.2914 61.9694 25.8516 62.5861 25.1958 62.8574C25.0989 62.904 24.9917 62.9251 24.8844 62.9187C24.6225 62.8889 24.4719 62.6133 24.3613 62.3735C23.9292 61.4379 23.4291 60.5353 22.8651 59.6728C22.6423 59.3325 22.3964 58.9838 22.04 58.7839C21.7967 58.6486 21.5143 58.5883 21.2855 58.43C20.9666 58.2097 20.7998 57.8346 20.634 57.4833C20.0964 56.3487 19.4158 55.2876 18.6087 54.3259C18.2395 53.8861 17.753 53.4319 17.1831 53.4974C16.6404 53.5612 16.3086 54.1319 15.7966 54.3454Z" fill="#FFB6B6"/>
<path opacity="0.12" d="M15.7966 54.3454C15.5065 54.2536 15.2267 54.5105 15.0642 54.7707C14.3888 55.8323 14.4441 57.2494 14.9842 58.3858C15.1128 58.674 15.29 58.9379 15.5082 59.1658C15.8008 59.4542 16.1776 59.6388 16.5289 59.8463C17.5037 60.4222 18.3391 61.2064 18.9753 62.1429C19.3912 62.7562 19.7187 63.4308 20.1908 64.0015C21.3527 65.4067 23.2623 66.043 24.3894 67.472C24.659 67.8122 24.887 68.2069 25.2468 68.4544C25.4607 68.6015 25.71 68.6888 25.9689 68.7073C26.2278 68.7258 26.4869 68.6748 26.7196 68.5597C26.9522 68.4446 27.1499 68.2694 27.2922 68.0523C27.4344 67.8352 27.5162 67.5841 27.529 67.3248C27.967 66.6809 28.3251 65.9698 28.6662 65.2689C29.1709 64.1991 29.5973 63.0941 29.9422 61.9626C30.0689 61.5628 30.1914 61.1605 30.353 60.7718C30.7519 59.8123 31.3873 58.9438 31.6119 57.9299C31.7021 57.5233 31.7242 57.1005 31.8552 56.7059C31.9725 56.3516 32.1732 56.0307 32.4404 55.7702C33.325 54.9102 33.8013 53.6573 34.5048 52.6451C34.7906 52.2359 35.0875 51.8276 35.2763 51.3649C35.4651 50.9022 35.5374 50.3723 35.3614 49.9044C35.1853 49.4366 34.7251 49.0589 34.2267 49.0853C34.0036 49.1084 33.7872 49.1749 33.5896 49.2809C32.9026 49.6069 32.2725 50.0411 31.7233 50.567C31.4832 50.7981 31.256 51.0424 31.0428 51.2986C30.0034 52.5404 29.1902 54.0477 29.1188 55.6656C29.0949 56.2202 29.1392 56.8352 28.787 57.2647C27.8156 58.4513 27.5035 60.0828 26.675 61.374C26.2914 61.9694 25.8516 62.5861 25.1958 62.8574C25.0989 62.904 24.9917 62.9251 24.8844 62.9187C24.6225 62.8889 24.4719 62.6133 24.3613 62.3735C23.9292 61.4379 23.4291 60.5353 22.8651 59.6728C22.6423 59.3325 22.3964 58.9838 22.04 58.7839C21.7967 58.6486 21.5143 58.5883 21.2855 58.43C20.9666 58.2097 20.7998 57.8346 20.634 57.4833C20.0964 56.3487 19.4158 55.2876 18.6087 54.3259C18.2395 53.8861 17.753 53.4319 17.1831 53.4974C16.6404 53.5612 16.3086 54.1319 15.7966 54.3454Z" fill="black"/>
<path d="M15.7373 50.2811C16.9756 50.2811 17.9795 49.3751 17.9795 48.2575C17.9795 47.1399 16.9756 46.2339 15.7373 46.2339C14.499 46.2339 13.4951 47.1399 13.4951 48.2575C13.4951 49.3751 14.499 50.2811 15.7373 50.2811Z" fill="#FFB6B6"/>
<path d="M17.8399 48.6491C18.2858 48.6491 18.6472 48.2877 18.6472 47.8419C18.6472 47.3961 18.2858 47.0347 17.8399 47.0347C17.3941 47.0347 17.0327 47.3961 17.0327 47.8419C17.0327 48.2877 17.3941 48.6491 17.8399 48.6491Z" fill="#FFB6B6"/>
<path d="M16.0314 48.2583C17.7372 48.2583 19.12 47.8885 19.12 47.4324C19.12 46.9762 17.7372 46.6064 16.0314 46.6064C14.3257 46.6064 12.9429 46.9762 12.9429 47.4324C12.9429 47.8885 14.3257 48.2583 16.0314 48.2583Z" fill="#FFB6B6"/>
<path d="M13.2771 47.2557C13.3522 47.4939 13.4113 47.7369 13.454 47.983C13.1947 47.7197 12.97 47.4245 12.7854 47.1043C12.7357 47.0491 12.6957 46.9858 12.6672 46.9172C12.3916 46.2758 12.2036 45.6268 12.2036 44.9242C12.2035 44.1096 12.4313 43.3112 12.861 42.6191C13.2908 41.9271 13.9055 41.369 14.6358 41.0078C15.366 40.6467 16.1827 40.497 16.9935 40.5755C17.8044 40.6541 18.5771 40.9578 19.2245 41.4523C19.8718 41.9469 20.368 42.6126 20.657 43.3742C20.9459 44.1359 21.0162 44.9632 20.8598 45.7627C20.7033 46.5622 20.3265 47.302 19.7718 47.8986C19.2171 48.4952 18.5066 48.9249 17.7206 49.139C17.8542 48.7086 18.0371 48.2884 18.0609 47.8418C18.0752 47.6929 18.0537 47.5426 17.9979 47.4037C17.9233 47.256 17.8131 47.1292 17.6773 47.0346C17.1907 46.6629 16.5647 46.5004 15.9522 46.5106C15.3391 46.5361 14.7367 46.6805 14.1787 46.9359C14.0026 47.0116 13.7917 47.1137 13.5833 47.1834C13.4839 47.2179 13.3813 47.2421 13.2771 47.2557Z" fill="#FFB6B6"/>
<path d="M24.3564 56.8143C24.0766 57.2625 23.4786 57.3995 22.9529 57.3595C21.973 57.2872 21.0816 56.7641 20.3246 56.1346C19.5675 55.5052 18.9057 54.7737 18.1317 54.168C16.6916 53.0393 15.0695 52.5859 13.2373 52.5595C13.5954 52.2627 13.4636 51.5584 13.4925 51.0956C13.5554 50.16 13.615 49.1996 13.4925 48.2776C13.4797 48.1781 13.4653 48.0802 13.4483 47.9824C13.4772 48.013 13.5078 48.0428 13.5393 48.0734C14.0841 48.5963 14.7551 48.9692 15.4868 49.1558C16.2186 49.3425 16.9862 49.3365 17.7149 49.1384C17.668 49.2866 17.6314 49.4377 17.6052 49.5909C17.4997 50.2484 17.6766 50.9153 17.851 51.5592C17.9548 51.9445 18.0781 52.3579 18.3954 52.5987C18.6012 52.7552 18.8607 52.8164 19.1048 52.8989C19.5914 53.0648 20.0406 53.3249 20.4266 53.6645C20.6954 53.9001 20.937 54.1748 21.2253 54.3798C21.4996 54.5533 21.7885 54.7025 22.0887 54.8255C22.8256 55.1656 23.5218 55.5876 24.1642 56.0836C24.2854 56.1592 24.3798 56.2711 24.4338 56.4034C24.4497 56.4736 24.451 56.5462 24.4377 56.6169C24.4244 56.6875 24.3967 56.7547 24.3564 56.8143Z" fill="#FFB6B6"/>
<path d="M29.3809 65.0564C29.3222 65.4443 28.9667 65.7471 28.7157 66.0483C28.0336 66.8716 27.342 67.6976 26.579 68.4512C25.7624 69.2567 24.8659 69.9746 23.9702 70.6926L22.8083 71.6223C22.6649 71.7533 22.4969 71.8545 22.3141 71.92C22.0999 71.9734 21.8735 71.9465 21.6778 71.8443C21.5999 71.807 21.5261 71.7616 21.4575 71.709C21.2168 71.5219 21.0399 71.2667 20.8672 71.0158C20.0812 69.8686 19.2944 68.7211 18.5068 67.5734C18.2261 67.1634 17.9505 66.7423 17.6766 66.3213C17.64 66.2669 17.6051 66.2116 17.5686 66.1571C17.3185 65.7744 17.0692 65.3916 16.8132 65.0216L15.4131 64.3657L15.2294 64.2807L15.0125 64.1795C14.7241 64.0442 14.4315 63.9064 14.1917 63.6972C13.962 63.4813 13.7707 63.2279 13.626 62.9478C13.3458 62.4298 13.1009 61.8936 12.8928 61.3427C12.2974 59.8397 11.7734 58.2729 11.7513 56.655C11.7317 55.2319 12.1519 53.7519 13.0978 52.7073C13.2271 52.5636 13.366 52.4289 13.5137 52.3042C13.6957 52.1519 13.8837 52.0626 14.1176 52.0958C14.3516 52.1289 14.5736 52.163 14.7981 52.2012C15.4174 52.3078 16.0318 52.4383 16.6414 52.5925C17.1909 52.7329 17.7599 52.8928 18.3154 52.7813C18.4047 52.7635 18.4932 52.738 18.5816 52.715C18.6539 52.6963 18.7254 52.6784 18.7994 52.6665C18.8405 52.6594 18.8819 52.6549 18.9236 52.6529C19.2187 52.6376 19.502 52.7558 19.7742 52.8724C20.2939 53.0952 20.8289 53.33 21.2202 53.74C21.4533 53.9867 21.6242 54.2895 21.8726 54.5217C22.2044 54.8322 22.6467 54.9912 23.0448 55.2132C23.1217 55.2559 23.1958 55.3033 23.2668 55.3553C23.4238 55.473 23.5665 55.6086 23.6921 55.7593C24.2075 56.3675 24.5138 57.1883 25.0828 57.7931C25.5382 58.2763 25.934 58.8123 26.2617 59.3897C26.3153 59.4858 26.3672 59.5828 26.4183 59.6815C26.5033 59.8456 26.5824 60.0124 26.6556 60.1808C26.6743 60.2242 26.693 60.2658 26.71 60.3109C26.817 60.5658 26.9105 60.8261 26.9899 61.0909C27.183 61.7331 27.3114 62.4264 27.7401 62.9418C28.0395 63.2999 28.4546 63.5373 28.8042 63.846C29.0293 64.0367 29.2065 64.2777 29.3214 64.5495C29.3845 64.7105 29.405 64.8851 29.3809 65.0564Z" fill="#FFB6B6"/>
<path opacity="0.12" d="M27.0129 59.9476C26.9153 60.0707 26.8152 60.192 26.7126 60.3117C26.6956 60.3338 26.6769 60.3551 26.6582 60.3763C25.7628 61.4237 24.7378 62.3529 23.6079 63.1416C22.9087 63.6299 22.1712 64.0628 21.4354 64.4949L20.0745 65.292C19.5054 65.6263 18.9287 65.9631 18.2975 66.1553C18.0951 66.2157 17.8833 66.2642 17.6766 66.3212C17.64 66.2668 17.6052 66.2115 17.5686 66.157C17.3185 65.7743 17.0693 65.3915 16.8132 65.0215L15.4131 64.3657C16.1864 63.8769 16.8723 63.2622 17.4427 62.5471C18.2933 61.4983 18.9474 60.3023 19.5922 59.114C19.7065 58.9222 19.7954 58.7163 19.8567 58.5016C19.9418 58.1452 19.8703 57.7709 19.7657 57.4205C19.3827 56.1639 18.5774 55.0783 17.4861 54.3472C16.7205 53.8369 15.8495 53.5264 14.9836 53.227C14.3788 53.0177 13.7162 52.8153 13.1012 52.9012C13.2303 52.7575 13.3693 52.6231 13.5171 52.4989C13.6992 52.3457 13.8872 52.2564 14.1211 52.2896C14.355 52.3228 14.577 52.3568 14.8016 52.3959C15.2566 52.5354 15.7041 52.7022 16.1489 52.874C16.4416 52.9813 16.7259 53.11 16.9995 53.2593C17.2719 53.4256 17.5335 53.6088 17.7829 53.8079C18.5205 54.3702 19.2971 54.8793 20.1068 55.3314C21.0425 55.8477 22.0249 56.267 23.0065 56.6923C23.1106 56.7458 23.2255 56.7749 23.3425 56.7774C23.4011 56.7773 23.458 56.7577 23.5042 56.7216C23.5504 56.6856 23.5833 56.6352 23.5977 56.5784C23.6016 56.5164 23.5874 56.4546 23.5568 56.4006C23.3867 56.0527 23.0005 55.8775 22.6509 55.7082C21.1998 55.0056 19.9239 53.9942 18.6616 52.9905C18.6309 52.9662 18.604 52.9375 18.5817 52.9054L18.7994 52.857C20.2121 53.8716 21.704 54.771 23.2608 55.5466C23.3431 55.5885 23.4256 55.6294 23.5084 55.6691C23.5679 55.6988 23.6266 55.7278 23.687 55.7541C24.1063 55.96 24.5257 56.1794 24.8413 56.5197C25.0448 56.7544 25.2164 57.0149 25.3516 57.2946C25.6993 57.9514 25.9962 58.6339 26.2397 59.336C26.2443 59.351 26.2497 59.3658 26.2558 59.3803C26.2867 59.4875 26.34 59.587 26.4123 59.672C26.4378 59.7005 26.468 59.7244 26.5016 59.7426C26.6616 59.837 26.881 59.8268 27.0129 59.9476Z" fill="black"/>
<path d="M18.8028 52.6665C20.2153 53.6812 21.7073 54.5804 23.2642 55.3553L23.5118 55.4786C23.9881 55.7117 24.484 55.9431 24.8455 56.3292C25.0489 56.5644 25.2204 56.8252 25.3559 57.105C25.7038 57.7616 26.0004 58.4441 26.2431 59.1464C26.2975 59.3021 26.3613 59.4731 26.5059 59.553C26.6505 59.633 26.8802 59.627 27.0086 59.7478C26.8929 59.8924 26.7755 60.0353 26.6539 60.1731C25.7588 61.221 24.7338 62.1505 23.6036 62.9393C22.9044 63.4275 22.167 63.8605 21.4312 64.2926L20.0702 65.0896C19.5012 65.4231 18.9244 65.7599 18.2933 65.9521C18.056 66.0244 17.805 66.0789 17.5643 66.1486C17.3142 65.7658 17.065 65.3831 16.809 65.0131L15.2252 64.2713C16.0758 63.7899 16.8175 63.1052 17.4367 62.3439C18.2873 61.2959 18.9415 60.1 19.5862 58.9117C19.7004 58.7197 19.7893 58.5139 19.8508 58.2992C19.9358 57.9428 19.8644 57.5677 19.7597 57.2173C19.3765 55.9648 18.5736 54.8825 17.4861 54.1525C16.7205 53.6422 15.8495 53.3325 14.9836 53.0323C14.3788 52.8239 13.7162 52.6206 13.1012 52.7073C13.2305 52.5636 13.3695 52.4289 13.5171 52.3042C13.6992 52.1519 13.8872 52.0626 14.1211 52.0958C14.355 52.1289 14.577 52.163 14.8016 52.2012C15.2566 52.3416 15.7041 52.5083 16.1489 52.6801C16.4417 52.787 16.7261 52.9158 16.9995 53.0655C17.2719 53.2317 17.5335 53.415 17.7829 53.6141C18.5217 54.175 19.2994 54.6827 20.1102 55.1333C21.0459 55.6504 22.0283 56.0732 23.0099 56.4942C23.114 56.5478 23.2289 56.5769 23.3459 56.5793C23.4046 56.5795 23.4616 56.56 23.5079 56.5239C23.5542 56.4878 23.587 56.4372 23.6011 56.3803C23.6049 56.3186 23.5907 56.2571 23.5602 56.2033C23.3901 55.8554 23.004 55.6794 22.6544 55.5109C21.2032 54.8083 19.9273 53.7961 18.665 52.789C18.6341 52.765 18.6071 52.7363 18.5851 52.7039L18.8028 52.6665Z" fill="#58C490"/>
<path d="M30.7206 57.285C33.6694 57.285 36.0599 54.8945 36.0599 51.9457C36.0599 48.9969 33.6694 46.6064 30.7206 46.6064C27.7718 46.6064 25.3813 48.9969 25.3813 51.9457C25.3813 54.8945 27.7718 57.285 30.7206 57.285Z" fill="#58C490"/>
<path d="M36.0295 73.1946C37.0289 72.8807 38.0437 72.5609 38.9215 71.9868C39.5382 71.5836 40.0698 71.0647 40.6295 70.5849C41.0506 70.2243 41.4895 69.8841 41.8757 69.486C42.2216 69.1134 42.5454 68.7209 42.8454 68.3104C43.5281 67.4167 44.2333 66.54 44.9608 65.6804C45.3513 65.2219 45.7638 64.7549 46.309 64.4997C47.2779 64.0446 48.4151 64.3517 49.4376 64.6639C50.9687 65.1317 52.4921 65.6276 53.9245 66.3396C54.7394 66.7453 55.5288 67.1978 56.3513 67.5866C57.8552 68.2968 59.4517 68.7842 61.0424 69.2691C61.1606 69.3194 61.2919 69.3301 61.4167 69.2997C61.5059 69.2588 61.5825 69.1948 61.6387 69.1143C61.8461 68.8581 62.0122 68.5711 62.1312 68.2636C62.1538 68.2287 62.1623 68.1865 62.1549 68.1456C62.1474 68.1046 62.1247 68.0681 62.0912 68.0433C61.4107 67.3807 60.5278 66.9733 59.7027 66.5012C59.046 66.1261 58.4174 65.705 57.7897 65.284C57.1866 64.8799 56.5784 64.4716 56.0723 63.9519C55.8171 63.6891 55.5874 63.399 55.311 63.1592C55.0668 62.9594 54.808 62.778 54.537 62.6165C53.3244 61.8422 52.1671 60.9847 51.0733 60.0502C50.2414 59.3391 49.5601 58.423 48.6712 57.785C48.1259 57.3938 47.4914 57.0374 46.8245 57.1088C46.013 57.1939 45.4142 57.8743 44.8485 58.4613C42.9474 60.4355 40.5487 61.8484 38.4273 63.5845C36.6955 64.9999 35.0768 66.6815 32.9673 67.4284C33.0617 67.7414 33.0949 68.0544 33.1901 68.364C33.3089 68.7944 33.4569 69.2162 33.6333 69.6263C33.8082 69.9895 34.0051 70.3418 34.2228 70.6811L35.0683 72.0616C35.2384 72.3423 35.4162 72.6273 35.6595 72.8501C35.787 72.9726 36.0295 73.0168 36.0295 73.1946Z" fill="#292742"/>
<path opacity="0.12" d="M36.0295 73.1946C37.0289 72.8807 38.0437 72.5609 38.9215 71.9868C39.5382 71.5836 40.0698 71.0647 40.6295 70.5849C41.0506 70.2243 41.4895 69.8841 41.8757 69.486C42.2216 69.1134 42.5454 68.7209 42.8454 68.3104C43.5281 67.4167 44.2333 66.54 44.9608 65.6804C45.3513 65.2219 45.7638 64.7549 46.309 64.4997C47.2779 64.0446 48.4151 64.3517 49.4376 64.6639C50.9687 65.1317 52.4921 65.6276 53.9245 66.3396C54.7394 66.7453 55.5288 67.1978 56.3513 67.5866C57.8552 68.2968 59.4517 68.7842 61.0424 69.2691C61.1606 69.3194 61.2919 69.3301 61.4167 69.2997C61.5059 69.2588 61.5825 69.1948 61.6387 69.1143C61.8461 68.8581 62.0122 68.5711 62.1312 68.2636C62.1538 68.2287 62.1623 68.1865 62.1549 68.1456C62.1474 68.1046 62.1247 68.0681 62.0912 68.0433C61.4107 67.3807 60.5278 66.9733 59.7027 66.5012C59.046 66.1261 58.4174 65.705 57.7897 65.284C57.1866 64.8799 56.5784 64.4716 56.0723 63.9519C55.8171 63.6891 55.5874 63.399 55.311 63.1592C55.0668 62.9594 54.808 62.778 54.537 62.6165C53.3244 61.8422 52.1671 60.9847 51.0733 60.0502C50.2414 59.3391 49.5601 58.423 48.6712 57.785C48.1259 57.3938 47.4914 57.0374 46.8245 57.1088C46.013 57.1939 45.4142 57.8743 44.8485 58.4613C42.9474 60.4355 40.5487 61.8484 38.4273 63.5845C36.6955 64.9999 35.0768 66.6815 32.9673 67.4284C33.0617 67.7414 33.0949 68.0544 33.1901 68.364C33.3089 68.7944 33.4569 69.2162 33.6333 69.6263C33.8082 69.9895 34.0051 70.3418 34.2228 70.6811L35.0683 72.0616C35.2384 72.3423 35.4162 72.6273 35.6595 72.8501C35.787 72.9726 36.0295 73.0168 36.0295 73.1946Z" fill="black"/>
<path d="M59.3153 71.5742C59.4102 71.7083 59.4747 71.8615 59.5041 72.0232C59.5334 72.1848 59.5271 72.3509 59.4854 72.5099C59.7877 72.7284 60.1558 72.8367 60.5283 72.8169C60.8992 72.7964 61.2639 72.713 61.6068 72.5703C61.904 72.4615 62.1854 72.3139 62.4438 72.1313C62.8887 71.803 63.2094 71.3335 63.4688 70.8461C63.6126 70.5781 63.735 70.2302 63.5496 69.9887C63.4788 69.9063 63.392 69.8391 63.2944 69.7913C62.6404 69.4178 61.9594 69.0933 61.2572 68.8208C61.0639 68.7319 60.8541 68.6847 60.6414 68.6821C60.3794 68.6966 60.1421 68.8403 59.9345 69.0003C59.4684 69.3631 59.0925 69.8289 58.8364 70.3612C58.7565 70.5314 58.5149 70.9362 58.634 71.1115C58.6884 71.1923 58.8891 71.2203 58.9742 71.2705C59.1079 71.3468 59.2241 71.4502 59.3153 71.5742Z" fill="#FFB6B6"/>
<path d="M63.2106 69.5621C64.6498 69.83 65.9733 70.5249 67.3879 70.9001C67.9604 71.0515 68.5498 71.1552 69.0968 71.3781C69.6437 71.601 70.1592 71.982 70.3948 72.5247C70.4943 72.7852 70.5603 73.0573 70.5913 73.3345C70.6525 73.7266 70.7027 74.1647 70.4697 74.4862C70.2238 74.8265 69.7594 74.9022 69.3434 74.9515C67.8481 75.1301 66.3527 75.3079 64.8522 75.4338C64.549 75.4527 64.2472 75.4888 63.9481 75.5418C63.7014 75.592 63.4607 75.666 63.2157 75.7238C62.8993 75.7987 62.576 75.8446 62.2545 75.894C61.432 76.0114 60.6001 76.1304 59.7741 76.0394C59.3973 75.9977 58.9754 75.8761 58.8095 75.5359C58.7407 75.3595 58.7116 75.1701 58.7245 74.9813C58.7245 74.4769 58.716 73.9716 58.7245 73.4672C58.7321 72.9492 58.7577 72.4116 58.9924 71.9497C59.0509 71.8084 59.1605 71.6945 59.2995 71.6307C59.3851 71.6062 59.4746 71.5981 59.5632 71.6069C60.0055 71.6222 60.4631 71.6409 60.8587 71.8383C61.1725 71.9939 61.3988 71.5287 61.7186 71.6682C62.3251 71.9361 61.9143 71.1238 62.5267 71.3764C62.6696 70.9358 63.2769 71.1978 63.1715 70.7461C63.066 70.2944 63.4445 70.4909 63.4011 70.0265C63.3992 69.9252 63.3797 69.825 63.3433 69.7305C63.2956 69.6395 63.3109 69.5476 63.2106 69.5621Z" fill="#292742"/>
<path opacity="0.12" d="M20.0984 42.3465C19.7684 42.5387 19.3593 42.503 18.9748 42.4945C18.6386 42.4875 18.3023 42.5049 17.9685 42.5464C17.8484 42.5548 17.7309 42.5859 17.6223 42.6382C17.481 42.7294 17.3693 42.8597 17.3008 43.0133C17.1647 43.2748 17.073 43.5571 17.0295 43.8486C16.9818 44.1761 16.9869 44.5342 16.7828 44.7937C16.5046 45.1467 16.0708 45.0922 15.677 45.162C15.3342 45.2278 15.0057 45.3533 14.7065 45.5328C14.4114 45.711 14.1582 45.9508 13.9641 46.2357C13.77 46.5206 13.6397 46.844 13.582 47.1839C13.5709 47.2613 13.5632 47.3378 13.5598 47.4152C13.5513 47.6347 13.5735 47.8584 13.5445 48.0736C13.5375 48.1273 13.5267 48.1805 13.5122 48.2327C13.5084 48.248 13.5036 48.2631 13.4977 48.2777C13.485 48.1782 13.4705 48.0804 13.4535 47.9826C13.1942 47.7193 12.9695 47.424 12.7849 47.1039C12.7352 47.0487 12.6952 46.9854 12.6667 46.9168C12.3911 46.2754 12.2031 45.6264 12.2031 44.9238C12.2031 44.0024 12.4944 43.1046 13.0354 42.3588C13.5765 41.6129 14.3395 41.0573 15.2154 40.7713C16.0913 40.4854 17.0352 40.4837 17.9121 40.7667C18.789 41.0496 19.554 41.6025 20.0976 42.3465H20.0984Z" fill="black"/>
<path d="M20.3781 40.673C20.1595 40.1669 19.6976 39.808 19.223 39.5264C18.2873 38.9684 17.2104 38.618 16.1182 38.6035C15.5672 38.6037 15.0176 38.6607 14.4783 38.7736C13.9527 38.8676 13.4378 39.0138 12.9412 39.21C12.1219 39.5507 11.3977 40.0855 10.8309 40.7683C10.7118 40.7773 10.5937 40.7964 10.4779 40.8253C10.0151 40.941 9.59835 41.1953 9.21812 41.4837C8.89994 41.7141 8.61735 41.9901 8.37943 42.3028C8.10097 42.7021 7.90836 43.1548 7.81377 43.6323C7.48969 45.126 7.88863 46.6673 8.18124 48.1669C8.47384 49.6665 8.64482 51.3048 7.92605 52.6521C7.65471 53.1625 7.26939 53.5963 6.98018 54.093C6.69097 54.5898 6.49874 55.1878 6.6629 55.739C6.85854 56.4092 7.51691 56.8346 7.86056 57.4376C8.07102 57.8321 8.14614 58.2848 8.07437 58.7262C8.00261 59.1675 7.78793 59.5731 7.46332 59.8806C8.00346 60.0677 8.60484 59.8661 9.09138 59.5667C9.47715 59.3421 9.80535 59.0308 10.05 58.6574C10.6616 57.6673 10.3903 56.3888 10.6029 55.2448C10.8862 53.7477 12.0294 52.4122 11.872 50.8965C11.7657 49.8757 11.092 49.0294 10.5621 48.1541C10.2086 47.5704 9.91154 46.9543 9.6749 46.3143C9.50478 45.8575 9.36698 45.3667 9.45119 44.8869C9.47905 44.7405 9.52387 44.5977 9.58474 44.4616C9.58474 44.4778 9.58474 44.494 9.58474 44.5101C9.59443 44.9507 9.69339 45.3848 9.87564 45.786C10.5085 47.0789 12.1935 47.5553 12.9072 48.8048C13.1156 48.5777 13.3325 48.3395 13.4176 48.0435C13.4924 47.7798 13.4541 47.4992 13.4652 47.2253C13.495 46.4597 13.9603 45.7384 14.6118 45.3437C14.9109 45.1639 15.2395 45.0386 15.5824 44.9737C15.9753 44.9031 16.4091 44.9567 16.6881 44.6037C16.8923 44.3485 16.8872 43.9861 16.9357 43.6595C16.9788 43.3676 17.0705 43.085 17.207 42.8234C17.2752 42.6698 17.387 42.5397 17.5285 42.4491C17.6372 42.3964 17.7551 42.3652 17.8756 42.3572C18.209 42.3157 18.5451 42.2984 18.881 42.3054C19.2697 42.3147 19.6857 42.3496 20.0191 42.1497C20.4887 41.8639 20.5967 41.1834 20.3781 40.673Z" fill="#292742"/>
<path opacity="0.12" d="M67.9109 35.9774C67.9109 35.9893 67.9109 36.0004 67.9109 36.0123C67.7569 37.3392 66.481 37.278 66.1833 39.3688C66.0659 40.1879 64.8223 40.3393 64.0049 40.5596C63.6519 40.4406 63.2946 40.3376 62.9416 40.2092C62.1251 39.914 62.6958 39.4709 63.0454 38.9945C64.1895 37.4345 64.4064 35.3029 65.7053 33.8696C66.1816 34.7747 66.9351 35.5035 67.8556 35.9494C67.8734 35.9613 67.8922 35.9698 67.9109 35.9774Z" fill="black"/>
<path d="M67.9407 35.2168C67.9406 35.418 67.9292 35.619 67.9067 35.819C67.75 37.2001 67.061 38.4656 65.986 39.3467C64.911 40.2278 63.5348 40.6549 62.1498 40.5373C60.7648 40.4197 59.4803 39.7667 58.5692 38.717C57.6582 37.6673 57.1923 36.3037 57.2707 34.916C57.3491 33.5283 57.9656 32.2258 58.9891 31.2855C60.0126 30.3451 61.3625 29.8409 62.7519 29.8801C64.1413 29.9192 65.4606 30.4986 66.4296 31.4952C67.3985 32.4917 67.9406 33.8268 67.9407 35.2168Z" fill="#FFBDBD"/>
<path d="M70.0883 35.8131C70.6999 35.7833 71.2877 36.0232 71.8525 36.2588C74.0921 37.1944 76.3505 38.1378 78.3519 39.5115C79.3386 40.192 80.253 40.9643 81.1657 41.7392L84.9161 44.9256C85.6365 45.5372 86.3621 46.1547 86.9405 46.9033C87.281 47.3649 87.5915 47.8479 87.8702 48.3493L88.4265 49.2977C88.6544 49.6689 88.8535 50.0571 89.0219 50.4588C89.3077 51.1912 89.4141 52.0452 89.9908 52.5802C90.3778 52.94 90.9111 53.0863 91.3841 53.3236C91.857 53.561 92.3197 53.9777 92.3121 54.5068C92.3121 54.8471 92.1062 55.1533 91.9514 55.4595C91.6308 56.0994 91.4964 56.8165 91.5635 57.529L85.4307 52.8422C85.1866 52.6559 84.9314 52.4637 84.6311 52.4007C84.2415 52.3157 83.8443 52.4628 83.4683 52.5955C80.5044 53.6408 77.3547 54.0548 74.2214 53.811C72.8358 53.7022 71.4289 53.4529 70.2159 52.775C69.5448 52.4007 68.951 51.9048 68.3616 51.414C67.6258 50.7982 66.8875 50.1806 66.2351 49.4763C66.0649 49.2884 65.888 49.0817 65.8446 48.8299C65.8123 48.6479 65.8523 48.4624 65.8676 48.2787C65.9748 46.9883 64.903 45.914 64.5764 44.6611C64.4312 44.0703 64.4514 43.4509 64.6345 42.8708C64.8177 42.2907 65.1569 41.7721 65.615 41.3718C66.3456 42.0114 66.3193 43.1351 66.2342 44.1022C66.1194 45.4045 66.4834 46.0501 66.3686 47.3532C66.8313 47.3362 66.7471 47.6339 66.9445 47.2146C67.1418 46.7952 67.1801 46.3223 67.2175 45.8604C67.3542 44.1898 67.52 42.5221 67.7151 40.8572C67.8121 40.0244 67.9227 39.1934 68.029 38.3615C68.0936 37.8554 68.0851 37.3824 68.3522 36.9333C68.7231 36.3115 69.3534 35.8479 70.0883 35.8131Z" fill="#58B1FF"/>
<path d="M70.889 37.3309C71.2786 37.2084 71.698 37.3207 72.0892 37.4373C72.7811 37.6425 73.4689 37.8594 74.1528 38.088C74.7117 38.2743 75.2782 38.4741 75.7511 38.8254C76.2419 39.1895 76.6017 39.6956 76.9581 40.1932C77.2133 40.5513 77.4685 40.9137 77.6386 41.3203C77.8597 41.8528 77.9193 42.4363 77.9788 43.0096C78.0179 43.257 78.0147 43.5092 77.9695 43.7556C77.8896 44.023 77.749 44.2684 77.5586 44.4726C77.2658 44.8192 76.9263 45.1235 76.5498 45.3768C75.5486 46.0505 74.3382 46.3312 73.1593 46.5787C72.1071 46.799 71.0472 47.004 69.9738 47.0704C69.5561 47.0967 69.0713 47.0704 68.8161 46.7403C68.7435 46.6374 68.6862 46.5246 68.646 46.4052C68.0188 44.744 67.7472 42.9697 67.849 41.1969C67.8582 40.8738 67.9082 40.5531 67.9978 40.2426C68.0861 39.994 68.1957 39.7535 68.3253 39.5238C68.6477 38.9139 68.9871 38.2828 69.5425 37.8745C70.1235 37.4492 70.8763 37.3148 71.5967 37.342" fill="#FFBDBD"/>
<path opacity="0.12" d="M74.8077 43.6386C74.4734 43.864 74.3569 44.2995 74.3143 44.701C74.1332 46.4082 74.8375 48.0983 74.7907 49.814C74.7533 51.175 74.2446 52.4815 73.7427 53.7515C72.887 55.918 72.4413 58.2707 72.2686 60.5938C72.096 62.9168 71.8433 65.3359 70.5963 67.3008C70.3131 67.7456 69.9831 68.159 69.7058 68.6065C69.4149 69.0743 69.1843 69.5761 68.9275 70.0627C68.1706 71.4997 67.1949 72.8102 66.0354 73.9474C65.6952 74.2791 65.3345 74.6007 64.9007 74.7921C64.6211 74.9134 64.3201 74.9775 64.0154 74.9807C63.7107 74.9839 63.4084 74.9261 63.1263 74.8108C62.5445 74.5701 62.0546 74.0274 62.0307 73.3979C62.0095 72.8348 62.3455 72.327 62.6823 71.8762C63.824 70.3488 65.1368 68.9573 66.5951 67.7286C66.8596 67.5058 67.1386 67.2753 67.2756 66.9571C67.4295 66.5905 67.3666 66.1746 67.3862 65.7773C67.4176 65.1436 67.6643 64.5423 67.8115 63.9247C68.4069 61.4163 67.3487 58.6773 68.2095 56.2472C68.4009 55.707 68.685 55.1907 68.7522 54.6216C68.7999 54.2236 68.7003 53.7787 68.452 53.4801C68.2187 53.2117 68.0879 52.8694 68.0828 52.5138C68.0828 52.4407 68.0828 52.3684 68.0922 52.2969C68.1959 51.1835 68.2989 50.0649 68.2427 48.9481C68.1866 47.8313 67.9646 46.7085 67.4491 45.7158C67.182 45.2012 66.8367 44.7197 66.6716 44.1643C66.4063 43.2652 66.6512 42.293 67.0468 41.4424C67.3555 40.7772 67.7672 40.1435 68.3422 39.6876C69.4106 38.8412 71.0097 38.7434 72.1793 39.4434C73.0418 39.9589 73.6322 40.8257 74.1111 41.7094C74.4547 42.3551 74.8171 42.902 74.8077 43.6386Z" fill="black"/>
<path d="M75.0016 43.6386C74.6673 43.864 74.5508 44.2995 74.5083 44.701C74.3271 46.4082 75.0314 48.0983 74.9846 49.814C74.9472 51.175 74.4385 52.4815 73.9367 53.7515C73.081 55.918 72.6361 58.2707 72.4626 60.5938C72.289 62.9168 72.0373 65.3359 70.7903 67.3008C70.507 67.7456 70.1778 68.159 69.8997 68.6065C69.6096 69.0743 69.3783 69.5761 69.1214 70.0627C68.3643 71.4995 67.3886 72.81 66.2293 73.9474C65.8891 74.2791 65.5276 74.6007 65.0938 74.7921C64.8142 74.9134 64.5132 74.9775 64.2085 74.9807C63.9037 74.9839 63.6015 74.9261 63.3194 74.8108C62.7384 74.5701 62.2485 74.0274 62.2247 73.3979C62.2026 72.8348 62.5385 72.327 62.8762 71.8762C64.0179 70.3488 65.3307 68.9572 66.789 67.7286C67.0536 67.5058 67.3334 67.2753 67.4695 66.9571C67.6243 66.5905 67.5605 66.1746 67.5801 65.7773C67.6116 65.1436 67.8582 64.5423 68.0054 63.9247C68.6008 61.4163 67.5427 58.6773 68.4035 56.2472C68.5949 55.707 68.8798 55.1907 68.947 54.6216C68.9938 54.2236 68.8951 53.7787 68.6467 53.4801C68.4091 53.2136 68.2745 52.8709 68.2674 52.5138C68.2674 52.4407 68.2674 52.3684 68.2767 52.2969C68.3796 51.1835 68.4826 50.0649 68.4264 48.9481C68.3703 47.8313 68.1483 46.7085 67.6328 45.7158C67.3657 45.2012 67.0204 44.7197 66.8554 44.1643C66.59 43.2652 66.8349 42.293 67.2305 41.4424C67.5401 40.7772 67.9509 40.1435 68.526 39.6876C69.5943 38.8412 71.1935 38.7434 72.363 39.4434C73.2256 39.9589 73.8159 40.8257 74.2948 41.7094C74.6469 42.3551 75.0076 42.902 75.0016 43.6386Z" fill="#FFBDBD"/>
<path d="M83.604 65.8506L83.5303 65.8729L83.604 65.8506Z" fill="#292742"/>
<path d="M68.7051 69.6473C68.7083 69.6184 68.7134 69.5897 68.7205 69.5615L68.7051 69.6473Z" fill="#292742"/>
<path d="M86.9425 63.8096C87.1875 63.5264 87.5652 63.3996 87.9284 63.3052C88.5137 63.1539 89.1116 63.0565 89.7147 63.0143C90.089 62.974 90.4675 62.9973 90.8341 63.0832C91.1964 63.1827 91.5401 63.3988 91.7238 63.7263C91.8863 64.0155 91.9118 64.3591 91.933 64.69C91.9773 65.3705 92.0181 66.051 91.9058 66.7212C91.8335 67.1465 91.6983 67.5582 91.6107 67.9801C91.3266 69.3632 91.5732 70.7948 91.5477 72.2068C91.5418 72.5079 91.5222 72.8167 91.3955 73.0897C91.2602 73.3798 91.0169 73.6001 90.7796 73.8178C90.5185 74.0535 90.2531 74.2908 89.9384 74.4481C89.4722 74.6821 88.9355 74.7212 88.4141 74.7373C88.0968 74.7467 87.7702 74.7476 87.4784 74.631C87.1867 74.5145 86.9238 74.2525 86.9026 73.9352C86.8685 73.3968 87.4759 73.0446 87.6494 72.5343C87.7872 72.1277 87.629 71.6786 87.4095 71.3086C87.0576 70.7187 86.5553 70.2329 85.9541 69.9008C85.7313 69.7783 85.494 69.6754 85.3085 69.5027C85.1231 69.33 84.9972 69.0621 85.0763 68.8222C85.1707 68.5322 85.5084 68.3969 85.8121 68.368C86.1158 68.3391 86.4364 68.3612 86.7095 68.226C86.9527 68.106 87.122 67.8747 87.2386 67.6305C87.4866 67.1095 87.521 66.5121 87.3347 65.9659C87.2609 65.7582 87.1541 65.5637 87.0182 65.39C86.8907 65.2267 86.6287 65.0889 86.5377 64.9103C86.376 64.5888 86.7256 64.0648 86.9425 63.8096Z" fill="#58B1FF"/>
<path opacity="0.12" d="M81.9995 51.4821C80.5943 50.2402 78.6353 49.9026 76.798 49.5257C75.8516 49.3324 74.9097 49.1169 73.9723 48.8793C73.3564 48.7228 72.7389 48.556 72.101 48.5127C71.463 48.4693 70.8063 48.5586 70.2602 48.8835C69.7142 49.2085 69.3025 49.7971 69.2991 50.4325C69.2991 50.6877 69.3595 50.9377 69.3407 51.1904C69.311 51.597 69.0856 51.9559 68.9316 52.3361C68.6961 52.9372 68.66 53.598 68.8287 54.2211C69.1009 55.2137 69.8851 56.0882 69.8171 57.1131C69.7039 58.8288 69.7388 60.6219 70.091 62.3018C70.4431 63.9818 70.8829 65.6694 70.8727 67.3885C70.8625 69.1075 70.3419 70.9151 69.0583 72.06C69.928 72.8765 70.9916 73.4577 72.1486 73.7484C73.1378 73.996 74.3142 73.9713 75.0185 73.2338C75.1818 73.0637 75.3171 72.8366 75.2831 72.6027C75.248 72.4551 75.186 72.3152 75.1002 72.1901C74.6162 71.3234 74.6749 70.255 74.8892 69.287C75.1036 68.319 75.4702 67.3783 75.5629 66.3899C75.631 65.6728 75.5544 64.9438 75.6914 64.2361C75.7968 63.6943 76.0248 63.1839 76.1617 62.6489C76.5658 61.0617 76.1413 59.3953 75.7194 57.814C76.0724 58.6264 76.7402 59.2601 77.4308 59.8113C78.4788 60.6466 79.7462 61.384 81.0782 61.236C82.264 61.1033 83.2737 60.2791 83.9703 59.312C83.9763 58.1934 84.3641 57.1361 84.2952 56.0201C84.2508 55.5299 84.1631 55.0446 84.0332 54.5698C83.9031 54.0391 83.7696 53.5032 83.5229 53.0158C83.1971 52.3685 82.5421 51.961 81.9995 51.4821Z" fill="black"/>
<path d="M82.2901 51.4821C80.8849 50.2402 78.9268 49.9026 77.0886 49.5257C76.1422 49.3324 75.2006 49.1169 74.2638 48.8793C73.6479 48.7228 73.0295 48.556 72.3924 48.5127C71.7553 48.4693 71.0987 48.5586 70.5526 48.8835C70.0065 49.2085 69.594 49.7971 69.5914 50.4325C69.5914 50.6877 69.6509 50.9377 69.6322 51.1904C69.6033 51.597 69.3728 51.9559 69.2231 52.3361C68.9879 52.9373 68.9521 53.5981 69.121 54.2211C69.3924 55.2137 70.1766 56.0882 70.1094 57.1131C69.9954 58.8288 70.0303 60.6219 70.3825 62.3018C70.7346 63.9818 71.1744 65.6694 71.1642 67.3885C71.154 69.1075 70.63 70.9091 69.3456 72.0523C70.2154 72.8687 71.2789 73.4498 72.4358 73.7408C73.4251 73.9883 74.6023 73.9636 75.3058 73.2262C75.4691 73.056 75.6043 72.8289 75.5703 72.595C75.5352 72.4474 75.4732 72.3076 75.3874 72.1825C74.9034 71.3157 74.9621 70.2473 75.1765 69.2794C75.3908 68.3114 75.7574 67.3706 75.851 66.3822C75.9182 65.6651 75.8416 64.9362 75.9794 64.2285C76.0841 63.6866 76.3129 63.1763 76.449 62.6412C76.853 61.054 76.4294 59.3877 76.0067 57.8064C76.3597 58.6187 77.0274 59.2524 77.7189 59.8036C78.7669 60.6389 80.0334 61.3764 81.3655 61.2284C82.5512 61.0957 83.5609 60.2714 84.2575 59.3043C84.2626 58.1858 84.6505 57.1285 84.5816 56.0125C84.5372 55.5223 84.4495 55.0369 84.3196 54.5622C84.1903 54.0314 84.0559 53.4955 83.8093 53.0081C83.4928 52.3685 82.8328 51.961 82.2901 51.4821Z" fill="#FFBDBD"/>
<path d="M72.5289 72.9474C71.9048 72.5673 71.366 72.0626 70.9459 71.4648C70.7945 71.2504 70.6584 71.0225 70.4696 70.8404C70.2807 70.6584 70.0247 70.5231 69.7635 70.5504C69.4684 70.581 69.2319 70.8055 69.0448 71.0369C68.5429 71.6587 68.2197 72.4191 67.6626 72.9933C67.0195 73.6576 66.1221 74.014 65.2264 74.242C64.3307 74.47 63.4061 74.5899 62.5283 74.8782C62.2527 74.9684 61.9626 75.0909 61.8138 75.3401C61.625 75.6574 61.7287 76.0734 61.9278 76.3881C62.2944 76.9835 62.9255 77.3671 63.5839 77.5951C64.2423 77.823 64.9389 77.9141 65.6254 78.0485C66.8383 78.2858 68.081 78.666 69.2881 78.3981C69.7695 78.2909 70.2237 78.0833 70.7103 77.9932C71.8161 77.7873 72.9567 78.2033 74.0668 78.0365C74.6035 77.9557 75.1105 77.7414 75.5979 77.4998C75.8423 77.3942 76.0645 77.2432 76.2528 77.0549C76.4306 76.8576 76.5378 76.5778 76.4646 76.3226C76.4229 76.1754 76.3268 76.0512 76.263 75.9126C76.1627 75.6982 76.1422 75.4575 76.1184 75.2219C76.0266 74.325 75.8708 73.4359 75.6523 72.5612C75.5766 72.2558 75.4635 71.9156 75.1785 71.782C75.1204 71.7507 75.0524 71.7431 74.9888 71.7608C74.8876 71.7991 74.8544 71.9215 74.8238 72.0245C74.7403 72.309 74.5804 72.5653 74.3615 72.7653C74.1426 72.9654 73.8731 73.1017 73.5822 73.1594C73.2913 73.2171 72.9902 73.194 72.7115 73.0926C72.4328 72.9912 72.1873 72.8153 72.0015 72.5842" fill="#58B1FF"/>
<path opacity="0.12" d="M67.9405 35.2159C67.9404 35.4171 67.929 35.6182 67.9064 35.8181C67.6384 35.8583 67.3647 35.8346 67.1075 35.749C66.8503 35.6635 66.6169 35.5184 66.4264 35.3256C66.2469 35.1351 66.1125 34.9046 65.9347 34.7124C65.757 34.5201 65.5094 34.3602 65.2543 34.3806C65.0365 34.3968 64.8477 34.5346 64.6988 34.6945C64.5051 34.9027 64.3632 35.1536 64.2846 35.4269C64.2276 35.6199 64.1995 35.8394 64.0396 35.9678C63.8797 36.0963 63.6832 36.0878 63.4935 36.081C63.2477 36.0725 62.9925 36.0606 62.7756 35.9449C62.3673 35.7246 62.2295 35.2202 62.0781 34.7813C61.8229 34.0438 61.2488 32.6488 60.3565 32.4999C59.9312 32.4293 59.414 32.6539 59.0806 32.8963C58.5779 33.2612 58.207 33.4977 57.5571 33.4875C57.9668 32.2918 58.7874 31.2802 59.8728 30.6326C60.9583 29.985 62.2382 29.7434 63.485 29.9508C64.7318 30.1582 65.8647 30.8011 66.6821 31.7651C67.4994 32.7292 67.9484 33.952 67.949 35.2159H67.9405Z" fill="black"/>
<path d="M57.5496 33.2934C57.3963 33.2967 57.2436 33.2725 57.0988 33.2219C56.6862 33.0603 56.4855 32.584 56.4506 32.1425C56.3962 31.4697 56.6207 30.8096 56.8462 30.1725C56.8938 30.0338 56.9508 29.885 57.075 29.8076C57.1755 29.7582 57.2854 29.7307 57.3974 29.7268C58.0081 29.6417 58.538 29.2683 58.9888 28.8498C59.4397 28.4313 59.8462 27.9567 60.3498 27.6079C61.6853 26.6867 63.6672 26.8585 64.8223 27.9949C65.2799 28.4441 65.6729 29.0531 66.3074 29.1586C66.6732 29.219 67.0653 29.0931 67.4132 29.2292C67.6684 29.3287 67.8504 29.5541 67.9968 29.7846C68.4714 30.5297 68.6942 31.4127 68.7683 32.293C68.8423 33.1734 68.7742 34.0589 68.7053 34.9393C68.7092 35.0711 68.6752 35.2013 68.6075 35.3144C68.5531 35.3797 68.4848 35.432 68.4076 35.4675C68.0842 35.6269 67.7188 35.6805 67.3632 35.6207C67.0076 35.5608 66.6799 35.3906 66.4265 35.1341C66.2462 34.9444 66.1127 34.7139 65.9349 34.5208C65.7571 34.3277 65.5096 34.1695 65.2544 34.1899C65.0375 34.2061 64.847 34.3439 64.699 34.5038C64.5053 34.712 64.3633 34.9629 64.2847 35.2361C64.2286 35.4292 64.1996 35.6487 64.0397 35.7763C63.8798 35.9039 63.6833 35.8971 63.4928 35.8903C63.2478 35.8809 62.9926 35.8698 62.7757 35.7533C62.3666 35.5339 62.2288 35.0294 62.0782 34.5905C61.8231 33.8531 61.2497 32.4572 60.3566 32.3092C59.9313 32.2378 59.4141 32.4632 59.0807 32.7056C58.5703 33.0679 58.2029 33.3044 57.5496 33.2934Z" fill="#292742"/>
<path opacity="0.12" d="M29.3808 65.0559C29.3221 65.4437 28.9666 65.7466 28.7156 66.0477C28.0335 66.8711 27.3419 67.697 26.5789 68.4506C25.7623 69.2562 24.8658 69.9741 23.9701 70.692L22.8082 71.6217C22.6649 71.7528 22.4969 71.854 22.314 71.9194C22.0998 71.9728 21.8734 71.9459 21.6777 71.8437C21.6947 71.8097 21.7126 71.7782 21.7322 71.7467L23.1255 69.4118C23.3994 68.9542 23.5788 68.5374 23.891 68.1078C24.3614 67.4648 24.836 66.8183 25.4153 66.2731C26.1477 65.5832 27.0867 65.0822 27.9578 64.5838C28.0836 64.2061 28.611 64.1015 28.9674 64.2801C29.0995 64.3486 29.2184 64.4399 29.3187 64.5498C29.3826 64.7103 29.404 64.8846 29.3808 65.0559Z" fill="black"/>
<path d="M23.2225 69.5089L21.8292 71.8446C21.7722 71.939 21.7135 72.0462 21.7382 72.1534C21.7695 72.2433 21.8292 72.3207 21.9083 72.3737C22.4425 72.8084 23.0345 73.2668 23.2021 73.9346C23.322 74.4109 23.2021 74.9213 23.3093 75.3993C23.5058 76.2618 24.3725 76.7858 25.1925 77.1175C27.0298 77.861 29.0696 78.1468 31.0217 77.798C32.9739 77.4493 34.8265 76.4558 36.0905 74.9281C36.4784 74.4585 36.8101 73.9448 37.1784 73.4599C38.1991 72.1202 39.4946 71.0204 40.7799 69.9316C42.4343 68.5298 43.4091 66.439 44.8628 64.828C45.1273 64.5345 45.4191 64.2326 45.7984 64.1356C46.0111 64.082 46.3088 64.1611 46.3173 64.3806C46.3369 64.8059 46.6788 65.1538 46.9127 65.5093C47.794 66.8567 48.716 68.2457 50.0778 69.1048C50.823 69.5761 51.6676 69.8644 52.5097 70.1256C54.6447 70.7907 56.8214 71.3164 58.9956 71.837C59.1053 71.6176 59.237 71.4098 59.3886 71.2169C59.614 70.9404 59.9108 70.7295 60.1371 70.4513C60.5514 69.9503 60.6968 69.2877 60.8295 68.6515C59.5306 67.8561 58.1977 67.0353 56.9167 66.2085C56.272 65.7934 55.6229 65.369 55.1007 64.8076C54.7604 64.4384 54.4746 64.0157 54.1335 63.6439C53.7846 63.2832 53.4087 62.9497 53.009 62.6462L49.9469 60.1939C49.0673 59.4904 48.1708 58.7478 47.31 58.0197C46.826 57.6097 46.2892 57.1785 45.6564 57.1589C45.1146 57.1419 44.6161 57.432 44.15 57.711C41.4122 59.3504 38.6335 60.916 35.814 62.408C35.2433 62.7091 34.67 63.0085 34.1256 63.3547C33.0664 64.0286 32.1259 64.873 31.3424 65.8538C31.1986 66.0333 31.0166 66.2374 30.7887 66.2102C30.726 66.201 30.6657 66.1799 30.6109 66.1481C30.2596 65.9601 30.0444 65.5969 29.8453 65.2524C29.6463 64.9079 29.4243 64.5456 29.0679 64.367C28.7115 64.1883 28.185 64.2929 28.0582 64.6715C27.1829 65.1844 26.2473 65.6811 25.514 66.371C24.9348 66.9162 24.4601 67.5618 23.9898 68.2057C23.6759 68.6353 23.4956 69.0521 23.2225 69.5089Z" fill="#292742"/>
<path opacity="0.12" d="M20.9404 55.2627C20.9404 55.2627 22.3414 55.8845 23.3459 56.5862L20.9404 55.2627Z" fill="black"/>
<path d="M91.1035 56.5407C91.1291 57.3343 91.1495 58.1296 91.1401 58.9224C91.135 59.3426 91.1171 59.7807 90.9156 60.149C90.7718 60.4135 90.5447 60.6202 90.3201 60.8227L88.9192 62.0926C88.4845 62.4864 88.0158 62.8973 87.4366 62.9951C86.774 63.1074 86.1266 62.785 85.4895 62.5698C84.848 62.3536 84.1761 62.2408 83.4991 62.2355C83.1112 62.2355 82.72 62.2661 82.3372 62.2049C82.0604 62.1522 81.7889 62.0751 81.5257 61.9744L80.2609 61.5355C80.2966 61.2165 80.6011 61.0132 80.8563 60.8116C81.7622 60.0767 82.1594 58.8952 82.4452 57.7647C82.6775 56.8822 82.843 55.9834 82.9403 55.076C82.9837 54.6268 83.0032 54.1701 82.9088 53.7286C82.8197 53.3725 82.6943 53.0264 82.5345 52.696L82.0897 51.6931C81.8345 51.1266 81.3241 50.8748 80.8044 50.5405C81.5887 50.8382 82.5447 50.9548 83.141 51.5451C83.2561 51.6759 83.3924 51.7863 83.5442 51.8717C83.7067 51.9491 83.8913 51.9568 84.069 51.9857C84.9545 52.1184 85.7073 52.6747 86.4388 53.1893C87.3342 53.8199 88.2546 54.4122 89.1999 54.9662C89.6252 55.2163 90.0641 55.4621 90.4222 55.8032C90.7803 56.1443 91.061 56.5985 91.084 57.0927" fill="#292742"/>
<path opacity="0.12" d="M14.8247 55.1475C13.7096 55.3678 13.1294 56.6786 13.1949 57.8125C13.2579 58.8252 13.6738 59.7839 14.3705 60.5217C14.8358 61.0107 15.4159 61.3884 15.8361 61.9166C16.457 62.6958 16.6731 63.7259 17.2285 64.5535C17.6317 65.1541 18.1974 65.6253 18.7596 66.077C20.0559 67.1113 21.3945 68.0903 22.7753 69.0141C23.3367 69.3892 23.9509 69.7686 24.6262 69.7541C25.2625 69.7405 25.8486 69.3671 26.2636 68.884C26.6787 68.4008 26.9441 67.8139 27.2138 67.2355C28.1852 65.1175 29.1634 62.9765 29.6278 60.6935C29.7732 59.9764 29.8711 59.2372 30.196 58.5814C30.4512 58.0711 30.8289 57.6338 31.1657 57.1728C31.9615 56.0788 32.5201 54.8307 32.8057 53.5084C32.9911 52.6459 33.0532 51.7221 32.7487 50.8971C32.4442 50.072 31.705 49.3566 30.8246 49.292C30.128 49.2409 29.4441 49.5982 28.9762 50.1179C28.5084 50.6376 28.2328 51.3019 28.0448 51.9748C27.7753 52.9427 27.6718 53.9493 27.7386 54.9519C27.793 55.7608 27.9581 56.5774 27.8186 57.377C27.7199 57.9409 27.4741 58.4674 27.2308 58.9863C26.6022 60.3252 25.9634 61.681 25.0133 62.814C24.7036 63.1832 24.2775 63.5566 23.8037 63.4699C23.1487 63.3508 22.9752 62.5214 22.652 61.9388C22.2556 61.2243 21.5037 60.7947 20.9142 60.2273C20.0755 59.4193 19.5728 58.3356 18.9765 57.3353C18.3802 56.335 17.6087 55.3474 16.5098 54.9638C15.4108 54.5802 13.946 55.0727 13.6636 56.2023" fill="black"/>
<path opacity="0.12" d="M15.666 55.9243C14.55 56.1446 13.1295 56.2884 13.1992 57.4239C13.2615 58.4368 13.6775 59.3957 14.3748 60.1331C14.8401 60.6231 15.4202 61.0007 15.8404 61.5289C16.4613 62.3081 16.6774 63.3373 17.2328 64.1658C17.636 64.7672 18.2017 65.2384 18.7639 65.6893C20.0602 66.7242 21.3988 67.7032 22.7796 68.6264C23.341 69.0024 23.9552 69.3817 24.6305 69.3673C25.2668 69.3537 25.8529 68.9794 26.268 68.4971C26.6831 68.0148 26.9484 67.427 27.2181 66.8478C28.1895 64.7298 29.1677 62.5888 29.6321 60.3058C29.7776 59.5896 29.8754 58.8495 30.2003 58.1946C30.4555 57.6842 30.8332 57.247 31.17 56.7851C31.9659 55.6915 32.5245 54.4437 32.81 53.1216C32.9954 52.2582 33.0575 51.3353 32.753 50.5093C32.4485 49.6834 31.7093 48.9697 30.8289 48.9043C30.1323 48.8532 29.4484 49.2113 28.9805 49.7302C28.5127 50.2491 28.2371 50.9142 28.0491 51.5879C27.7796 52.5559 27.676 53.5625 27.7429 54.565C27.7973 55.3748 27.9624 56.1914 27.8229 56.9901C27.7242 57.5549 27.4784 58.0814 27.2351 58.6003C26.6065 59.9392 25.9677 61.2942 25.0176 62.428C24.7079 62.7972 24.2818 63.1698 23.808 63.0839C23.153 62.9639 22.9795 62.1346 22.6563 61.5528C22.2599 60.8383 21.508 60.4087 20.9185 59.8413C20.0798 59.0341 19.5771 57.9496 18.9808 56.9493C18.3845 55.949 17.613 54.9623 16.5141 54.5778C15.4151 54.1933 16.7914 56.6558 16.5081 57.7854" fill="black"/>
<path d="M14.8247 54.9526C13.7096 55.1729 13.1294 56.4837 13.1949 57.6176C13.2577 58.6306 13.6737 59.5896 14.3705 60.3276C14.8358 60.8167 15.4159 61.1944 15.8361 61.7226C16.457 62.5017 16.6731 63.5318 17.2285 64.3595C17.6317 64.9608 18.1974 65.4321 18.7596 65.8837C20.0559 66.9181 21.3945 67.8968 22.7753 68.82C23.3367 69.196 23.9509 69.5754 24.6262 69.5609C25.2625 69.5473 25.8486 69.1739 26.2636 68.6907C26.6787 68.2076 26.9441 67.6207 27.2138 67.0423C28.1852 64.9243 29.1634 62.7833 29.6278 60.4994C29.7732 59.7832 29.8711 59.0432 30.196 58.3882C30.4512 57.8778 30.8289 57.4406 31.1657 56.9788C31.9616 55.8852 32.5202 54.6373 32.8057 53.3152C32.9911 52.4518 33.0532 51.5289 32.7487 50.703C32.4442 49.877 31.705 49.1634 30.8246 49.0987C30.128 49.0469 29.4441 49.405 28.9762 49.9247C28.5084 50.4444 28.2328 51.1087 28.0448 51.7816C27.7753 52.7495 27.6718 53.7561 27.7386 54.7587C27.793 55.5676 27.9581 56.3842 27.8186 57.1829C27.7199 57.7477 27.4741 58.2742 27.2308 58.7931C26.6022 60.132 25.9634 61.4878 25.0133 62.6208C24.7036 62.99 24.2775 63.3625 23.8037 63.2766C23.1487 63.1567 22.9752 62.3282 22.652 61.7455C22.2556 61.0302 21.5037 60.6006 20.9142 60.0341C20.0755 59.2261 19.5728 58.1424 18.9765 57.1421C18.3802 56.1418 17.6087 55.1551 16.5098 54.7714C15.4108 54.3878 13.946 54.8803 13.6636 56.0099" fill="#FFB6B6"/>
<g opacity="0.06">
<path opacity="0.12" d="M10.562 48.1581C10.2085 47.5744 9.91146 46.9583 9.67483 46.3182L9.64591 46.2332C9.46641 46.0405 9.31545 45.8231 9.19764 45.5876C9.01528 45.1864 8.91631 44.7523 8.90673 44.3117C8.90673 44.2955 8.90673 44.2793 8.90673 44.2632C8.84587 44.3993 8.80105 44.542 8.77319 44.6885C8.68813 45.1682 8.82847 45.6582 8.99689 46.1158C9.2337 46.7558 9.53076 47.3719 9.88408 47.9557C10.4123 48.8386 11.0868 49.6892 11.1915 50.7023C11.3488 52.2181 10.2056 53.5527 9.9232 55.0506C9.70715 56.1946 9.98105 57.4731 9.36946 58.4632C9.12501 58.8365 8.79674 59.1476 8.41083 59.3716C8.16878 59.5259 7.90378 59.6407 7.62572 59.7119C7.57501 59.7721 7.52046 59.8289 7.4624 59.882C8.00254 60.0691 8.60392 59.8676 9.09046 59.5681C9.47623 59.3435 9.80443 59.0322 10.0491 58.6588C10.6607 57.6687 10.3893 56.3903 10.602 55.2462C10.8852 53.7491 12.0285 52.4137 11.8711 50.8979C11.7656 49.8789 11.0919 49.0291 10.562 48.1581Z" fill="black"/>
<path opacity="0.12" d="M20.378 40.6733C20.1594 40.1672 19.6975 39.8082 19.2229 39.5267C18.6212 39.1657 17.9665 38.9016 17.2827 38.7441C17.7215 38.8973 18.1438 39.0942 18.5433 39.3319C19.0179 39.6143 19.4789 39.9724 19.6992 40.4794C19.9195 40.9863 19.8098 41.6702 19.3369 41.9526C19.0034 42.1525 18.5875 42.1168 18.1988 42.1083C17.8628 42.1006 17.5268 42.1177 17.1933 42.1593C17.0729 42.168 16.9552 42.1992 16.8463 42.2512C16.7044 42.3431 16.5926 42.4748 16.5248 42.6297C16.388 42.8913 16.296 43.1739 16.2526 43.4659C16.2049 43.7925 16.2092 44.1506 16.005 44.41C15.7277 44.763 15.2939 44.7094 14.8993 44.7792C14.5565 44.845 14.228 44.9705 13.9287 45.1501C13.2772 45.5439 12.8119 46.2635 12.7821 47.0316C12.7719 47.3055 12.8093 47.5853 12.7353 47.849C12.6876 48.0029 12.6127 48.1469 12.5142 48.2743C12.6649 48.4354 12.7967 48.6132 12.9071 48.8043C13.1155 48.5771 13.3324 48.339 13.4175 48.043C13.4924 47.7793 13.4541 47.4986 13.4651 47.2247C13.4949 46.4591 13.9602 45.7378 14.6118 45.3431C14.9108 45.1633 15.2394 45.038 15.5823 44.9731C15.9753 44.9025 16.4091 44.9561 16.6881 44.6031C16.8922 44.3479 16.8871 43.9856 16.9356 43.6589C16.9787 43.367 17.0704 43.0844 17.207 42.8228C17.2752 42.6693 17.387 42.5391 17.5285 42.4485C17.6371 42.3958 17.755 42.3646 17.8755 42.3567C18.209 42.3151 18.545 42.2978 18.8809 42.3048C19.2697 42.3141 19.6856 42.349 20.0191 42.1491C20.4886 41.8642 20.5966 41.1837 20.378 40.6733Z" fill="black"/>
</g>
<path opacity="0.12" d="M14.8086 48.8003C14.8086 48.8003 15.8132 49.6645 17.7211 49.1405C17.7211 49.1388 16.5396 49.6041 14.8086 48.8003Z" fill="black"/>
<path opacity="0.12" d="M68.6865 34.2208C68.6884 34.3522 68.653 34.4814 68.5844 34.5934C68.5299 34.6584 68.4616 34.7104 68.3845 34.7457C68.0613 34.9052 67.6961 34.959 67.3407 34.8993C66.9852 34.8396 66.6576 34.6695 66.4043 34.4131C66.224 34.2225 66.0904 33.9878 65.9126 33.7998C65.7349 33.6118 65.4873 33.4476 65.2322 33.468C65.0153 33.4851 64.8256 33.6229 64.6767 33.7819C64.484 33.9908 64.3422 34.2415 64.2625 34.5143C64.2072 34.7082 64.1774 34.9268 64.0183 35.0553C63.8593 35.1837 63.6619 35.1752 63.4714 35.1684C63.2256 35.1599 62.9704 35.1488 62.7543 35.0323C62.3452 34.8129 62.2074 34.3076 62.056 33.8695C61.8008 33.1312 61.2275 31.7362 60.3352 31.5874C59.9099 31.5168 59.3919 31.7422 59.0593 31.9837C58.5566 32.3487 58.1857 32.5851 57.535 32.5792C57.3817 32.5821 57.2291 32.5579 57.0842 32.5077C56.7099 32.3606 56.51 31.954 56.4496 31.5508C56.4265 31.7356 56.4217 31.9222 56.4352 32.1079C56.4709 32.5485 56.6717 33.0249 57.0842 33.1873C57.2291 33.2376 57.3817 33.2617 57.535 33.2588C58.1857 33.269 58.5557 33.0325 59.0593 32.6676C59.3936 32.4261 59.9099 32.1998 60.3352 32.2712C61.2241 32.4158 61.8025 33.8108 62.0526 34.5483C62.204 34.9872 62.3418 35.4925 62.7509 35.7119C62.967 35.8276 63.2222 35.8395 63.468 35.848C63.6585 35.8548 63.8678 35.8557 64.0149 35.7349C64.1621 35.6141 64.2038 35.387 64.2591 35.1939C64.3386 34.921 64.4804 34.6703 64.6733 34.4616C64.8222 34.3025 65.0136 34.1647 65.2288 34.1477C65.4907 34.1273 65.7391 34.2863 65.9092 34.4794C66.0794 34.6725 66.2206 34.9047 66.4009 35.0927C66.6542 35.3491 66.9818 35.5192 67.3373 35.5789C67.6927 35.6386 68.0579 35.5849 68.3811 35.4253C68.4581 35.3898 68.5263 35.3378 68.581 35.273C68.6497 35.1608 68.6851 35.0313 68.6831 34.8996C68.7496 34.1832 68.778 33.4637 68.7681 32.7442C68.7613 33.2367 68.7247 33.7292 68.6865 34.2208Z" fill="black"/>
<path d="M9.63939 70.5077C9.63939 70.5077 9.77463 70.3572 9.5203 70.2976V70.0501H9.67341C9.67308 69.751 9.57009 69.4611 9.38167 69.2289C9.19324 68.9967 8.9308 68.8361 8.63822 68.7742V68.4739H8.6782V68.0835H7.69405V68.4739H7.72212V68.7776C7.43229 68.8426 7.17324 69.0044 6.98769 69.2363C6.80214 69.4682 6.70116 69.7565 6.70139 70.0535H6.83664V70.2908C6.83664 70.2908 6.51426 70.4431 6.83664 70.7161C7.15902 70.9892 7.10883 71.1865 7.10883 71.1865C7.10883 71.1865 6.97359 71.6969 6.70224 71.7632V76.4951C6.70213 76.6333 6.72924 76.7701 6.78203 76.8977C6.83481 77.0254 6.91224 77.1414 7.00988 77.2391C7.10751 77.3368 7.22345 77.4143 7.35106 77.4672C7.47867 77.5201 7.61546 77.5473 7.75359 77.5473H8.58463C8.86369 77.5473 9.13133 77.4365 9.32865 77.2392C9.52598 77.0418 9.63683 76.7742 9.63683 76.4951V71.7632C9.63683 71.7632 9.16134 71.4068 9.24641 71.1865C9.36052 70.9509 9.49187 70.724 9.63939 70.5077Z" fill="#58B1FF"/>
</svg>
