<svg width="102" height="101" viewBox="0 0 102 101" fill="none" xmlns="http://www.w3.org/2000/svg">
<rect width="102" height="101" rx="12" fill="#E6F8F5"/>
<path d="M51 86.9412C79.1665 86.9412 102 85.506 102 83.7355C102 81.965 79.1665 80.5298 51 80.5298C22.8335 80.5298 0 81.965 0 83.7355C0 85.506 22.8335 86.9412 51 86.9412Z" fill="#817E9D"/>
<path d="M94.0003 81.3613C94.0011 81.6146 93.975 81.8673 93.9226 82.1151C93.9129 82.1618 93.9022 82.2123 93.8915 82.2521C93.6157 83.3586 92.8375 84.1678 91.9088 84.2193C91.8778 84.2193 91.8467 84.2193 91.8117 84.2193C90.8296 84.2193 89.999 83.3722 89.7251 82.2055C89.7173 82.1744 89.7105 82.1433 89.7037 82.1083C89.6513 81.8605 89.6253 81.6078 89.626 81.3545C89.626 79.774 90.6042 78.4937 91.8117 78.4937C93.0192 78.4937 94.0003 79.7827 94.0003 81.3613Z" fill="#292742"/>
<path d="M98.6633 76.0326C98.6642 75.3374 98.5011 74.6518 98.1873 74.0315L95.6169 74.8309L97.8736 73.504C97.4952 72.9571 96.9989 72.5021 96.4211 72.1727C95.8434 71.8434 95.1991 71.648 94.5357 71.6009C94.4299 71.4409 94.3141 71.2878 94.1889 71.1424L90.4975 72.2916L93.5255 70.512C92.9462 70.0677 92.2664 69.7729 91.5462 69.6538C90.826 69.5347 90.0875 69.5948 89.3961 69.829C88.7046 70.0631 88.0815 70.464 87.5818 70.9962C87.0822 71.5284 86.7213 72.1755 86.5312 72.8803L89.6932 76.5212L86.2631 74.0392C85.3933 74.6552 84.7739 75.5632 84.5179 76.5978C84.2618 77.6323 84.3861 78.7245 84.8682 79.675C85.3502 80.6255 86.1578 81.3711 87.1438 81.7758C88.1297 82.1805 89.2283 82.2174 90.2391 81.8796C91.1534 82.2148 92.1522 82.2421 93.0835 81.9573C93.7327 82.101 94.4059 82.0971 95.0534 81.9459C95.7009 81.7947 96.3063 81.5001 96.8248 81.0839C97.3433 80.6676 97.7618 80.1403 98.0494 79.5408C98.337 78.9413 98.4864 78.2848 98.4865 77.6199C98.4865 77.5228 98.4865 77.4256 98.4768 77.3285C98.6027 76.9081 98.6656 76.4714 98.6633 76.0326Z" fill="#58C490"/>
<path d="M67.864 30.7046H67.3074C67.1846 30.7046 67.085 30.8042 67.085 30.927V38.7412C67.085 38.8641 67.1846 38.9637 67.3074 38.9637H67.864C67.9869 38.9637 68.0865 38.8641 68.0865 38.7412V30.927C68.0865 30.8042 67.9869 30.7046 67.864 30.7046Z" fill="#292742"/>
<path d="M34.199 24.2344H33.9279C33.8475 24.2344 33.7822 24.2996 33.7822 24.3801V26.8077C33.7822 26.8882 33.8475 26.9534 33.9279 26.9534H34.199C34.2794 26.9534 34.3447 26.8882 34.3447 26.8077V24.3801C34.3447 24.2996 34.2794 24.2344 34.199 24.2344Z" fill="#292742"/>
<path d="M34.2314 29.2124H33.9264C33.8357 29.2124 33.7622 29.2859 33.7622 29.3766V33.781C33.7622 33.8717 33.8357 33.9452 33.9264 33.9452H34.2314C34.3221 33.9452 34.3956 33.8717 34.3956 33.781V29.3766C34.3956 29.2859 34.3221 29.2124 34.2314 29.2124Z" fill="#292742"/>
<path d="M34.2188 35.6006H33.9284C33.842 35.6006 33.772 35.6706 33.772 35.757V40.2178C33.772 40.3042 33.842 40.3742 33.9284 40.3742H34.2188C34.3052 40.3742 34.3752 40.3042 34.3752 40.2178V35.757C34.3752 35.6706 34.3052 35.6006 34.2188 35.6006Z" fill="#292742"/>
<path d="M64.158 15.249H37.5681C35.6533 15.249 34.1011 16.8013 34.1011 18.7161V79.9151C34.1011 81.8299 35.6533 83.3821 37.5681 83.3821H64.158C66.0728 83.3821 67.6251 81.8299 67.6251 79.9151V18.7161C67.6251 16.8013 66.0728 15.249 64.158 15.249Z" fill="#292742"/>
<path d="M52.064 17.2837H47.8761C47.7399 17.2837 47.6294 17.3942 47.6294 17.5304V17.988C47.6294 18.1242 47.7399 18.2347 47.8761 18.2347H52.064C52.2002 18.2347 52.3107 18.1242 52.3107 17.988V17.5304C52.3107 17.3942 52.2002 17.2837 52.064 17.2837Z" fill="white"/>
<path d="M53.5577 18.298C53.8555 18.298 54.0968 18.0566 54.0968 17.7589C54.0968 17.4611 53.8555 17.2197 53.5577 17.2197C53.2599 17.2197 53.0186 17.4611 53.0186 17.7589C53.0186 18.0566 53.2599 18.298 53.5577 18.298Z" fill="white"/>
<path d="M65.5552 19.6856V78.9428C65.5549 79.6488 65.2743 80.3258 64.7749 80.825C64.2756 81.3241 63.5985 81.6045 62.8925 81.6045H38.8341C38.1281 81.6045 37.4509 81.3241 36.9516 80.825C36.4523 80.3258 36.1716 79.6488 36.1714 78.9428V19.6856C36.1714 19.336 36.2403 18.9897 36.3741 18.6667C36.5079 18.3436 36.704 18.0501 36.9513 17.8028C37.1985 17.5556 37.4921 17.3594 37.8151 17.2256C38.1382 17.0918 38.4844 17.0229 38.8341 17.0229H42.4342V17.4853C42.4352 18.0663 42.6666 18.623 43.0777 19.0335C43.4887 19.444 44.0458 19.6747 44.6267 19.6749H56.8667C57.1546 19.6749 57.4397 19.6182 57.7057 19.5081C57.9717 19.3979 58.2135 19.2364 58.417 19.0328C58.6206 18.8292 58.7821 18.5875 58.8923 18.3215C59.0025 18.0555 59.0592 17.7704 59.0592 17.4824V17.0229H62.8973C63.6027 17.0242 64.2787 17.3053 64.777 17.8045C65.2753 18.3038 65.5552 18.9803 65.5552 19.6856V19.6856Z" fill="white"/>
<path opacity="0.2" d="M65.766 44.1554V64.3057H65.5552V64.3261H36.1714V39.7082C36.3598 39.4932 36.5509 39.2701 36.7445 39.0389C40.8712 34.1108 46.4802 32.8139 50.8215 32.6779C53.796 32.5808 56.7569 33.1957 59.5838 34.4168C61.0769 35.0618 63.2198 35.769 65.5552 35.839V43.4569C65.698 43.8639 65.766 44.1554 65.766 44.1554Z" fill="#9093FD"/>
<path opacity="0.2" d="M65.766 44.1546V64.3049H36.1714V51.1052C37.2254 50.84 38.6971 49.82 40.5856 47.0019C42.8441 43.63 45.9129 42.7431 48.288 42.6499C49.9152 42.5857 51.5355 43.0035 53.082 43.8399C54.8218 44.7792 58.1752 45.9119 60.7233 42.6236C63.5404 38.9876 65.0384 41.9864 65.5552 43.4561C65.698 43.8632 65.766 44.1546 65.766 44.1546Z" fill="#9093FD"/>
<path d="M61.4913 60.6152H40.3142C39.6703 60.6152 39.1484 61.1371 39.1484 61.7809V66.8324C39.1484 67.4762 39.6703 67.9981 40.3142 67.9981H61.4913C62.1351 67.9981 62.657 67.4762 62.657 66.8324V61.7809C62.657 61.1371 62.1351 60.6152 61.4913 60.6152Z" fill="#736E9E"/>
<path d="M13.0228 80.4173L14.8821 79.3205C14.6307 78.891 14.3093 78.5065 13.9311 78.183L10.4233 79.2778L13.1724 77.6613C12.4919 77.2885 11.726 77.0994 10.9502 77.1125C10.1743 77.1255 9.41529 77.3404 8.74772 77.736C8.08016 78.1315 7.52709 78.6941 7.14297 79.3683C6.75884 80.0425 6.5569 80.8051 6.55701 81.581C6.55701 84.0494 8.55718 84.1349 11.0256 84.1349C13.494 84.1349 15.4941 84.0494 15.4941 81.581C15.495 80.9566 15.3643 80.3389 15.1104 79.7683L13.0228 80.4173Z" fill="#58C490"/>
<path d="M22.1718 70.5658C22.0299 70.6904 21.9205 70.8478 21.8532 71.0243C21.6871 71.5431 22.1514 72.0521 22.1961 72.5951C22.2311 73.0264 22.0018 73.4286 21.8717 73.8424C21.7248 74.3565 21.7343 74.9027 21.899 75.4113C22.0637 75.92 22.3761 76.368 22.7965 76.6984C22.886 76.7744 22.9916 76.8289 23.1054 76.8577C23.1993 76.869 23.2945 76.8611 23.3851 76.8344C23.4758 76.8076 23.5601 76.7627 23.6329 76.7023C23.8585 76.5382 24.0305 76.3111 24.1273 76.0495C24.2079 75.7925 24.2514 75.5252 24.2565 75.2559L24.3255 74.2164C24.3974 73.1313 24.4625 72.0123 24.1982 70.9466C24.1118 70.5969 23.9515 69.7935 23.5474 69.7449C23.1433 69.6964 22.44 70.3035 22.1718 70.5658Z" fill="#292742"/>
<path d="M28.9485 66.1011C28.4632 67.8052 28.1115 69.5445 27.8964 71.3031C27.8654 71.5509 27.8333 71.8112 27.6837 72.0113C27.3855 72.4125 26.788 72.3873 26.2926 72.3222C26.1737 72.3159 26.0578 72.2827 25.9536 72.225C25.7671 72.0987 25.7263 71.8462 25.7039 71.6218C25.3646 68.3137 25.1379 64.997 25.0239 61.6714C25.0191 61.5442 29.171 61.5325 29.5265 61.8657C29.882 62.1989 29.6062 63.4453 29.5265 63.8698C29.3963 64.6255 29.1612 65.3619 28.9485 66.1011Z" fill="#FEB8B8"/>
<path d="M20.3027 61.1982L21.9843 64.8965C22.5438 66.1263 23.1072 67.3697 23.3744 68.6938C23.4816 69.2469 23.5501 69.8068 23.5794 70.3695C23.62 70.8517 23.605 71.3371 23.5347 71.8159C23.4735 72.1715 23.3608 72.5173 23.3112 72.8748C23.117 74.2999 23.9242 75.6405 24.477 76.9665C24.9545 78.1053 25.2584 79.3093 25.3784 80.5384C25.429 81.062 25.4571 81.6177 25.7563 82.0499C26.3033 81.8858 26.8375 81.7439 27.4078 81.808C27.5098 80.9716 26.9813 80.2013 26.787 79.3795C26.4305 77.8738 27.2183 76.2913 26.9502 74.7671C26.8045 73.9414 26.3528 73.1643 26.3897 72.3269C26.4587 70.7998 26.7452 69.2572 26.4538 67.7612C26.1255 66.0699 25.1812 64.5322 24.9724 62.8224C24.8121 61.5091 25.0695 60.0568 24.338 58.9533C22.74 58.859 21.0876 59.8023 20.3027 61.1982Z" fill="#FEB8B8"/>
<path d="M25.8295 84.4231C25.6615 84.4289 25.4653 84.4231 25.3613 84.29C25.3106 84.2126 25.2814 84.1231 25.2768 84.0306C25.1972 83.445 25.1583 82.8546 25.1602 82.2636C25.1602 82.0479 25.1699 81.8187 25.2904 81.6409C25.3788 81.5324 25.4795 81.4346 25.5906 81.3495C25.848 81.1115 26.0355 80.7666 26.3677 80.6569C26.5133 80.6145 26.6676 80.6125 26.8142 80.651C26.9608 80.6895 27.0942 80.767 27.2002 80.8754C27.4099 81.0989 27.5396 81.3855 27.5694 81.6905C27.6179 82.0518 27.5771 82.4453 27.7685 82.759C27.8443 82.8805 27.9502 82.9795 28.0357 83.0942C28.3271 83.4827 28.5884 84.2434 27.9871 84.4007C27.3498 84.5669 26.4911 84.4017 25.8295 84.4231Z" fill="#292742"/>
<path d="M27.2871 39.3117C27.6271 38.655 27.4241 37.8098 26.9384 37.2522C26.4527 36.6946 25.7426 36.3838 25.0179 36.2157C24.0464 35.9884 23.0051 35.9903 22.0754 36.3478C21.3342 36.6325 20.696 37.125 20.0121 37.5271C18.8035 38.2386 17.4508 38.6701 16.0535 38.79C14.4992 38.9211 12.7633 38.7171 11.5616 39.707C9.36039 41.5197 10.8933 45.6046 8.84165 47.5824C8.28793 48.1157 7.54867 48.4042 6.91433 48.8385C6.27999 49.2727 5.71267 49.9673 5.81467 50.7289C5.86325 51.0951 6.06336 51.4254 6.29456 51.7139C7.28736 52.9544 8.95433 53.6043 10.531 53.411C12.1076 53.2177 13.5511 52.2054 14.3195 50.8124C14.5138 50.4637 14.6712 50.0819 14.9772 49.8283C15.5902 49.3222 16.4897 49.5272 17.2843 49.5029C19.0514 49.4485 20.6562 47.9341 20.8106 46.1719C20.8767 45.419 20.7484 44.5428 21.2895 44.0143C21.7257 43.5869 22.4076 43.5908 23.0041 43.4597C24.0999 43.2197 24.8974 42.427 25.3977 41.4595C25.627 41.0146 25.6036 40.5172 25.9436 40.1481C26.306 39.742 26.9636 39.9353 27.2871 39.3117Z" fill="#292742"/>
<path d="M27.3165 48.1525C27.2359 48.2953 27.0698 48.3613 26.9153 48.4186C25.3164 49.0073 23.6339 49.6067 21.9475 49.359C21.8843 49.0938 21.8221 48.8276 21.76 48.5624C21.67 48.1777 21.5793 47.793 21.488 47.4083C21.4452 47.2247 21.4015 47.0392 21.3665 46.8527C21.3063 46.5582 21.287 46.2568 21.3092 45.957C21.3195 45.8484 21.339 45.7408 21.3675 45.6355C21.4174 45.4439 21.501 45.2626 21.6143 45.1002C21.6337 45.074 21.6541 45.0478 21.6755 45.0225C21.7715 44.9067 21.8881 44.8095 22.0193 44.7359C22.3059 44.5786 22.6993 44.5115 22.8149 44.2065C22.8597 44.047 22.8553 43.8777 22.8023 43.7208C22.7052 43.3322 22.5293 42.967 22.4205 42.5823C22.2826 42.0966 22.4905 42.1267 22.9597 42.0091C23.8048 41.7964 24.6888 41.6439 25.5563 41.8149C25.5155 42.2433 25.4757 42.6823 25.5835 43.1001C25.6913 43.5178 25.9799 43.9141 26.3947 44.0297C26.4559 44.0472 26.5209 44.0579 26.5889 44.0725C26.679 44.0869 26.7645 44.1222 26.8386 44.1754C26.8897 44.2176 26.9303 44.2712 26.9571 44.3318C26.9993 44.4343 27.0271 44.5422 27.0397 44.6524C27.1919 45.6717 27.3016 46.696 27.369 47.725V47.7639C27.389 47.8958 27.3708 48.0306 27.3165 48.1525V48.1525Z" fill="#FEB8B8"/>
<path d="M19.0846 46.4792C18.7213 47.032 18.5989 47.7042 18.4882 48.357L17.7829 52.4467C17.6858 53.0063 17.5993 53.6212 17.8859 54.1118C17.983 54.2779 18.119 54.4216 18.1899 54.5975C18.2435 54.7744 18.2787 54.9564 18.2948 55.1405C18.46 56.0779 19.3819 56.7103 20.3067 56.9376C20.6408 57.0202 21.0314 57.0523 21.2946 56.8298C21.586 56.5879 21.586 56.1275 21.4141 55.7952C21.2422 55.463 20.9284 55.2279 20.6243 55.0055L19.617 54.2633L20.1998 49.7947C20.2426 49.4703 20.3941 49.0496 20.7224 49.0856C21.0216 49.1176 21.2519 49.5538 21.518 49.413C21.6015 49.3565 21.6602 49.2703 21.6822 49.172C21.7988 48.8058 21.7667 48.4114 21.7337 48.0277L21.6132 46.6424C21.5734 46.1927 21.689 45.8556 21.7434 45.433C21.8066 44.9405 21.4782 45.0901 21.0731 45.196C20.295 45.4019 19.5344 45.7934 19.0846 46.4792Z" fill="#FEB8B8"/>
<path d="M31.6113 53.195C31.5373 53.3195 31.4276 53.419 31.2965 53.4806C30.51 53.924 29.585 54.0541 28.7067 53.8449C28.5043 53.7854 28.2987 53.7374 28.0908 53.7011C27.7586 53.6603 27.4205 53.7264 27.0854 53.7011C26.4054 53.6496 25.808 53.2251 25.3368 52.7297C25.0532 52.4382 24.7957 51.9613 25.06 51.6485C25.1338 51.573 25.2255 51.5174 25.3265 51.4868C25.4275 51.4563 25.5347 51.4517 25.638 51.4736C25.8436 51.5194 26.042 51.5933 26.2276 51.6932C26.8778 51.9946 27.5733 52.1863 28.2861 52.2605C28.7718 52.311 29.3896 52.2284 29.5577 51.767C29.6393 51.5426 29.582 51.2939 29.5246 51.0617C29.3679 50.4258 29.2112 49.7895 29.0545 49.1529C29.0437 49.0973 29.024 49.0438 28.9962 48.9945C28.9882 48.9812 28.9788 48.9688 28.968 48.9576C28.9061 48.906 28.8311 48.8724 28.7514 48.8605C28.389 48.7711 28.0267 48.6264 27.7673 48.3592C27.5973 48.1695 27.4619 47.9516 27.3671 47.7152C27.3399 47.6559 27.3146 47.5957 27.2884 47.5354C27.0893 47.0711 26.8794 46.5951 26.7172 46.1074C26.604 45.7778 26.5204 45.4387 26.4676 45.0942C26.4248 44.796 26.4015 44.659 26.5647 44.5269C26.6085 44.4939 26.6549 44.4647 26.7036 44.4395C26.7784 44.3997 26.8629 44.3598 26.9523 44.322L27.0388 44.286C27.3045 44.1797 27.5775 44.0927 27.8557 44.0257C28.5299 43.8693 29.2497 44.1957 29.7121 44.7115C30.1745 45.2273 30.4145 45.9025 30.568 46.5776C30.7214 47.2528 30.8001 47.9444 30.9925 48.6089C31.0673 48.8692 31.1605 49.1257 31.2246 49.386C31.2934 49.6957 31.3424 50.0095 31.3713 50.3254C31.4626 51.1304 31.5536 51.9354 31.6443 52.7404C31.6778 52.8919 31.6663 53.0499 31.6113 53.195Z" fill="#FEB8B8"/>
<path d="M21.6368 52.8458C21.8311 54.0853 21.2725 55.3045 20.7324 56.4401C21.0384 56.6635 21.4124 56.7742 21.7777 56.8704C24.2224 57.5131 26.7638 57.7043 29.2771 57.4348C29.3373 57.0151 29.3937 56.5702 29.2217 56.1836C29.1149 55.9437 28.9303 55.7484 28.8128 55.5133C28.6185 55.1247 28.6379 54.673 28.6593 54.2417L28.8332 50.5668C27.6276 50.0111 26.2297 50.5318 24.9037 50.6066C24.2169 50.6455 23.5214 50.5619 22.8443 50.6834C22.4926 50.7465 21.3872 50.9204 21.2211 51.2827C21.0549 51.6451 21.5776 52.4514 21.6368 52.8458Z" fill="#FEB8B8"/>
<path d="M24.8307 56.4026C23.5241 56.1306 22.2399 55.6808 20.9061 55.6497C20.8392 55.6429 20.7717 55.6557 20.7118 55.6866C20.6468 55.7405 20.6033 55.816 20.5895 55.8994C20.4515 56.3754 20.3281 56.855 20.2193 57.3381C19.858 58.9438 19.6802 60.7177 20.4748 62.1593C20.467 61.691 20.7614 61.2529 21.1548 60.9936C21.5482 60.7342 22.0194 60.6293 22.4857 60.5865C22.952 60.5438 23.4503 60.5613 23.8845 60.7526C24.188 60.8905 24.4498 61.1059 24.6437 61.377C24.8376 61.6481 24.9567 61.9655 24.989 62.2972L29.5791 62.4458C29.6059 62.4537 29.6343 62.4547 29.6617 62.4488C29.689 62.4429 29.7145 62.4302 29.7357 62.412C29.7569 62.3938 29.7733 62.3705 29.7832 62.3444C29.7932 62.3182 29.7965 62.29 29.7928 62.2622C29.962 60.7898 29.9558 59.3025 29.7743 57.8316C29.7238 57.4206 29.717 56.8504 29.2546 56.696C28.7028 56.5114 27.8305 56.727 27.2408 56.7018C26.4307 56.6677 25.6246 56.5677 24.8307 56.4026V56.4026Z" fill="#292742"/>
<path d="M28.9972 49.2068L28.9827 51.2468L24.3392 51.4012C23.4873 51.4304 22.6285 51.4595 21.798 51.6489C21.559 51.7033 21.3229 51.7713 21.0878 51.8384C20.843 50.9417 20.6021 50.0024 20.6662 49.0883C20.684 48.8417 20.7269 48.5975 20.7945 48.3597C20.9421 47.8468 21.219 47.363 21.3667 46.8559C21.4262 46.6585 21.4588 46.4539 21.4638 46.2478C21.4528 46.0419 21.4202 45.8378 21.3667 45.6387C21.324 45.4754 21.3038 45.3071 21.3064 45.1384L21.6746 45.0248C21.6853 45.0685 21.694 45.1112 21.7018 45.1559C21.7173 45.2482 21.73 45.3424 21.7387 45.4367C21.7595 45.6702 21.766 45.9047 21.7581 46.139C21.7455 46.6072 21.6824 47.1289 21.9748 47.499C22.3546 47.974 23.0851 47.9002 23.6816 47.7817L25.2436 47.4699C25.7371 47.3727 26.2879 47.2348 26.5453 46.8025C26.6552 46.5926 26.7131 46.3594 26.7144 46.1225V46.0759C26.7376 45.5599 26.6862 45.0433 26.5618 44.542C26.524 44.3846 26.4773 44.2292 26.4249 44.0767H26.5813C26.6714 44.0911 26.7568 44.1264 26.8309 44.1796C26.8821 44.2218 26.9226 44.2754 26.9495 44.336L27.0359 44.3001C27.3806 45.709 27.9486 47.0536 28.7184 48.2829C28.8174 48.4236 28.8959 48.5777 28.9516 48.7405C28.9747 48.8288 28.9877 48.9193 28.9904 49.0105C28.9982 49.0679 28.9972 49.1368 28.9972 49.2068Z" fill="#58C490"/>
<path d="M24.0916 43.0317C25.6474 43.0317 26.9087 41.7705 26.9087 40.2146C26.9087 38.6587 25.6474 37.3975 24.0916 37.3975C22.5357 37.3975 21.2744 38.6587 21.2744 40.2146C21.2744 41.7705 22.5357 43.0317 24.0916 43.0317Z" fill="#FEB8B8"/>
<path d="M19.0846 46.479C18.7213 47.0318 18.5989 47.704 18.4882 48.3568L17.7829 52.4465C17.6858 53.0061 17.5993 53.621 17.8859 54.1116C17.983 54.2777 18.119 54.4214 18.1899 54.5973C18.2435 54.7742 18.2787 54.9562 18.2948 55.1403C18.46 56.0777 19.3819 56.7101 20.3067 56.9374C20.6408 57.02 21.0314 57.0521 21.2946 56.8296C21.586 56.5877 21.586 56.1273 21.4141 55.795C21.2422 55.4628 20.9284 55.2277 20.6243 55.0053L19.617 54.2631L20.1998 49.7945C20.2387 49.473 19.5344 45.7932 19.0846 46.479Z" fill="#FEB8B8"/>
<path d="M30.5689 46.5831C30.7224 47.2582 30.8011 47.9499 30.9934 48.6143C31.0682 48.8756 31.1615 49.1311 31.2256 49.3915C31.2944 49.7008 31.3434 50.0143 31.3723 50.3299L31.6453 52.7448C31.6767 52.894 31.6649 53.049 31.6113 53.1917C31.537 53.316 31.4274 53.4154 31.2965 53.4773C30.5096 53.9196 29.5851 54.0497 28.7067 53.8416C28.5045 53.7812 28.2988 53.7332 28.0908 53.6978C27.7586 53.656 27.4205 53.7231 27.0854 53.6978C26.4054 53.6463 25.808 53.2228 25.3368 52.7312C25.0532 52.4398 24.7957 51.9619 25.06 51.6491C25.1338 51.5736 25.2255 51.518 25.3265 51.4874C25.4275 51.4568 25.5347 51.4523 25.638 51.4742C25.8437 51.5204 26.0421 51.5946 26.2276 51.6947C26.878 51.9954 27.5734 52.1867 28.2861 52.2611C28.7718 52.3125 29.3896 52.23 29.5577 51.7676C29.6393 51.5432 29.582 51.2945 29.5246 51.0623L29.0545 49.1535C29.035 49.0874 30.4154 45.9089 30.5689 46.5831Z" fill="#FEB8B8"/>
<path d="M22.3477 41.0821C22.2224 40.6324 22.0466 40.0699 22.3992 39.7649C22.5259 39.6671 22.6786 39.6086 22.8383 39.5968C23.63 39.4997 24.4489 39.966 25.2066 39.7173C25.4483 39.6383 25.662 39.4911 25.8218 39.2933C25.9817 39.0956 26.0809 38.8559 26.1075 38.603C26.1341 38.3501 26.087 38.095 25.9717 37.8683C25.8565 37.6416 25.6782 37.4532 25.4582 37.3256C25.127 37.1313 24.7316 37.0935 24.3498 37.0595C23.3444 36.9672 22.2962 36.8817 21.3559 37.2537C20.4155 37.6258 19.6229 38.5836 19.8171 39.5755C19.9075 40.0485 20.1999 40.4556 20.4971 40.8325C20.7254 41.1191 21.6415 42.4839 22.0097 42.4645C22.5284 42.4353 22.4293 41.3745 22.3477 41.0821Z" fill="#292742"/>
<path d="M66.8341 72.3696H35.1655V82.1811H66.8341V72.3696Z" fill="#292742"/>
<path d="M49.6396 75.54V79.008L52.3596 77.274L49.6396 75.54Z" fill="white"/>
<path d="M25.354 17.3145L23.8464 18.2704L24.7615 16.6063C24.5021 16.3993 24.1811 16.2848 23.8493 16.2809H23.825C23.7203 16.2824 23.6156 16.2746 23.5122 16.2576L23.0012 16.5811L23.2208 16.1828C22.8583 16.0567 22.5453 15.8185 22.3271 15.5028L21.412 16.0857L21.99 15.0355C21.4547 14.3934 20.7339 14 19.9412 14C18.9902 14 18.1431 14.5654 17.5962 15.4465C17.4345 15.711 17.2053 15.9278 16.9322 16.0746C16.6591 16.2214 16.3518 16.293 16.0419 16.2819H15.9904C14.9403 16.2819 14.0894 17.4719 14.0894 18.9407C14.0894 20.4095 14.9403 21.5995 15.9904 21.5995C16.2215 21.5984 16.4488 21.5414 16.653 21.4334C17.0102 21.2595 17.401 21.1654 17.7982 21.1577C18.1954 21.15 18.5896 21.2288 18.9533 21.3887C19.261 21.5264 19.5944 21.5975 19.9315 21.5975C20.2687 21.5975 20.602 21.5264 20.9098 21.3887C21.2709 21.2321 21.6615 21.1551 22.0551 21.1628C22.4486 21.1705 22.8359 21.2628 23.1907 21.4334C23.3928 21.5391 23.6173 21.5948 23.8454 21.5956C24.8955 21.5956 25.7465 20.4046 25.7465 18.9368C25.7537 18.3717 25.6187 17.8138 25.354 17.3145V17.3145Z" fill="#BAE9DF"/>
<path d="M76.937 38.981L76.1851 39.458L76.6417 38.6274C76.5123 38.5244 76.3524 38.4673 76.1871 38.4652H76.1744C76.1224 38.4661 76.0704 38.4625 76.019 38.4545L75.7596 38.6177L75.8694 38.4186C75.6887 38.3559 75.5326 38.2375 75.4235 38.0805L74.9669 38.3719L75.2584 37.8483C75.137 37.6918 74.9824 37.5642 74.8056 37.4748C74.6289 37.3854 74.4344 37.3365 74.2364 37.3315C73.7624 37.3315 73.3398 37.6133 73.0707 38.0533C72.9897 38.1854 72.8751 38.2936 72.7385 38.3668C72.602 38.4401 72.4484 38.4757 72.2936 38.4701H72.2683C71.7447 38.4701 71.3202 39.0646 71.3202 39.7961C71.3202 40.5275 71.7447 41.123 72.2683 41.123C72.3834 41.1225 72.4968 41.0942 72.5986 41.0405C72.7767 40.9537 72.9716 40.9067 73.1697 40.9027C73.3677 40.8986 73.5643 40.9377 73.7459 41.0171C73.8985 41.0862 74.064 41.1223 74.2316 41.123C74.3988 41.1224 74.5642 41.0874 74.7173 41.0201C74.8974 40.942 75.0921 40.9035 75.2884 40.9071C75.4846 40.9108 75.6778 40.9566 75.8548 41.0414C75.9555 41.0945 76.0674 41.1225 76.1812 41.123C76.7048 41.123 77.1293 40.5285 77.1293 39.7961C77.135 39.5125 77.0689 39.2321 76.937 38.981V38.981Z" fill="#BAE9DF"/>
<path d="M78.6009 26.5944L79.8084 27.3608L79.074 26.027C79.2818 25.8616 79.5389 25.77 79.8045 25.7667H79.8239C79.9079 25.768 79.9917 25.7618 80.0746 25.7482L80.4845 26.0076L80.3087 25.689C80.5985 25.5873 80.849 25.397 81.0246 25.145L81.758 25.6093L81.2947 24.7681C81.7231 24.2532 82.3011 23.9385 82.9364 23.9385C83.699 23.9385 84.377 24.3912 84.8151 25.0974C84.9447 25.3087 85.1279 25.482 85.3461 25.5995C85.5644 25.7171 85.8098 25.7748 86.0576 25.7667H86.0984C86.9396 25.7667 87.6216 26.7206 87.6216 27.897C87.6216 29.0734 86.9416 30.0274 86.0984 30.0274C85.9134 30.0264 85.7315 29.9808 85.568 29.8943C85.2814 29.7546 84.9678 29.679 84.6491 29.6728C84.3303 29.6666 84.0141 29.7299 83.7223 29.8584C83.4758 29.9685 83.2088 30.0254 82.9388 30.0254C82.6688 30.0254 82.4019 29.9685 82.1554 29.8584C81.8661 29.7327 81.5532 29.6708 81.2379 29.6769C80.9226 29.6829 80.6123 29.7567 80.3281 29.8933C80.1657 29.9779 79.9856 30.0225 79.8026 30.0235C78.9613 30.0235 78.2794 29.0696 78.2794 27.8932C78.2763 27.4402 78.3868 26.9936 78.6009 26.5944V26.5944Z" fill="#BAE9DF"/>
</svg>
