<svg width="598" height="123" viewBox="0 0 598 123" fill="none" xmlns="http://www.w3.org/2000/svg">
<path d="M598 0V103.892C598 114.445 589.936 123 579.989 123H0C36.7365 64.523 117.144 63.5757 157.789 64.083C168.701 64.2192 179.877 65.4038 191.299 66.6146C224.391 70.1224 259.554 73.8496 296.375 52.9365C386.121 1.96407 497.815 11.3602 598 0Z" fill="#CAEDE1"/>
<path d="M598 17V105C598 114.941 589.941 123 580 123H139.223C174.365 74.7331 221.303 65.9819 244.427 83.5C277.427 108.5 354.427 126.5 388.927 75.5C423.427 24.5 486.927 17 536.427 17H598Z" fill="#21C58E"/>
</svg>
