<svg width="124" height="154" viewBox="0 0 124 154" fill="none" xmlns="http://www.w3.org/2000/svg">
<path fill-rule="evenodd" clip-rule="evenodd" d="M116 5C116 6.65685 117.343 8 119 8C120.657 8 122 6.65685 122 5C122 3.34315 120.657 2 119 2C117.343 2 116 3.34315 116 5ZM114 5C114 7.76142 116.239 10 119 10C121.761 10 124 7.76142 124 5C124 2.23858 121.761 0 119 0C116.239 0 114 2.23858 114 5ZM78 5C78 6.65685 79.3431 8 81 8C82.6569 8 84 6.65685 84 5C84 3.34315 82.6569 2 81 2C79.3431 2 78 3.34315 78 5ZM76 5C76 7.76142 78.2386 10 81 10C83.7614 10 86 7.76142 86 5C86 2.23858 83.7614 0 81 0C78.2386 0 76 2.23858 76 5ZM40 5C40 6.65685 41.3431 8 43 8C44.6569 8 46 6.65685 46 5C46 3.34315 44.6569 2 43 2C41.3431 2 40 3.34315 40 5ZM38 5C38 7.76142 40.2386 10 43 10C45.7614 10 48 7.76142 48 5C48 2.23858 45.7614 0 43 0C40.2386 0 38 2.23858 38 5ZM2 41C2 42.6569 3.34315 44 5 44C6.65685 44 8 42.6569 8 41C8 39.3431 6.65685 38 5 38C3.34315 38 2 39.3431 2 41ZM0 41C0 43.7614 2.23858 46 5 46C7.76142 46 10 43.7614 10 41C10 38.2386 7.76142 36 5 36C2.23858 36 0 38.2386 0 41ZM2 113C2 114.657 3.34315 116 5 116C6.65685 116 8 114.657 8 113C8 111.343 6.65685 110 5 110C3.34315 110 2 111.343 2 113ZM0 113C0 115.761 2.23858 118 5 118C7.76142 118 10 115.761 10 113C10 110.239 7.76142 108 5 108C2.23858 108 0 110.239 0 113ZM5 152C3.34315 152 2 150.657 2 149C2 147.343 3.34315 146 5 146C6.65685 146 8 147.343 8 149C8 150.657 6.65685 152 5 152ZM5 154C2.23858 154 0 151.761 0 149C0 146.239 2.23858 144 5 144C7.76142 144 10 146.239 10 149C10 151.761 7.76142 154 5 154ZM43 44C41.3431 44 40 42.6569 40 41C40 39.3431 41.3431 38 43 38C44.6569 38 46 39.3431 46 41C46 42.6569 44.6569 44 43 44ZM43 46C40.2386 46 38 43.7614 38 41C38 38.2386 40.2386 36 43 36C45.7614 36 48 38.2386 48 41C48 43.7614 45.7614 46 43 46ZM40 77C40 78.6569 41.3431 80 43 80C44.6569 80 46 78.6569 46 77C46 75.3431 44.6569 74 43 74C41.3431 74 40 75.3431 40 77ZM38 77C38 79.7614 40.2386 82 43 82C45.7614 82 48 79.7614 48 77C48 74.2386 45.7614 72 43 72C40.2386 72 38 74.2386 38 77ZM43 116C41.3431 116 40 114.657 40 113C40 111.343 41.3431 110 43 110C44.6569 110 46 111.343 46 113C46 114.657 44.6569 116 43 116ZM43 118C40.2386 118 38 115.761 38 113C38 110.239 40.2386 108 43 108C45.7614 108 48 110.239 48 113C48 115.761 45.7614 118 43 118ZM81 80C79.3431 80 78 78.6569 78 77C78 75.3431 79.3431 74 81 74C82.6569 74 84 75.3431 84 77C84 78.6569 82.6569 80 81 80ZM81 82C78.2386 82 76 79.7614 76 77C76 74.2386 78.2386 72 81 72C83.7614 72 86 74.2386 86 77C86 79.7614 83.7614 82 81 82ZM78 113C78 114.657 79.3431 116 81 116C82.6569 116 84 114.657 84 113C84 111.343 82.6569 110 81 110C79.3431 110 78 111.343 78 113ZM76 113C76 115.761 78.2386 118 81 118C83.7614 118 86 115.761 86 113C86 110.239 83.7614 108 81 108C78.2386 108 76 110.239 76 113ZM81 152C79.3431 152 78 150.657 78 149C78 147.343 79.3431 146 81 146C82.6569 146 84 147.343 84 149C84 150.657 82.6569 152 81 152ZM81 154C78.2386 154 76 151.761 76 149C76 146.239 78.2386 144 81 144C83.7614 144 86 146.239 86 149C86 151.761 83.7614 154 81 154ZM119 44C117.343 44 116 42.6569 116 41C116 39.3431 117.343 38 119 38C120.657 38 122 39.3431 122 41C122 42.6569 120.657 44 119 44ZM119 46C116.239 46 114 43.7614 114 41C114 38.2386 116.239 36 119 36C121.761 36 124 38.2386 124 41C124 43.7614 121.761 46 119 46ZM116 77C116 78.6569 117.343 80 119 80C120.657 80 122 78.6569 122 77C122 75.3431 120.657 74 119 74C117.343 74 116 75.3431 116 77ZM114 77C114 79.7614 116.239 82 119 82C121.761 82 124 79.7614 124 77C124 74.2386 121.761 72 119 72C116.239 72 114 74.2386 114 77ZM119 116C117.343 116 116 114.657 116 113C116 111.343 117.343 110 119 110C120.657 110 122 111.343 122 113C122 114.657 120.657 116 119 116ZM119 118C116.239 118 114 115.761 114 113C114 110.239 116.239 108 119 108C121.761 108 124 110.239 124 113C124 115.761 121.761 118 119 118ZM116 149C116 150.657 117.343 152 119 152C120.657 152 122 150.657 122 149C122 147.343 120.657 146 119 146C117.343 146 116 147.343 116 149ZM114 149C114 151.761 116.239 154 119 154C121.761 154 124 151.761 124 149C124 146.239 121.761 144 119 144C116.239 144 114 146.239 114 149Z" fill="#BFBEC6"/>
<path fill-rule="evenodd" clip-rule="evenodd" d="M2 5C2 6.65685 3.34315 8 5 8C6.65685 8 8 6.65685 8 5C8 3.34315 6.65685 2 5 2C3.34315 2 2 3.34315 2 5ZM0 5C0 7.76142 2.23858 10 5 10C7.76142 10 10 7.76142 10 5C10 2.23858 7.76142 0 5 0C2.23858 0 0 2.23858 0 5ZM2 77C2 78.6569 3.34315 80 5 80C6.65685 80 8 78.6569 8 77C8 75.3431 6.65685 74 5 74C3.34315 74 2 75.3431 2 77ZM0 77C0 79.7614 2.23858 82 5 82C7.76142 82 10 79.7614 10 77C10 74.2386 7.76142 72 5 72C2.23858 72 0 74.2386 0 77ZM43 152C41.3431 152 40 150.657 40 149C40 147.343 41.3431 146 43 146C44.6569 146 46 147.343 46 149C46 150.657 44.6569 152 43 152ZM43 154C40.2386 154 38 151.761 38 149C38 146.239 40.2386 144 43 144C45.7614 144 48 146.239 48 149C48 151.761 45.7614 154 43 154ZM78 41C78 42.6569 79.3431 44 81 44C82.6569 44 84 42.6569 84 41C84 39.3431 82.6569 38 81 38C79.3431 38 78 39.3431 78 41ZM76 41C76 43.7614 78.2386 46 81 46C83.7614 46 86 43.7614 86 41C86 38.2386 83.7614 36 81 36C78.2386 36 76 38.2386 76 41Z" fill="#072E75"/>
</svg>
