<svg width="404" height="106" viewBox="0 0 404 106" fill="none" xmlns="http://www.w3.org/2000/svg">
<path d="M403.847 106H66.8672C88.0611 88.4203 121.083 61.9074 136.5 53C159 40 168 40 193.5 40C219 40 234.5 40 257.5 56C268.5 63.5 279 70 307 70C310.127 70 313.228 69.9127 316.339 69.8252C339.985 69.1597 364.161 68.4794 403.847 106Z" fill="#CAEDE1"/>
<path d="M340.304 106H18C8.05887 106 0 97.9411 0 88V0.57649C15.9763 -1.41739 41.4846 0.982193 64.6269 20.3203C97.4908 47.7819 102.386 47.6802 134.057 47.0225C137.561 46.9497 141.393 46.8701 145.627 46.8203C183.114 46.3793 185.98 48.6613 202.604 61.9015C204.827 63.672 207.296 65.6383 210.127 67.8203C231.346 84.1764 238.104 84.1177 264.955 83.8845C268.474 83.8539 272.339 83.8203 276.627 83.8203C297.68 83.8203 319.703 91.4285 340.304 106Z" fill="#21C58E"/>
</svg>
