<svg width="58" height="70" viewBox="0 0 58 70" fill="none" xmlns="http://www.w3.org/2000/svg">
<path d="M35.5375 19.3286C34.7046 20.8094 33.4938 21.7965 32.9925 22.105C30.2162 24.4186 27.4398 23.4932 25.1262 22.2207C23.391 21.2664 21.8872 18.9817 21.4244 17.5935C21.2339 17.022 21.1219 16.4113 21.0559 15.8583C20.9617 15.0679 20.9617 14.3953 20.9617 14.1231V14.1231C20.9617 13.6603 20.7304 13.1976 21.3088 12.8506C22.2342 12.0409 21.7715 11.8094 22.0028 9.6115C22.2342 7.41356 23.8537 6.83511 25.1262 6.6038C26.3987 6.37249 28.0183 6.95084 28.7123 7.5292C29.7535 6.60375 31.4887 5.79398 33.6866 6.83511C35.8846 7.87624 35.8846 10.0742 35.8846 10.8839C35.8846 11.6937 35.7689 12.2721 36.2316 12.6192C36.6943 12.9662 36.81 13.3132 36.81 13.6603V15.9739C36.81 17.015 36.5786 17.4778 35.5375 19.3286Z" fill="#FDB09A"/>
<path opacity="0.3" d="M28.7963 7.48696C29.8374 6.56151 31.5727 5.75175 33.7706 6.79287C34.6936 7.23011 35.229 7.87136 35.5396 8.52814C34.6415 7.98829 32.2205 7.32506 29.7218 8.99086C27.6395 8.06541 24.2848 7.94973 23.475 10.379C22.6652 12.8083 22.9538 18.1297 24.7475 19.9805C26.9454 22.2486 29.3747 23.9137 33.0765 22.0628C30.3002 24.3763 27.5238 23.451 25.2102 22.1785C23.475 21.2241 21.9711 18.9394 21.5084 17.5512C21.3179 16.9798 21.2059 16.3691 21.1399 15.816C21.0457 15.0257 21.0457 14.3531 21.0457 14.0808V14.0808C21.0457 13.6181 20.8143 13.1554 21.3927 12.8083C22.3182 11.9986 21.8555 11.7672 22.0868 9.56927C22.3182 7.37133 23.9377 6.79287 25.2102 6.56156C26.4827 6.33025 28.1022 6.9086 28.7963 7.48696Z" fill="#E5846F"/>
<path d="M17.9542 34.5986C17.3758 35.0613 17.3758 35.524 17.3758 35.9867C17.4924 38.26 17.4915 39.5934 17.3287 40.8453C17.383 41.8093 17.6303 44.2695 18.1856 46.398C18.8797 49.0587 18.8797 49.8684 18.3013 52.1821C17.8386 54.033 17.6458 55.6525 17.6072 56.2309H40.0493C39.8179 54.997 39.3089 52.2283 39.1238 51.0253C38.8925 49.5214 38.7768 49.29 39.2395 47.2078C39.5417 45.8482 40.0411 43.7981 40.2225 40.961C40.319 39.453 40.3256 37.7226 40.165 35.7554C40.165 35.177 39.5866 34.8299 39.2395 34.1358C38.8925 33.4418 37.1573 30.7811 37.5043 24.0716C36.4863 23.6089 34.0725 22.5677 32.9928 22.105C33.0699 22.5292 33.2935 23.8171 33.5712 25.5755C33.9182 27.7734 34.0339 30.4341 31.0262 31.8222C28.0185 33.2104 25.8205 31.8222 24.4324 29.9713C23.0442 28.1204 23.9697 25.4598 24.201 24.303C24.3861 23.3775 24.5866 22.4977 24.6637 22.1734C24.264 22.3999 23.3324 22.8464 22.0031 23.2618C21.5253 23.4111 21.0168 23.599 20.4992 23.8035C20.6149 30.5918 18.5327 34.1358 17.9542 34.5986Z" fill="#21C58E"/>
<path d="M40.049 56.2312H17.6069C17.4527 57.6194 17.283 61.0203 17.8383 63.519C18.5324 66.6424 31.0259 63.519 35.6532 63.519C40.2804 63.519 40.2804 59.3546 40.049 56.2312Z" fill="#292742"/>
<path d="M43.9824 69.8812C36.5788 69.8812 32.7228 68.9557 31.7202 68.493L35.6534 60.511C36.039 60.4724 38.1058 60.3722 43.2883 60.2797C49.7664 60.164 53.3525 60.9738 54.8564 61.6678C56.3602 62.3619 57.8641 64.7912 56.4759 67.5676C55.0878 70.3439 53.2369 69.8812 43.9824 69.8812Z" fill="#292742"/>
<path d="M31.7202 68.4928L35.6534 60.5108C35.9249 60.4837 37.0304 60.4259 39.4708 60.3618L35.1906 69.3221C33.3311 69.041 32.1995 68.7141 31.7202 68.4928Z" fill="#F76785"/>
<path d="M31.7201 68.493L35.6532 60.511C34.6892 60.5607 31.7201 60.6302 27.5556 60.511C22.3499 60.362 20.6147 59.7014 19.1109 58.8916C17.607 58.0818 16.6816 57.0407 14.5993 57.7348C12.517 58.4289 12.7484 58.1976 12.0543 57.9662C11.3602 57.7348 10.3191 57.7348 9.62503 59.3544C8.93094 60.9739 10.3191 62.2464 13.2111 63.4032C16.1032 64.56 22.0029 65.2541 25.242 66.2952C27.8332 67.1281 30.6404 68.1075 31.7201 68.493Z" fill="#E5846F"/>
<path d="M33.5714 25.5757C33.2937 23.8173 33.0701 22.5294 32.993 22.1052C30.2166 24.4188 27.4403 23.4934 25.1267 22.2209C24.999 22.1506 24.8726 22.0732 24.7477 21.9895L24.6639 22.1736C24.5868 22.4979 24.3863 23.3777 24.2012 24.3032C23.9698 25.46 23.0444 28.1206 24.4326 29.9715C25.8207 31.8224 28.0187 33.2106 31.0264 31.8224C34.0341 30.4343 33.9184 27.7736 33.5714 25.5757Z" fill="#FDB09A"/>
<path opacity="0.3" d="M24.5165 29.9293C25.9047 31.7802 28.1027 33.1684 31.1104 31.7802C31.5104 31.5956 31.8552 31.3884 32.1515 31.1629C25.0256 31.2243 25.4034 25.6179 26.4831 22.807C26.0461 22.6192 25.6211 22.4044 25.2106 22.1786C25.083 22.1084 24.9566 22.031 24.8317 21.9473L24.7479 22.1314C24.6708 22.4556 24.4703 23.3355 24.2852 24.2609C24.0538 25.4177 23.1284 28.0784 24.5165 29.9293Z" fill="#E5846F"/>
<path d="M39.2393 34.136C39.5864 34.8301 40.1648 35.1771 40.1648 35.7555C40.3254 37.7228 40.3188 39.4532 40.2223 40.9612C40.3188 41.6553 40.6275 43.483 41.0902 45.2414C41.6686 47.4393 43.7509 50.3313 45.6018 53.1077C47.4527 55.884 50.1133 58.5447 52.1956 62.3621C54.2779 66.1796 54.7406 66.6423 56.2444 65.9483C57.7483 65.2542 57.6326 63.7503 57.0542 62.8249C56.4758 61.8994 56.5915 61.7837 57.2856 61.0897C57.9796 60.3956 57.2856 59.0074 55.8974 59.4701C54.5092 59.9328 54.5092 59.4701 54.2779 58.8917C53.5838 56.8095 50.9231 51.1411 50.1133 49.8686C49.3036 48.5961 49.3036 48.3648 49.0722 44.663C48.8409 40.9612 46.7586 38.1848 46.1802 37.1437C45.6018 36.1026 45.7175 35.6399 45.7175 32.6322C45.7175 29.6245 44.445 27.4265 42.4784 26.154C40.9051 25.136 38.5067 24.3417 37.5041 24.0718C37.1571 30.7813 38.8923 33.4419 39.2393 34.136Z" fill="#FDB09A"/>
<path d="M12.0545 31.5914C12.2859 27.6582 14.8309 25.923 16.3347 25.4603C17.4504 25.117 19.0117 24.3917 20.4992 23.804C20.6149 30.5923 18.5326 34.1363 17.9542 34.5991C17.3758 35.0618 17.3758 35.5245 17.3758 35.9872C17.4924 38.2605 17.4915 39.5939 17.3287 40.8458C17.1707 42.0608 16.8603 43.1989 16.3568 45.0448L16.3347 45.126C15.2936 48.9435 11.5918 53.455 9.27817 56.6941C6.96455 59.9332 5.4607 62.3625 4.18821 64.4447C2.91572 66.527 2.22163 66.7584 0.949143 65.6015C-0.323347 64.4447 -0.0919855 63.4036 0.717781 62.4782C1.52755 61.5527 0.833468 61.2057 0.139382 60.1645C-0.554703 59.1234 1.52755 59.4705 2.33732 59.7018C3.14709 59.9332 3.0314 59.8175 3.37845 58.7764C4.18821 56.1157 5.92343 52.0669 7.19592 49.8689C8.46841 47.671 8.23705 47.5553 8.69977 43.6222C9.06995 40.4757 10.9363 37.3754 11.8232 36.2186C11.8232 35.9872 11.8694 34.7379 12.0545 31.5914Z" fill="#FDB09A"/>
<path d="M36.8103 13.6606V15.9742C37.3116 14.9716 38.2678 12.4574 38.0828 10.4214C37.8514 7.87647 37.273 5.44726 34.6123 2.55524C31.9517 -0.336786 28.944 -0.105424 26.2833 0.125937C23.6226 0.357299 23.0442 2.09251 22.8129 3.24932C20.7306 4.86885 19.4581 7.6452 19.4581 10.6529C19.4581 13.0591 20.5235 15.1259 21.0562 15.8585C20.962 15.0682 20.962 14.3956 20.962 14.1233V14.1233C20.962 13.6606 20.7306 13.1979 21.309 12.8508C22.2345 12.0411 21.7718 11.8097 22.0031 9.61177C22.2345 7.41383 23.854 6.83538 25.1265 6.60407C26.399 6.37276 28.0185 6.95111 28.7126 7.52946C29.7537 6.60402 31.4889 5.79425 33.6869 6.83538C35.8848 7.87651 35.8848 10.0744 35.8848 10.8842C35.8848 11.694 35.7691 12.2724 36.2319 12.6194C36.6946 12.9665 36.8103 13.3135 36.8103 13.6606Z" fill="#542B2B"/>
<path d="M38.7767 14.3548C39.3529 12.7815 38.5367 12.0026 38.0565 11.8098C37.8787 13.4097 37.2629 15.0326 36.8668 15.8587C37.6174 15.7431 38.314 15.3959 38.7767 14.3548Z" fill="#EEA0A0"/>
<path d="M19.5226 11.6941C19.7612 13.6408 20.6021 15.2343 21.0561 15.8587C20.3406 15.8587 18.9953 15.5116 18.7639 13.892C18.5789 12.5964 19.1926 11.8869 19.5226 11.6941Z" fill="#EEA0A0"/>
<path d="M10.6663 59.7017C15.2935 58.8688 20.6148 58.892 22.6971 59.0077C23.4683 60.5887 25.3115 64.3522 26.5146 66.7583C20.4992 69.419 15.8719 69.8817 8.46836 69.9974C1.06478 70.1131 -0.323392 66.874 0.486375 64.4447C1.29614 62.0154 4.88225 60.7429 10.6663 59.7017Z" fill="#292742"/>
<path d="M22.6972 59.0077C23.4684 60.5887 25.3116 64.3522 26.5147 66.7583C25.478 67.2169 24.4825 67.6101 23.507 67.9476L18.8798 58.9624C20.5044 58.9297 21.8616 58.9612 22.6972 59.0077Z" fill="#F76785"/>
<path d="M22.6971 59.0072C23.4683 60.5882 25.3115 64.3517 26.5146 66.7579C28.7125 65.7168 33.5711 63.7734 34.9593 63.4032C36.6945 62.9405 41.9002 62.2464 45.0235 61.5523C48.1469 60.8583 48.494 59.9328 46.9901 59.0074C45.4863 58.0819 42.7099 57.6192 40.9747 58.3133C39.2395 59.0074 38.8925 59.3543 36.0004 58.0818C33.1084 56.8093 32.2986 58.5445 31.9516 59.1229C31.6046 59.7013 31.7202 59.7013 31.3732 59.7013C31.0956 59.7013 25.4735 59.2386 22.6971 59.0072Z" fill="#FDB09A"/>
</svg>
