<svg width="752" height="411" viewBox="0 0 752 411" fill="none" xmlns="http://www.w3.org/2000/svg">
<path d="M122 0H752V411H0L122 0Z" fill="#F1FBFF"/>
<path d="M142 278L74 366.5H580.5L512.5 278H142Z" fill="#A2D3FE"/>
<ellipse cx="326.5" cy="325" rx="142.5" ry="17" fill="#79AEDD"/>
<path d="M332.213 71.5251C330.021 81.9522 338.991 92.5412 344.373 92.0536C343.091 108.415 313.925 107.148 299.524 97.3743C311.013 90.4244 311.338 85.0477 311.338 71.5251H332.213Z" fill="#FBA489"/>
<path d="M332.214 71.5251H311.339C311.339 74.9996 311.317 77.9362 311.09 80.5C315.394 86.4396 326.9 96.5369 338.5 89.4094C334.343 85.6812 330.733 78.5662 332.214 71.5251Z" fill="#E88A6D"/>
<path d="M323.332 85.8611C308.686 85.8611 302.708 75.015 303.917 47.1093C304.456 34.665 339.383 32.1027 340.532 57.5228C341.759 84.6823 330.314 85.8611 323.332 85.8611Z" fill="#FBA489"/>
<path d="M304.052 63.7545L305.03 69.6465C305.03 71.4516 305.726 71.0004 306.236 70.6994C308.873 69.1433 310.415 56.8598 309.526 52.0213C309.332 50.9681 309.676 50.6674 309.978 50.8176C312.389 52.0213 320.324 50.7174 323.99 49.9152C331.222 48.4108 334.537 51.5698 336.044 52.623C337.249 53.525 337.249 54.2769 337.249 54.5782L339.533 68.4175C339.533 71.2758 340.436 69.7714 340.437 68.4175C340.437 66.3117 340.363 59.0911 341.468 55.7816C342.975 51.2691 344.888 45.1014 344.482 42.6946C342.673 31.9844 332.578 29.3939 328.962 31.8642C324.382 34.9928 317.21 34.9493 314.197 34.7221C307.808 34.241 304.553 38.4828 304.253 40.5889C303.973 42.5444 301.504 46.9068 300.486 49.0125C298.376 53.3749 300.536 59.0412 301.792 61.1972C302.244 61.9736 302.294 62.2501 302.696 62.2501C304.052 62.2501 304.052 63.1528 304.052 63.7545Z" fill="#292742"/>
<path d="M341.469 55.7829C342.976 51.27 344.888 45.1026 344.482 42.6959C343.564 37.2567 340.509 33.912 337.25 32.2603C322.785 35.3443 316.107 46.2186 314.576 51.27C317.798 51.1049 321.716 50.414 323.991 49.9165C331.223 48.4121 334.538 51.5711 336.044 52.6239C337.249 53.5263 337.25 54.2781 337.25 54.5791L339.533 68.4187C339.533 71.2767 340.437 69.7726 340.437 68.4187C340.437 66.3126 340.364 59.0924 341.469 55.7829Z" fill="#161528"/>
<path d="M337.25 54.5787V54.579C337.25 52.1723 338.656 48.7626 339.359 47.3587C340.323 45.3129 338.656 44.5004 337.702 44.3499C334.688 43.7482 327.306 47.8099 323.991 49.916C331.223 48.4116 334.538 51.5706 336.045 52.6234C337.249 53.5258 337.25 54.2776 337.25 54.5787Z" fill="#292742"/>
<path d="M342.03 91.7291C330.679 110.759 311.533 101.613 303.379 94.6616C273.893 99.6146 258.693 110.465 258.693 112.257C254.671 136.479 244.24 194.859 249.561 226.466C253.294 248.64 295.585 253.348 316.915 253.348H397.676C423.28 240.967 408.406 123.499 404.818 114.701C401.23 105.903 357.523 94.6616 342.03 91.7291Z" fill="#21C58E"/>
<path d="M316.915 259.768C295.585 259.768 253.294 255.06 249.561 232.886C248.851 228.672 248.422 223.982 248.22 218.962C261.077 216.168 295.503 217.036 330.348 242.858C340.611 233.937 371.178 217.773 411.344 224.49C409.635 242.08 405.589 255.942 397.676 259.768H316.915Z" fill="#0E996A"/>
<path d="M342.03 91.7291C328.854 109.992 311.533 101.613 303.379 94.6616C302.227 94.8553 301.096 95.0575 299.988 95.2683C309.501 104.512 332.468 114.864 344.51 92.2203C343.621 92.0373 342.791 91.8732 342.03 91.7291Z" fill="white"/>
<path d="M248.333 194.427C287.275 197.962 312.743 184.702 316.826 181.031L313.73 162.916C312.55 162.916 300.699 162.695 292.739 161.812C275.048 159.602 280.073 150.103 283.611 145.022H253.441C251.178 160.549 249.046 178.197 248.333 194.427Z" fill="#0E996A"/>
<path d="M347.459 161.31C348.638 161.31 360.162 163.37 368.122 162.486C380.744 160.909 385.851 155.618 383.279 150.87H417.271L411.727 196.067C389.863 197.028 360.981 187.259 344.364 179.432L347.459 161.31Z" fill="#0E996A"/>
<path d="M356.802 131.138C356.802 132.038 356.072 132.768 355.171 132.768C354.27 132.768 353.54 132.038 353.54 131.138C353.54 130.238 354.27 129.509 355.171 129.509C356.072 129.509 356.802 130.238 356.802 131.138Z" fill="#5BEBBB"/>
<path d="M353.54 215.532C353.54 216.432 352.81 217.162 351.909 217.162C351.008 217.162 350.278 216.432 350.278 215.532C350.278 214.633 351.008 213.903 351.909 213.903C352.81 213.903 353.54 214.633 353.54 215.532Z" fill="#5BEBBB"/>
<path d="M291.021 213.375C291.021 214.274 290.291 215.004 289.391 215.004C288.49 215.004 287.76 214.274 287.76 213.375C287.76 212.475 288.49 211.745 289.391 211.745C290.291 211.745 291.021 212.475 291.021 213.375Z" fill="#5BEBBB"/>
<path d="M332.003 194.197C332.003 195.097 331.273 195.827 330.373 195.827C329.472 195.827 328.742 195.097 328.742 194.197C328.742 193.298 329.472 192.568 330.373 192.568C331.273 192.568 332.003 193.298 332.003 194.197Z" fill="#5BEBBB"/>
<path d="M327.553 231.296C327.553 232.196 326.823 232.925 325.922 232.925C325.021 232.925 324.291 232.196 324.291 231.296C324.291 230.396 325.021 229.667 325.922 229.667C326.823 229.667 327.553 230.396 327.553 231.296Z" fill="#5BEBBB"/>
<path d="M311.79 227.915C311.79 228.815 311.059 229.544 310.159 229.544C309.258 229.544 308.528 228.815 308.528 227.915C308.528 227.015 309.258 226.286 310.159 226.286C311.059 226.286 311.79 227.015 311.79 227.915Z" fill="#5BEBBB"/>
<path d="M402.246 204.902C402.246 205.802 401.516 206.532 400.615 206.532C399.714 206.532 398.984 205.802 398.984 204.902C398.984 204.003 399.714 203.273 400.615 203.273C401.516 203.273 402.246 204.003 402.246 204.902Z" fill="#5BEBBB"/>
<path d="M314.725 149.386C314.725 150.286 313.995 151.015 313.094 151.015C312.194 151.015 311.463 150.286 311.463 149.386C311.463 148.487 312.194 147.757 313.094 147.757C313.995 147.757 314.725 148.487 314.725 149.386Z" fill="#5BEBBB"/>
<path d="M330.381 174.15C330.381 175.05 329.651 175.78 328.75 175.78C327.85 175.78 327.12 175.05 327.12 174.15C327.12 173.251 327.85 172.521 328.75 172.521C329.651 172.521 330.381 173.251 330.381 174.15Z" fill="#5BEBBB"/>
<path d="M347.343 116.802C347.343 117.702 346.613 118.431 345.712 118.431C344.811 118.431 344.081 117.702 344.081 116.802C344.081 115.902 344.811 115.173 345.712 115.173C346.613 115.173 347.343 115.902 347.343 116.802Z" fill="#5BEBBB"/>
<path d="M269.168 197.408C269.168 198.307 268.438 199.037 267.537 199.037C266.636 199.037 265.906 198.307 265.906 197.408C265.906 196.508 266.636 195.778 267.537 195.778C268.438 195.778 269.168 196.508 269.168 197.408Z" fill="#5BEBBB"/>
<path d="M354.982 119.469C352.108 113.061 347.796 98.1614 358.741 98.6956C419.553 101.663 439.153 146.225 440.863 167.972C438.21 207.984 373.032 188.698 344.363 175.194L347.458 157.073C348.637 157.073 360.162 159.133 368.121 158.249C385.809 156.039 377.85 146.536 374.312 141.453C370.774 136.37 357.856 125.878 354.982 119.469Z" fill="#21C58E"/>
<path opacity="0.3" d="M354.982 119.469C357.856 125.878 370.774 136.37 374.312 141.453C377.85 146.536 385.809 156.039 368.121 158.249C363.72 158.738 358.229 158.326 354 157.861" stroke="#0E996A" stroke-linecap="round"/>
<path d="M344.363 175.195L347.459 157.073C347.916 157.073 349.93 157.384 352.689 157.711L349.318 177.426C347.57 176.672 345.913 175.925 344.363 175.195Z" fill="white"/>
<path d="M344.84 174.35C346.167 169.49 347.516 158.765 347.516 157.351C342.842 153.729 328.88 148.66 328.88 159.666C328.88 171.234 340.943 173.275 344.84 174.35Z" fill="#FBA489"/>
<path d="M395.941 132.768C395.941 133.668 395.211 134.397 394.311 134.397C393.41 134.397 392.68 133.668 392.68 132.768C392.68 131.868 393.41 131.139 394.311 131.139C395.211 131.139 395.941 131.868 395.941 132.768Z" fill="#5BEBBB"/>
<path d="M373.435 166.655C373.435 167.555 372.705 168.284 371.804 168.284C370.903 168.284 370.173 167.555 370.173 166.655C370.173 165.755 370.903 165.026 371.804 165.026C372.705 165.026 373.435 165.755 373.435 166.655Z" fill="#5BEBBB"/>
<path d="M421.709 175.127C421.709 176.027 420.98 176.756 420.077 176.756C419.178 176.756 418.449 176.027 418.449 175.127C418.449 174.227 419.178 173.498 420.077 173.498C420.98 173.498 421.709 174.227 421.709 175.127Z" fill="#5BEBBB"/>
<path d="M388.766 185.554C388.766 186.454 388.036 187.183 387.135 187.183C386.234 187.183 385.504 186.454 385.504 185.554C385.504 184.654 386.234 183.925 387.135 183.925C388.036 183.925 388.766 184.654 388.766 185.554Z" fill="#5BEBBB"/>
<path d="M324.94 155.833C323.47 158.707 314.992 159.036 310.201 159.904L313.62 179.601C317.603 177.423 325.943 172.749 327.435 171.472C327.533 170.235 328.535 163.837 329.445 155.441C331.031 140.824 331.611 137.429 330.428 139.827C329.491 142.244 326.409 152.96 324.94 155.833Z" fill="#FBA489"/>
<path d="M219.478 167.966C222.132 180.337 235.381 189.227 237.832 189.616C282.383 196.668 311.896 181.442 316.319 177.465L313.223 159.35C312.043 159.35 300.193 159.129 292.232 158.246C274.541 156.037 282.502 146.537 286.04 141.456C289.578 136.375 301.519 126.213 304.394 119.806C307.269 113.4 313.695 101.91 300.635 99.0404C280.923 94.7087 252.765 113.731 241.149 123.783C221.247 140.572 216.825 155.595 219.478 167.966Z" fill="#21C58E"/>
<path opacity="0.3" d="M308.451 108.5C308.004 112.425 305.784 116.71 304.394 119.806C301.519 126.213 289.578 136.375 286.04 141.456C282.502 146.537 274.541 156.037 292.232 158.246C297.148 158.791 303.546 159.084 308 159.229" stroke="#0E996A" stroke-linecap="round"/>
<path d="M316.825 177.445L313.729 159.33C313.286 159.33 311.338 159.299 308.656 159.213L311.918 180.563C314.357 179.283 316.013 178.175 316.825 177.445Z" fill="white"/>
<path d="M295.481 118.104C295.481 119.004 294.751 119.734 293.851 119.734C292.95 119.734 292.22 119.004 292.22 118.104C292.22 117.204 292.95 116.475 293.851 116.475C294.751 116.475 295.481 117.204 295.481 118.104Z" fill="#5BEBBB"/>
<path d="M263.191 116.801C263.191 117.701 262.461 118.43 261.56 118.43C260.659 118.43 259.929 117.701 259.929 116.801C259.929 115.901 260.659 115.172 261.56 115.172C262.461 115.172 263.191 115.901 263.191 116.801Z" fill="#5BEBBB"/>
<path d="M274.28 151.015C274.28 151.915 273.55 152.644 272.649 152.644C271.749 152.644 271.019 151.915 271.019 151.015C271.019 150.115 271.749 149.386 272.649 149.386C273.55 149.386 274.28 150.115 274.28 151.015Z" fill="#5BEBBB"/>
<path d="M247.747 171.014C247.747 171.914 247.017 172.644 246.116 172.644C245.215 172.644 244.485 171.914 244.485 171.014C244.485 170.115 245.215 169.385 246.116 169.385C247.017 169.385 247.747 170.115 247.747 171.014Z" fill="#5BEBBB"/>
<path d="M240.685 138.633C240.685 139.533 239.954 140.262 239.054 140.262C238.153 140.262 237.423 139.533 237.423 138.633C237.423 137.733 238.153 137.003 239.054 137.003C239.954 137.003 240.685 137.733 240.685 138.633Z" fill="#5BEBBB"/>
<path d="M428.821 323.777C430.913 320.433 419.831 314.792 408.537 308.734C403.1 309.569 388.837 311.909 375.286 314.583C383.86 317.926 407.073 323.984 413.556 325.029C420.038 326.074 426.732 327.119 428.821 323.777Z" fill="#FBA489"/>
<path d="M204.105 276.91C209.758 297.852 245.767 308.322 255.398 308.322L345.841 308.741V254.293C328.464 243.403 282.405 209.478 242.208 219.74C202.011 230.001 198.452 255.968 204.105 276.91Z" fill="#292742"/>
<path d="M242.19 219.715C238.954 220.53 235.955 221.445 233.178 222.45C232.479 225.052 233.304 231.995 242.19 233.979C253.298 236.46 261.891 229.018 270.065 229.432C278.239 229.845 282.64 231.705 288.928 234.806C295.216 237.907 307.224 238.026 314.528 235.132C293.464 223.912 266.736 213.536 242.19 219.715Z" fill="#1F1E33"/>
<path d="M204.105 276.855C209.757 297.833 245.767 308.322 255.398 308.322L345.841 308.741V254.199C342.078 251.837 336.969 248.392 330.867 244.549C308.653 251.654 281.78 276.657 272.879 284.939L272.775 285.036C263.982 293.217 259.585 299.511 242.208 293.847C224.831 288.183 205.78 255.458 205.795 244.549C200.767 254.875 201.309 266.48 204.105 276.855Z" fill="#1F1E33"/>
<path d="M399.753 312.286C376.958 316.256 344.543 318.763 319.658 317.927C299.759 317.258 292.161 317.258 287.456 318.353L271.963 321.819L260.71 304.388L266.749 296.943C278.041 285.731 306.566 259.305 330.323 244.597C360.019 226.212 381.768 221.407 409.373 223.496C436.979 225.585 459.771 254.625 450.988 278.859C442.205 303.094 422.548 308.317 399.753 312.286Z" fill="#292742"/>
<path d="M319.656 317.927C294.77 317.091 280.768 319.703 275.224 320.681L262.177 302.759C262.503 302.27 268.856 294.541 270.094 293.349C273.44 291.335 278.459 298.916 288.915 305.392C299.371 311.868 317.774 312.286 330.322 313.54C342.869 314.793 373.611 313.957 393.687 310.615C413.763 307.272 431.748 296.826 444.833 290.768C434.597 305.039 418.203 309.073 399.751 312.286C376.957 316.256 344.542 318.763 319.656 317.927Z" fill="#1F1E33"/>
<path d="M409.372 223.496C436.975 225.585 459.771 254.625 450.988 278.859C450.406 280.461 449.778 281.98 449.107 283.421C430.913 273.845 433.63 262.355 433.423 255.46C433.212 248.566 428.403 240.209 410.627 235.613C392.851 231.017 370.684 228.092 344.962 244.179C319.239 260.266 302.509 271.227 292.889 272.745C304.634 262.732 318.108 252.159 330.323 244.597C360.018 226.212 381.768 221.407 409.372 223.496Z" fill="#1F1E33"/>
<path d="M234.962 317.299C245.669 314.625 257.547 306.435 262.148 302.675L275.532 321.268C263.403 323.774 237.262 328.457 229.733 327.119C220.323 325.447 221.577 320.642 234.962 317.299Z" fill="#FBA489"/>
</svg>
