<svg width="67" height="70" viewBox="0 0 67 70" fill="none" xmlns="http://www.w3.org/2000/svg">
<path d="M31.8697 25.1065C33.0546 24.8102 34.0307 24.4057 34.8232 23.9619V28.1782C34.8232 30.1865 33.0511 31.6042 31.279 31.6042C29.5069 31.6042 27.6167 29.714 27.6167 28.1782V24.4569C28.7252 25.1795 30.139 25.5391 31.8697 25.1065Z" fill="#FDB09A"/>
<path d="M31.279 31.6043C33.0511 31.6043 34.8232 30.1866 34.8232 28.1783V24.1616H38.3673C40.1394 24.1616 43.5655 32.7858 43.6836 37.157C43.8018 41.5281 43.6836 45.4268 43.6836 48.144C43.6836 50.8612 43.9199 53.5784 44.5106 55.7049C45.1013 57.8314 45.8101 57.2407 35.2957 55.7049C24.7813 54.1691 17.5748 58.4221 18.0473 55.4686C18.5199 52.5151 18.9924 48.9709 18.9924 45.7812V34.4398V26.5244C18.9924 24.8705 23.3636 24.457 27.6166 24.457V28.1783C27.6166 29.7141 29.5069 31.6043 31.279 31.6043Z" fill="#21C58E"/>
<path d="M18.9926 34.4398V45.7812C18.9926 47.7676 18.8094 49.8914 18.557 51.9245C16.9399 54.2873 15.4484 52.7514 13.7945 47.4352C12.1405 42.1189 10.7228 34.6761 12.8494 28.5328C14.5506 23.6182 20.7253 23.8733 23.6001 24.6152C20.991 24.8549 18.9926 25.4061 18.9926 26.5244V34.4398Z" fill="#FDB09A"/>
<path d="M44.3925 14.8286C44.3925 18.1365 44.0381 21.917 43.8018 29.1235C43.7435 30.7775 43.8018 32.1951 43.5655 36.9207C39.4306 35.503 37.3041 30.423 37.3041 28.6509C37.3041 26.8788 37.0678 23.3347 37.3041 14.1198C37.5404 4.90487 30.8064 8.56723 34.705 3.60537C38.6037 -1.3565 40.8483 -1.12022 42.8567 3.84165C44.8651 8.80351 44.3925 11.5207 44.3925 14.8286Z" fill="#FDB09A"/>
<path d="M24.7815 69.6452L22.7731 63.9882C21.3159 64.5339 19.8041 64.552 18.5414 63.9882C17.9042 64.2199 16.4644 64.3998 15.8029 63.2656C14.9759 61.848 14.0308 61.7298 12.0224 62.9112C10.014 64.0926 9.30518 64.2107 5.17029 63.7382C1.03541 63.2656 -1.09111 65.0377 0.562846 66.6917C2.2168 68.3456 5.40657 68.2275 12.0224 68.8182C17.315 69.2908 22.7337 69.5664 24.7815 69.6452Z" fill="#FDB09A"/>
<path d="M34.8232 58.0677C35.1067 58.2567 39.1156 61.2969 41.0846 62.7933L44.233 59.7217C44.68 60.6668 45.4558 63.1241 44.9832 65.3924C44.3925 68.2277 41.0846 69.4091 39.3125 69.5273C37.5404 69.6454 34.2325 69.9998 31.9878 69.9998C30.1921 69.9998 26.4353 69.7635 24.7813 69.6454L22.7729 63.9883C22.9715 63.9146 23.1687 63.8313 23.3636 63.7384C25.8446 62.557 32.2241 59.131 33.1692 58.5403C34.1144 57.9496 34.4688 57.8314 34.8232 58.0677Z" fill="#1E1D31"/>
<path d="M22.7729 63.9883C22.9715 63.9146 23.1687 63.8312 23.3636 63.7384C23.966 63.4516 24.7981 63.0324 25.7264 62.5537L28.2074 69.8602C26.8798 69.7877 25.5833 69.7027 24.7813 69.6454L22.7729 63.9883Z" fill="#F76785"/>
<path d="M48.1734 68.2274C46.2832 66.9042 42.6602 64.0531 41.085 62.793L43.5069 60.4302L45.9287 58.0674C47.0314 59.5244 49.402 62.6275 50.0636 63.3836C50.8906 64.3287 51.0087 64.3287 51.4813 63.9743C51.9539 63.6199 52.4264 63.6199 53.4897 64.4469C54.5529 65.2739 54.6711 65.9827 57.2701 65.392C59.8692 64.8013 61.5232 64.8013 63.5315 65.1557C65.5399 65.5101 66.9576 66.5734 66.8395 68.2274C66.7213 69.8813 65.5399 69.9994 62.5864 69.9994H53.3715C50.7725 69.9994 50.5362 69.8813 48.1734 68.2274Z" fill="#FDB09A"/>
<path d="M34.8233 58.0678C35.1069 58.2568 39.1157 61.2969 41.0847 62.7934L45.9285 58.0678C44.1958 55.9018 40.1869 50.8848 38.0131 48.1439C35.2959 44.7179 30.4522 42.3551 25.9629 46.7263C21.4736 51.0974 20.6466 52.0426 19.1108 53.6965C17.575 55.3505 15.8029 56.2958 15.6847 58.5403C15.5666 60.7849 15.6847 62.4389 17.9294 63.5021C20.174 64.5654 20.8829 64.4747 22.7731 63.9884C22.9716 63.9147 23.1688 63.8313 23.3638 63.7385C25.8447 62.5571 32.2243 59.131 33.1694 58.5403C34.1145 57.9496 34.4689 57.8315 34.8233 58.0678Z" fill="#292742"/>
<path d="M45.9287 58.0674L41.085 62.793C40.4464 62.3077 39.5933 61.66 38.7222 60.9998L43.8022 55.4072C44.6467 56.4643 45.3955 57.4009 45.9287 58.0674Z" fill="#F76785"/>
<path d="M31.8698 25.1072C35.6502 24.1621 37.3042 22.1144 37.6586 21.2086C37.8949 18.9639 37.4223 10.2216 35.8865 8.21326C34.3507 6.20488 26.4353 7.62256 25.3721 10.8123C24.3088 14.0021 24.3088 17.7826 24.5451 19.6728C24.7814 21.563 27.1442 26.2886 31.8698 25.1072Z" fill="#FDB09A"/>
<path d="M24.4848 19.082C24.5024 19.2947 24.5228 19.4923 24.5453 19.6727C24.6981 20.8949 25.74 23.3028 27.7351 24.5325C27.4594 25.3147 26.7427 27.6826 26.0811 30.896C25.2541 34.9127 24.8997 37.0393 22.8913 39.7565C20.883 42.4737 15.0941 43.4188 12.2588 39.7565C9.42343 36.0941 11.0774 31.723 14.2672 31.9593C17.4569 32.1955 17.6932 31.4867 18.402 25.6979C18.9691 21.0668 22.6935 19.3577 24.4848 19.082Z" fill="#321B1B"/>
<path d="M22.8911 39.7565C20.8827 42.4737 15.0939 43.4188 12.2585 39.7565C12.0775 39.5226 11.9147 39.2859 11.7695 39.0476C17.1875 43.0644 22.3004 39.5202 23.5999 33.2588C24.6396 28.2497 26.0021 24.7141 26.5534 23.5725C26.9013 23.9329 27.2949 24.2613 27.7348 24.5325C27.4592 25.3147 26.7424 27.6826 26.0809 30.896C25.2539 34.9127 24.8995 37.0393 22.8911 39.7565Z" fill="#542B2B"/>
<path d="M41.0847 15.774C40.2341 19.46 37.8162 21.7204 36.7136 22.3898C36.7136 21.0116 36.69 17.31 36.5954 13.5295C36.4773 8.8039 31.3973 9.04018 28.2075 11.2848C25.0178 13.5295 23.7182 17.7825 22.8912 20.4997C19.8196 15.3016 20.2922 7.38611 25.9629 3.96006C31.6336 0.534013 36.241 2.77867 38.6038 5.2596C40.9666 7.74053 42.148 11.1666 41.0847 15.774Z" fill="#321B1B"/>
<path d="M22.8912 20.4997C19.8196 15.3016 20.2922 7.38611 25.9629 3.96006C28.1048 2.66599 30.095 2.18095 31.8699 2.21209C28.5778 3.34611 22.426 7.85878 24.1555 16.8374C23.6067 18.1515 23.2132 19.442 22.8912 20.4997Z" fill="#542B2B"/>
</svg>
