<svg width="79" height="79" viewBox="0 0 79 79" fill="none" xmlns="http://www.w3.org/2000/svg">
<path d="M9.45651 37.1261C9.45651 37.9618 10.134 38.6392 10.9697 38.6392C11.4395 38.6392 11.8594 38.425 12.137 38.0889C12.7108 38.3182 14.0235 38.8318 14.6837 39.0519C15.5091 39.327 15.5091 39.327 15.6466 39.7396C16.0593 41.803 14.4086 43.7288 10.9697 45.242C14.6837 48.9561 14.8213 51.5697 14.8213 55.2837C14.8213 58.9978 13.1706 62.2992 10.6945 64.6377C8.21849 66.9762 5.32976 67.1138 2.44104 65.6006C-0.447691 64.0875 -0.310133 61.1988 0.515218 57.7598C6.98046 60.7861 6.29267 56.5218 5.60488 53.3579C4.91709 50.1941 4.77953 47.4429 5.60488 45.3795C4.22929 44.8293 2.16592 43.1786 0.92789 39.0519C-0.310136 34.9251 1.06545 31.3486 3.67906 29.6979C6.29267 28.0472 7.66825 29.2852 9.04383 31.3486C10.1443 32.9993 10.3654 34.971 10.3384 35.7505C9.81791 35.9897 9.45651 36.5157 9.45651 37.1261Z" fill="#321B1B"/>
<path d="M9.45624 37.1258C9.45624 37.9615 10.1337 38.639 10.9694 38.639C11.4393 38.639 11.8591 38.4248 12.1367 38.0887C12.7105 38.318 14.0232 38.8315 14.6835 39.0516C15.2654 39.2456 15.437 39.3028 15.5358 39.4643C16.4186 38.8103 17.051 38.0051 17.4844 37.1258C18.1449 35.7858 18.343 34.2735 18.26 32.8615C18.2334 32.4101 18.1454 32.0253 18.0106 31.6982C17.4474 30.3311 16.0686 29.9728 14.9586 29.9728H7.97809C8.34666 30.356 8.69511 30.8257 9.04356 31.3484C10.144 32.9991 10.3651 34.9708 10.3381 35.7503C9.81764 35.9895 9.45624 36.5155 9.45624 37.1258Z" fill="#FDB09A"/>
<path d="M18.2604 32.8615C18.2339 32.4101 18.1458 32.0253 18.0111 31.6982C18.3573 31.7116 18.7749 31.7693 19.2234 31.8864C21.0202 32.3558 23.3115 33.7793 23.4877 37.1259H18.6731H17.4849C18.1454 35.7858 18.3435 34.2735 18.2604 32.8615Z" fill="#FDB09A"/>
<path d="M18.673 37.1263H23.4875C23.3114 33.7797 21.0201 32.3562 19.2232 31.8868C19.1315 31.6158 19.3333 30.6885 20.8739 29.1479C22.7997 27.2221 26.9265 26.8094 30.503 27.2221C34.0795 27.6347 36.2804 28.4601 40.2696 29.6981C44.2588 30.9361 51.687 33.4122 53.6128 33.9624C55.5386 34.5127 57.1893 40.4277 44.6715 42.7662C34.6573 44.637 28.2104 44.0042 26.2387 43.454C25.0924 43.5457 22.4696 43.3439 21.149 41.8033C19.8285 40.2626 18.9481 38.0433 18.673 37.1263Z" fill="#21C58E"/>
<path d="M31.6034 27.3678C27.3116 30.3459 23.4875 29.1972 22.1119 28.2506C23.0748 27.7663 23.5563 25.2959 26.2386 24.0579C28.0269 23.2326 28.9898 22.4072 30.7781 19.381C32.5663 16.3547 33.8043 13.1908 35.3175 10.4397C36.8306 7.68849 37.3809 7.27582 37.3809 4.79977C37.3809 2.32372 38.894 0.948132 38.894 3.14907C38.894 5.35 39.1691 3.83681 40.6823 1.2232C42.1954 -1.39041 43.7085 0.535407 43.2959 3.69925C42.8832 6.86309 41.3701 7.41333 40.5447 8.92647C39.7194 10.4396 39.1691 11.8152 37.656 16.2171C36.1428 20.6189 34.3546 23.7828 32.8414 25.2959C31.6309 26.5064 31.5117 27.1816 31.6034 27.3678Z" fill="#FDB09A"/>
<path d="M28.0267 43.7828C25.3856 39.8642 21.2857 39.1795 19.5659 39.327C19.7222 39.6429 19.8957 39.9678 20.0854 40.2899C19.8474 42.766 20.461 46.0674 21.699 48.9561C22.937 51.8448 23.4873 54.7336 23.4873 57.8974C23.4873 61.0613 21.699 62.9871 21.9741 66.9763C22.2492 70.9655 21.2863 71.6532 20.5985 74.8171C19.9107 77.9809 23.7624 76.6053 24.5877 72.4786C25.402 68.4072 26.8857 63.5324 27.8501 60.3642L27.8891 60.2359C28.852 57.0721 28.852 56.5218 28.0267 52.9453C27.3664 50.0841 26.7428 45.4724 26.5135 43.5241C26.8995 43.6149 27.4053 43.7049 28.0267 43.7828Z" fill="#FDB09A"/>
<path d="M14.8212 55.2835C14.8212 58.9975 13.1705 62.2989 10.6944 64.6374C8.92862 66.3052 6.95291 66.8535 4.91699 66.482C14.8212 64.4999 14.8212 49.7811 9.59398 45.6544L10.9696 45.2417C14.6836 48.9558 14.8212 51.5694 14.8212 55.2835Z" fill="#542B2B"/>
<path d="M43.2959 41.9408C44.6165 41.0604 50.7241 36.255 53.6128 33.9624C55.5386 35.338 56.7766 36.3009 57.1893 38.2267C58.0146 42.6286 55.401 45.7924 53.2001 47.5807C50.9992 49.3689 47.4226 51.5699 44.2588 54.7337C41.095 57.8976 40.2696 60.9238 38.0687 64.3628C36.3079 67.114 33.5751 68.9939 32.4288 69.59L28.5771 65.876C29.861 64.1794 32.869 60.2636 34.6297 58.1727C35.4551 53.083 38.4814 48.5436 39.4443 46.7553C40.4072 44.9671 41.6452 43.0413 43.2959 41.9408Z" fill="#292742"/>
<path d="M32.4288 69.5898L28.5771 65.8757C29.0769 65.2153 29.8378 64.2188 30.6847 63.1245L35.18 67.6455C34.0723 68.6083 33.0313 69.2764 32.4288 69.5898Z" fill="#F76785"/>
<path d="M32.4286 69.5898L28.577 65.8757C27.6599 67.0679 25.5232 69.8374 24.3127 71.3781C22.7995 73.3039 22.3868 73.579 20.5986 74.2668C18.8103 74.9546 17.5723 75.3673 16.6094 75.7799C15.6465 76.1926 15.6465 76.7428 15.6465 77.2931C15.6465 77.8433 16.0592 78.256 17.5723 78.256H24.4502C26.6512 78.256 27.4765 77.5682 27.4765 76.1926C27.4765 74.817 27.8892 73.8541 28.9896 72.4785C30.0901 71.103 31.3281 70.0025 32.4286 69.5898Z" fill="#FDB09A"/>
<path d="M62.554 46.2051C59.8029 38.832 55.8137 35.2357 54.163 34.3591C50.7967 36.9331 43.7085 42.3535 43.7085 42.3535C43.7085 42.3535 48.523 47.9934 50.724 49.4416C52.6498 51.2057 56.8041 54.9813 58.0146 55.9717C59.5277 57.2098 60.4907 57.76 62.554 60.0985C64.2047 61.9693 67.0935 65.4633 68.3315 66.9764L74.2465 63.9501C71.4953 59.1356 67.0935 54.8713 65.993 53.9084C64.8925 52.9455 63.9296 49.6441 62.554 46.2051Z" fill="#292742"/>
<path d="M68.3316 66.9764L74.2466 63.9501C73.65 62.9061 72.9759 61.888 72.2746 60.9238L65.9931 64.1456C66.9277 65.2676 67.7885 66.3126 68.3316 66.9764Z" fill="#F76785"/>
<path d="M68.3314 66.976L74.2464 63.9497C76.2185 67.6638 77.5478 71.1027 78.6483 74.2666C79.7488 77.4304 78.0981 78.2558 76.0347 78.2558C73.9713 78.2558 71.0826 78.3933 68.1938 78.2558C65.3051 78.1182 65.8554 76.33 67.2309 75.7797C68.6065 75.2295 71.4953 74.5417 72.7333 74.129C73.9713 73.7164 73.9713 73.7164 73.4211 73.0286C72.9809 72.4783 69.8446 68.7643 68.3314 66.976Z" fill="#FDB09A"/>
</svg>
