<svg width="83" height="33" viewBox="0 0 83 33" fill="none" xmlns="http://www.w3.org/2000/svg">
<path d="M56.4836 13.1193H59.7052C59.1683 9.69318 56.2024 7.30682 52.3416 7.30682C47.7734 7.30682 44.3473 10.6648 44.3473 16.2898C44.3473 21.8125 47.62 25.2386 52.4353 25.2386C56.7563 25.2386 59.8501 22.4602 59.8501 17.9602V15.8636H52.7677V18.3352H56.7904C56.7393 20.8239 55.0774 22.4006 52.4524 22.4006C49.5291 22.4006 47.5262 20.2102 47.5262 16.2557C47.5262 12.3267 49.5632 10.1449 52.3842 10.1449C54.4893 10.1449 55.9211 11.2699 56.4836 13.1193ZM65.3765 7.54545H62.2913V25H65.3765V7.54545ZM73.7793 25.2557C77.6145 25.2557 80.052 22.554 80.052 18.5057C80.052 14.4489 77.6145 11.7386 73.7793 11.7386C69.9441 11.7386 67.5066 14.4489 67.5066 18.5057C67.5066 22.554 69.9441 25.2557 73.7793 25.2557ZM73.7963 22.7841C71.6742 22.7841 70.6344 20.892 70.6344 18.4972C70.6344 16.1023 71.6742 14.1847 73.7963 14.1847C75.8844 14.1847 76.9242 16.1023 76.9242 18.4972C76.9242 20.892 75.8844 22.7841 73.7963 22.7841Z" fill="#072E75"/>
<path d="M33.069 16.5344C33.069 11.6229 30.9275 7.2115 27.5272 4.18311C24.5595 5.96843 18.5456 11.522 17.443 19.3508C16.5729 25.5285 19.26 28.4356 19.6234 32.7809C27.2789 31.3343 33.069 24.6105 33.069 16.5344Z" fill="#21C58E"/>
<path fill-rule="evenodd" clip-rule="evenodd" d="M16.5345 0C20.7547 0 24.6056 1.58107 27.5272 4.18313C18 8.5 12 23.5 14.9901 32.9978C6.58246 32.219 0 25.1455 0 16.5345C0 11.6229 2.14154 7.21158 5.54178 4.18313C8.5398 6.08963 14.3905 11.9376 13.809 20.0776C17.0069 12.4463 11.023 5.24564 7.63131 2.59931C10.2013 0.953914 13.2565 0 16.5345 0ZM16.0803 9.99338C17.0336 9.99338 17.8064 9.0172 17.8064 7.81301C17.8064 6.60881 17.0336 5.63263 16.0803 5.63263C15.1269 5.63263 14.3541 6.60881 14.3541 7.81301C14.3541 9.0172 15.1269 9.99338 16.0803 9.99338Z" fill="#072E75"/>
</svg>
