<svg width="1198" height="606" viewBox="0 0 1198 606" fill="none" xmlns="http://www.w3.org/2000/svg">
<path d="M1052.41 437.753C1062.62 413.447 1090.28 400.888 1102.84 397.648C1097.98 384.887 1082.18 371.518 1060.91 389.14C1039.65 406.762 1036 434.107 1036 446.26C1036 458.413 1039.65 468.136 1052.41 437.753Z" fill="#21C58E"/>
<path d="M1166.65 405.549C1145.74 413.327 1130.79 426.21 1125.93 431.679C1125.93 408.587 1161.18 379.42 1185.48 382.458C1209.79 385.497 1192.78 395.827 1166.65 405.549Z" fill="#21C58E"/>
<path d="M1066.77 356.57C1087.67 364.348 1102.62 377.23 1107.48 382.699C1107.48 359.607 1072.24 330.441 1047.93 333.479C1023.63 336.517 1040.64 346.847 1066.77 356.57Z" fill="#21C58E"/>
<path d="M1144.77 356.329C1130.67 366.538 1122.69 378.407 1120.46 383.066C1119.25 348.428 1151.46 308.938 1172.72 301.039C1193.99 293.139 1197.03 304.678 1186.7 318.046C1176.37 331.415 1162.39 343.568 1144.77 356.329Z" fill="#21C58E"/>
<path d="M1116.82 462.675C1116.82 458.827 1116.82 446.512 1116.82 428.039C1116.82 404.948 1113.78 390.364 1130.19 355.12C1146.59 319.876 1168.47 307.115 1184.27 298" stroke="#379A6A" stroke-linecap="round"/>
<path d="M1195.81 386.717C1184.88 384.894 1158.63 386.474 1141.12 407.378C1123.62 428.281 1117.63 452.548 1116.82 462.068" stroke="#379A6A" stroke-linecap="round"/>
<path d="M1037.6 337.739C1048.54 335.916 1074.79 337.496 1092.29 358.4C1109.79 379.303 1115.79 403.57 1116.6 413.09" stroke="#379A6A" stroke-linecap="round"/>
<path d="M1116.82 443.23C1115.4 434.318 1110.13 411.875 1100.41 393.402C1094.33 381.249 1079.14 375.78 1061.52 393.402C1043.9 411.025 1038.43 431.685 1037.82 455.384" stroke="#379A6A" stroke-linecap="round"/>
<path d="M1075.5 460.845H1161.79L1143.56 551.994H1092.51L1075.5 460.845Z" fill="#D2EFE9"/>
<path d="M1081.83 494.785L1076.07 463.935C1081.12 463.521 1087.16 467.671 1090.74 474.481C1095.05 482.682 1094.16 491.635 1088.75 494.479C1086.69 495.56 1084.27 495.601 1081.83 494.785Z" fill="#21C58E"/>
<path d="M1105.1 551.994H1092.51L1087.63 525.868C1095.35 520.062 1104.26 518.759 1109.49 523.307C1115.96 528.942 1114.32 541.425 1105.82 551.188C1105.58 551.462 1105.34 551.731 1105.1 551.994Z" fill="#21C58E"/>
<path d="M1144.73 546.138L1143.56 551.994H1117.6C1120.04 542.896 1126.06 536.518 1132.86 536.768C1137.81 536.95 1142.08 540.6 1144.73 546.138Z" fill="#21C58E"/>
<path d="M1156.26 488.478L1147.94 530.086C1146.06 531.299 1144.35 531.701 1142.99 531.097C1138.6 529.156 1139.49 517.539 1144.98 505.151C1148.27 497.711 1152.48 491.684 1156.26 488.478Z" fill="#21C58E"/>
<path d="M1159.95 469.996C1156.36 470.677 1152.22 471.055 1147.82 471.034C1134.05 470.97 1122.91 467.03 1122.94 462.235C1122.94 461.761 1123.05 461.297 1123.26 460.845H1161.78L1159.95 469.996Z" fill="#21C58E"/>
<path d="M1132.46 498.872C1128.19 508.628 1119.28 514.154 1112.57 511.216C1105.86 508.275 1103.88 497.985 1108.15 488.231C1112.42 478.476 1121.32 472.952 1128.04 475.891C1134.75 478.829 1136.73 489.119 1132.46 498.872Z" fill="#21C58E"/>
<rect x="10" y="56" width="241" height="285" fill="#58B1FF"/>
<rect y="336" width="261" height="16" fill="#3E96E3"/>
<line x1="10" y1="198" x2="251" y2="198" stroke="white" stroke-width="2"/>
<line x1="131" y1="55" x2="131" y2="336" stroke="white" stroke-width="2"/>
<circle opacity="0.5" cx="74.5" cy="111.5" r="36.5" fill="#ABD8FF"/>
<path opacity="0.5" d="M74.5 148C94.6584 148 111 131.658 111 111.5L251 336H27.5L40.2504 124.147C45.3941 138.072 58.7877 148 74.5 148Z" fill="url(#paint0_linear_2_1561)"/>
<path d="M39.4159 233.499C38.6159 242.699 33.4159 246.666 30.9159 247.499C23.4159 248.498 18.4159 245 13.4159 238.5C8.4159 232 10.9159 229.5 14.4159 230.5C17.9159 231.5 17.9159 231.5 18.9159 229.5C19.9159 227.5 21.4159 226.999 24.9159 228C28.4159 229.001 30.9159 230.499 31.9159 226.999C32.9159 223.499 40.4159 221.999 39.4159 233.499Z" fill="white"/>
<path d="M35.2767 224.463C35.8002 228.451 36.4289 234.75 36.7566 242.231C36.4538 242.734 36.1372 243.198 35.8129 243.624C35.5075 235.611 34.841 228.841 34.2917 224.642C34.6092 224.537 34.941 224.475 35.2767 224.463Z" fill="#26264F"/>
<path d="M28.9078 229.141C29.2756 229.196 29.6175 229.21 29.9319 229.167C30.7056 233.121 31.7218 238.991 32.7693 246.549C32.4444 246.767 32.1312 246.952 31.8364 247.104C30.7507 239.214 29.6955 233.142 28.9078 229.141Z" fill="#26264F"/>
<path d="M22.7829 227.545C23.1374 227.586 23.5213 227.653 23.9384 227.748C25.6756 232.139 27.7591 237.421 29.5692 242.042C30.3016 243.912 30.9893 245.674 31.5913 247.225C31.3503 247.339 31.1239 247.43 30.9161 247.499C30.8232 247.511 30.7307 247.523 30.6385 247.534C30.042 245.997 29.362 244.255 28.6381 242.407C26.7494 237.585 24.5629 232.043 22.7829 227.545Z" fill="#26264F"/>
<path d="M15.4355 230.788C15.9429 230.928 16.351 231.032 16.6868 231.093C18.8343 235.5 23.2623 242.547 29.4785 247.638C28.9589 247.668 28.4516 247.675 27.9555 247.66C21.7091 242.221 17.3794 235.002 15.4355 230.788Z" fill="#26264F"/>
<path fill-rule="evenodd" clip-rule="evenodd" d="M41.4219 298.578C39.0256 283.402 33.4303 259.62 30.9307 249.621L31.9008 249.379C34.4011 259.38 40.0059 283.199 42.4096 298.422L41.4219 298.578Z" fill="#26264F"/>
<path d="M32.916 246.5L27.916 247.5L31.916 251.5L32.916 246.5Z" fill="#26264F"/>
<path d="M54.4162 238.038C55.2162 247.238 60.4162 251.205 62.9162 252.038C70.4161 253.038 75.4161 249.539 80.4161 243.039C85.4161 236.539 82.9162 234.039 79.4162 235.039C75.9162 236.039 75.9162 236.039 74.9162 234.039C73.9162 232.039 72.4162 231.538 68.9162 232.539C65.4162 233.54 62.9162 235.038 61.9162 231.538C60.9162 228.038 53.4162 226.538 54.4162 238.038Z" fill="white"/>
<path d="M58.5553 229.002C58.0318 232.991 57.4032 239.289 57.0754 246.77C57.3783 247.273 57.6949 247.737 58.0192 248.163C58.3245 240.15 58.991 233.38 59.5404 229.181C59.2228 229.077 58.891 229.014 58.5553 229.002Z" fill="#26264F"/>
<path d="M64.9242 233.68C64.5565 233.735 64.2146 233.749 63.9001 233.706C63.1265 237.66 62.1102 243.53 61.0628 251.088C61.3876 251.307 61.7008 251.491 61.9956 251.643C63.0813 243.753 64.1365 237.681 64.9242 233.68Z" fill="#26264F"/>
<path d="M71.0491 232.084C70.6947 232.125 70.3107 232.192 69.8937 232.287C68.1565 236.678 66.0729 241.96 64.2628 246.581C63.5305 248.451 62.8427 250.213 62.2407 251.764C62.4817 251.878 62.7081 251.969 62.9159 252.038C63.0088 252.05 63.1013 252.062 63.1935 252.073C63.79 250.536 64.47 248.794 65.1939 246.946C67.0826 242.124 69.2691 236.582 71.0491 232.084Z" fill="#26264F"/>
<path d="M78.3965 235.327C77.8891 235.467 77.481 235.571 77.1453 235.632C74.9978 240.039 70.5697 247.086 64.3536 252.177C64.8731 252.207 65.3804 252.214 65.8765 252.199C72.123 246.76 76.4526 239.541 78.3965 235.327Z" fill="#26264F"/>
<path fill-rule="evenodd" clip-rule="evenodd" d="M61.7168 259.13C62.1572 257.246 62.5499 255.566 62.9014 254.161L61.9312 253.918C61.5742 255.346 61.1781 257.041 60.7353 258.935C59.6192 263.71 58.2061 269.755 56.374 276.004C53.8146 284.734 50.4575 293.785 46.0052 300.216L46.8274 300.785C51.3751 294.216 54.768 285.036 57.3336 276.285C59.1741 270.008 60.5993 263.911 61.7168 259.13Z" fill="#26264F"/>
<path d="M60.916 251.039L65.916 252.039L61.916 256.039L60.916 251.039Z" fill="#26264F"/>
<path d="M29.9159 278.001C35.5159 284.001 40.9159 293.834 42.9159 298.001C45.4159 304.502 37.4159 304.5 35.9159 301C34.4159 297.5 30.9159 293.5 20.4159 288C9.9159 282.5 7.9159 277.001 11.9159 272.501C15.9159 268.001 22.9159 270.501 29.9159 278.001Z" fill="#89E6D9"/>
<path d="M68.916 276.498C60.516 281.698 52.7493 292.665 49.916 297.498L56.916 299.498C59.0827 297.665 65.516 292.498 73.916 286.498C84.416 278.998 79.416 269.998 68.916 276.498Z" fill="#89E6D9"/>
<path d="M76.1661 274.303C65.5964 281.12 55.925 291.547 50.897 297.778L51.9421 298.076C57.1272 291.706 66.9278 281.245 77.4971 274.643C76.9646 274.357 76.3879 274.297 76.1661 274.303Z" fill="#099783"/>
<path d="M12.7293 271.715C20.6475 275.154 33.5484 283.838 39.8784 299.311L38.9529 299.69C32.6382 284.254 19.6305 275.703 11.9463 272.467C12.196 272.189 12.4572 271.939 12.7293 271.715Z" fill="#099783"/>
<path d="M43.4157 269.5C40.6157 278.7 40.5824 292 40.9157 297.5L44.9158 302C47.9158 299.667 54.5158 290.7 56.9158 273.5C59.9158 252 46.9157 258 43.4157 269.5Z" fill="#89E6D9"/>
<path d="M43.7656 300.706C44.3885 298.757 45.0129 296.586 45.6283 294.278C47.008 289.102 48.3341 283.268 49.4893 277.772C50.6445 272.278 51.628 267.126 52.3227 263.317C52.632 261.621 52.8839 260.192 53.0682 259.117C53.4074 259.133 53.7359 259.195 54.0502 259.308C53.8655 260.383 53.6143 261.808 53.3065 263.496C52.6106 267.312 51.6253 272.473 50.468 277.978C49.3107 283.483 47.9806 289.336 46.5946 294.535C45.9193 297.069 45.2287 299.454 44.5363 301.573L43.7656 300.706Z" fill="#099783"/>
<path d="M20.916 297H71.916V310.5C71.916 324.583 60.4993 336 46.416 336C32.3328 336 20.916 324.583 20.916 310.5V297Z" fill="#26264F"/>
<path fill-rule="evenodd" clip-rule="evenodd" d="M20.9286 311.309C20.9202 311.04 20.916 310.771 20.916 310.501V309.808C22.3287 309.755 23.9107 309.553 25.3725 309.107C25.7686 308.987 26.1506 308.85 26.5147 308.696C26.2845 307.784 26.166 306.722 26.166 305.5C26.166 303.659 26.5266 302.212 27.0969 301.189C27.6553 300.188 28.4859 299.488 29.4391 299.438C30.457 299.385 31.2442 300.079 31.6252 301.086C32.0013 302.079 32.0407 303.462 31.6468 305.168C31.1898 307.149 29.9247 308.514 28.3599 309.443C28.7467 310.256 29.2666 310.772 29.845 311.096C31.146 311.824 33.0242 311.763 35.2533 311.268C37.1817 310.839 38.7195 309.803 39.8052 308.383C39.1887 307.392 38.7891 306.129 38.6682 304.558C38.5388 302.874 38.6627 301.555 38.9566 300.593C39.2366 299.677 39.7362 298.896 40.508 298.658C41.3857 298.388 42.1118 298.937 42.5192 299.613C42.9337 300.3 43.166 301.293 43.166 302.5C43.166 304.6 42.6481 306.624 41.6481 308.324C42.1103 308.803 42.6542 309.138 43.2446 309.362C44.8397 309.967 46.7753 309.757 48.1788 309.289C49.2866 308.92 50.4174 308.424 51.3647 307.738C51.1512 307.471 50.9532 307.187 50.7729 306.887C49.1201 304.132 49.7278 301.593 51.1073 300.376C51.7774 299.785 52.7176 299.46 53.6049 299.832C54.4991 300.208 55.0214 301.157 55.1614 302.417C55.4183 304.728 54.7123 306.486 53.5384 307.798C54.9143 308.889 56.7091 309.392 58.4563 309.193C59.785 309.042 61.0942 308.483 62.1599 307.447C61.8222 306.96 61.5131 306.417 61.235 305.814C59.6256 302.327 60.8469 299.5 62.7848 298.795C63.2638 298.621 63.7901 298.587 64.2907 298.753C64.7973 298.921 65.2216 299.276 65.516 299.777C66.0881 300.752 66.1607 302.244 65.6407 304.194C65.2968 305.484 64.7702 306.575 64.113 307.475C64.4434 307.817 64.7903 308.1 65.1489 308.33C66.1155 308.949 67.2138 309.217 68.3983 309.188C69.5209 309.162 70.7144 308.869 71.916 308.365V309.977C70.7543 310.406 69.5797 310.661 68.4338 310.688C66.9932 310.722 65.5916 310.395 64.3394 309.593C63.9088 309.317 63.5014 308.988 63.1197 308.605C61.8372 309.815 60.2577 310.498 58.6257 310.684C56.4243 310.934 54.1409 310.274 52.4209 308.822C51.2538 309.71 49.8864 310.301 48.6532 310.712C47.0567 311.245 44.7424 311.534 42.7125 310.764C42.0182 310.501 41.3578 310.113 40.778 309.572C39.5167 311.106 37.7713 312.245 35.5787 312.732C33.3079 313.237 30.936 313.426 29.112 312.404C28.2162 311.903 27.5115 311.147 27.0163 310.111C26.6207 310.275 26.2162 310.418 25.8096 310.542C24.1911 311.035 22.462 311.254 20.9286 311.309ZM40.1638 304.442C40.24 305.433 40.438 306.237 40.716 306.889C41.3392 305.585 41.666 304.085 41.666 302.5C41.666 301.457 41.4608 300.762 41.2347 300.387C41.1227 300.201 41.0259 300.127 40.98 300.102C40.9646 300.094 40.9557 300.091 40.9528 300.091L40.9491 300.092C40.9083 300.104 40.6267 300.261 40.3911 301.032C40.1693 301.757 40.0433 302.876 40.1638 304.442ZM30.1852 304.831C29.8718 306.189 29.0395 307.214 27.8859 307.973C27.7448 307.284 27.666 306.468 27.666 305.5C27.666 303.841 27.9929 302.663 28.407 301.92C28.833 301.156 29.2836 300.949 29.5179 300.936C29.6875 300.927 29.9941 301.014 30.2224 301.617C30.4557 302.233 30.5413 303.288 30.1852 304.831ZM64.1913 303.808C63.942 304.743 63.5864 305.545 63.1519 306.225C62.9568 305.909 62.7713 305.563 62.597 305.186C61.2064 302.173 62.4852 300.5 63.2972 300.205C63.5057 300.129 63.6826 300.132 63.8187 300.177C63.9488 300.22 64.0948 300.319 64.2223 300.537C64.494 300.999 64.6714 302.008 64.1913 303.808ZM53.6706 302.583C53.8729 304.404 53.3506 305.726 52.4802 306.73C52.3291 306.535 52.1883 306.33 52.0591 306.115C50.7119 303.87 51.3543 302.159 52.0998 301.501C52.4922 301.154 52.8332 301.135 53.024 301.215C53.208 301.293 53.5606 301.593 53.6706 302.583Z" fill="white"/>
<path d="M22.1962 318.5C22.0332 318.006 21.885 317.506 21.752 317H71.0803C70.9473 317.506 70.7991 318.006 70.6361 318.5H22.1962Z" fill="white"/>
<path d="M23.4041 321.5C23.1687 321.008 22.9486 320.508 22.7444 320H70.0879C69.8837 320.508 69.6636 321.008 69.4282 321.5H23.4041Z" fill="white"/>
<path d="M156 39L156 0" stroke="#F76785"/>
<circle cx="156.5" cy="72.5" r="14.5" fill="white"/>
<path d="M111 59.8562C111 55.0983 113.811 50.7898 118.166 48.873L154.889 32.7093C155.915 32.2573 157.085 32.2573 158.111 32.7093L194.834 48.873C199.189 50.7898 202 55.0983 202 59.8562V71H111V59.8562Z" fill="#F76785"/>
<path d="M528.058 531.44C528.058 538.377 470.738 544.001 400.029 544.001C329.321 544.001 272 538.377 272 531.44C272 524.502 329.321 518.878 400.029 518.878C470.738 518.878 528.058 524.502 528.058 531.44Z" fill="#D2EFE9"/>
<path fill-rule="evenodd" clip-rule="evenodd" d="M342.831 384.587C344.155 384.749 345.097 385.955 344.934 387.279L327.542 528.836C327.379 530.16 326.173 531.101 324.849 530.939C323.525 530.776 322.584 529.571 322.746 528.246L340.139 386.69C340.302 385.365 341.507 384.424 342.831 384.587Z" fill="#073236"/>
<path fill-rule="evenodd" clip-rule="evenodd" d="M471.721 384.587C470.396 384.749 469.455 385.955 469.618 387.279L487.01 528.836C487.173 530.16 488.378 531.101 489.702 530.939C491.027 530.776 491.968 529.571 491.805 528.246L474.413 386.69C474.25 385.365 473.045 384.424 471.721 384.587Z" fill="#073236"/>
<path fill-rule="evenodd" clip-rule="evenodd" d="M324.473 384.587C325.797 384.749 326.738 385.955 326.576 387.279L309.183 528.836C309.02 530.16 307.815 531.101 306.491 530.939C305.167 530.776 304.225 529.571 304.388 528.246L321.781 386.69C321.943 385.365 323.149 384.424 324.473 384.587Z" fill="#073236"/>
<path fill-rule="evenodd" clip-rule="evenodd" d="M490.079 384.587C488.755 384.749 487.814 385.955 487.976 387.279L505.369 528.836C505.532 530.16 506.737 531.101 508.061 530.939C509.385 530.776 510.327 529.571 510.164 528.246L492.772 386.69C492.609 385.365 491.404 384.424 490.079 384.587Z" fill="#073236"/>
<path d="M300.021 367.175C300.021 349.03 314.73 334.322 332.874 334.322H484.577C502.721 334.322 517.429 349.03 517.429 367.175C517.429 385.319 502.721 400.027 484.577 400.027H332.874C314.73 400.027 300.021 385.319 300.021 367.175Z" fill="#546475"/>
<path d="M311.617 367.174C311.617 353.833 322.432 343.018 335.773 343.018H481.678C495.019 343.018 505.834 353.833 505.834 367.174C505.834 380.515 495.019 391.33 481.678 391.33H335.773C322.432 391.33 311.617 380.515 311.617 367.174Z" fill="#F1FBFF"/>
<path d="M313.616 376.814C317.338 385.359 325.858 391.332 335.773 391.332H481.678C495.019 391.332 505.834 380.516 505.834 367.176C505.834 358.009 500.729 350.036 493.206 345.942C494.492 348.896 495.206 352.155 495.206 355.58C495.206 368.921 484.39 379.737 471.049 379.737H325.144C320.97 379.737 317.042 378.678 313.616 376.814Z" fill="#BFD6ED"/>
<path opacity="0.1" d="M376.356 367.174C376.356 365.573 377.654 364.275 379.255 364.275H442.061C443.662 364.275 444.96 365.573 444.96 367.174C444.96 368.775 443.662 370.073 442.061 370.073H379.255C377.654 370.073 376.356 368.775 376.356 367.174Z" fill="#073236"/>
<path d="M374.423 365.243C374.423 363.642 375.721 362.344 377.322 362.344H440.129C441.73 362.344 443.028 363.642 443.028 365.243C443.028 366.843 441.73 368.141 440.129 368.141H377.322C375.721 368.141 374.423 366.843 374.423 365.243Z" fill="#073236"/>
<path d="M337 241.764C337 238.028 340.028 235 343.764 235H479.04C482.775 235 485.804 238.028 485.804 241.764V327.761C485.804 331.496 482.775 334.525 479.04 334.525H343.764C340.028 334.525 337 331.496 337 327.761V241.764Z" fill="#DEEDFB"/>
<path fill-rule="evenodd" clip-rule="evenodd" d="M479.04 240.798H343.764C343.23 240.798 342.798 241.23 342.798 241.764V327.761C342.798 328.294 343.23 328.727 343.764 328.727H479.04C479.574 328.727 480.006 328.294 480.006 327.761V241.764C480.006 241.23 479.574 240.798 479.04 240.798ZM343.764 235C340.028 235 337 238.028 337 241.764V327.761C337 331.496 340.028 334.525 343.764 334.525H479.04C482.775 334.525 485.804 331.496 485.804 327.761V241.764C485.804 238.028 482.775 235 479.04 235H343.764Z" fill="#073236"/>
<mask id="mask0_2_1561" style="mask-type:alpha" maskUnits="userSpaceOnUse" x="346" y="244" width="131" height="82">
<path d="M346 249.519C346 246.471 348.666 244 351.955 244H471.045C474.334 244 477 246.471 477 249.519V319.68C477 322.728 474.334 325.199 471.045 325.199H351.955C348.666 325.199 346 322.728 346 319.68V249.519Z" fill="white"/>
</mask>
<g mask="url(#mask0_2_1561)">
<path d="M424.112 251.497C423.918 253.109 421.799 253.82 421.038 253.787L424.858 262.426C425.09 262.36 426.536 261.414 427.783 260.912C432.765 259.074 432.561 257.495 431.412 255.597C430.644 254.329 432.743 254.971 433.813 255.402C436.165 256.349 437.65 255.375 438.135 254.341C428.575 245.163 424.38 249.264 424.112 251.497Z" fill="#FBA489"/>
<path d="M433.813 255.4C436.165 256.347 437.65 255.374 438.135 254.339C439.596 253.065 442.235 252.3 444.606 255.236C446.977 258.172 445.721 261.971 444.805 266.453C444.355 268.656 443.547 269.652 444.664 272.087C445.729 274.411 444.603 275.344 445.189 278.613C445.592 280.854 443.797 282.086 443.544 285.219C443.337 287.775 440.541 288.421 438.915 291.472C437.86 293.452 434.353 294.543 432.238 293.792C429.739 292.904 429.988 289.176 430.68 286.616C431.198 284.695 430.781 284.739 429.956 286.602C429.219 288.266 428.981 289.328 427.412 290.413C425.226 291.927 421.803 290.242 421.874 286.451C421.936 283.102 419.791 280.153 419.002 278.726C417.135 275.351 425.591 261.955 425.591 261.955C425.591 261.955 427.106 260.905 427.846 260.719C432.026 259.669 432.561 257.493 431.412 255.595C430.68 254.387 431.461 254.454 433.813 255.4Z" fill="black"/>
<path d="M440.605 255.552C441.809 253.873 444.893 251.711 447.6 256.5C450.983 262.486 441.623 268.613 443.94 274.807M442.788 255.549C443.828 254.868 446.456 254.182 448.651 256.881C451.395 260.255 449.279 262.265 446.91 267.158C445.016 271.072 446.127 274.608 446.92 275.887" stroke="black" stroke-width="0.3"/>
<path d="M407.924 242.998L417.301 255.177C412.343 260.082 401.834 268.887 399.46 264.871C396.493 259.851 392.908 252.463 391.423 242.915C389.937 233.366 393.942 231.904 399.218 230.339C404.494 228.773 417.118 230.071 428.87 228.591C435.049 227.814 440.699 228.069 442.751 228.417C446.33 229.026 453.169 232.666 449.045 232.837C447.978 232.881 445.773 231.258 442.686 231.867C445.192 233.362 443.204 237.923 440.764 237.865C439.325 237.83 441.159 235.943 441.192 234.185C441.231 232.081 438.08 230.883 436.053 232.185C434.026 233.487 435.435 235.079 437.855 236.873C440.276 238.667 440.062 239.538 439.165 240.748C438.65 239.652 437.638 239.45 434.545 238.137C431.453 236.824 429.949 235.808 428.421 234.51C425.279 234.339 421.049 236.53 417.113 238.84C413.964 240.688 409.675 242.382 407.924 242.998Z" fill="#FBA489"/>
<path d="M417.301 255.177C412.343 260.082 401.834 268.887 399.46 264.871C397.216 261.073 394.617 255.919 392.842 249.5L409.85 245.5L417.301 255.177Z" fill="white"/>
<path d="M417.301 255.177C412.343 260.082 401.834 268.887 399.46 264.871C397.881 262.197 396.125 258.853 394.605 254.868L415.5 252.838L417.301 255.177Z" fill="#ECECEC"/>
<path d="M396.353 263.822C402.104 259.585 411.952 255.667 421.508 252.703C422.958 255.381 426.065 261.206 426.899 263.072C424.46 264.348 421.847 266.653 422.253 272.633C422.754 280.004 420.407 283.914 416.286 288.45C414.753 290.136 413.063 293.024 413.988 295.165C411.769 297.657 405.475 305.142 390.214 301.718C389.417 299.169 386.781 270.873 396.353 263.822Z" fill="white"/>
<path d="M405.5 277.5C406.3 287.5 395.022 288.61 389.282 287.915C389.349 282.885 389.831 277.304 391.164 272.633C395.61 270.089 404.7 267.5 405.5 277.5Z" fill="#ECECEC"/>
<path d="M409.001 261.536C403.748 261.279 391.019 264.227 385.311 265.733C385.765 262.567 385.75 258.872 385.246 252.657C384.742 246.441 385.31 244.689 386.62 243.303C389.696 241.802 392.794 238.866 395.462 236.614C398.256 234.254 393.946 235.457 390.659 237.003C387.372 238.55 387.188 235.062 387.959 233.525C389.102 231.248 390.541 231.166 391.633 232.357C392.725 233.548 394.504 233.397 394.059 231.679C393.713 230.345 392.069 228.383 389.368 229.856C394.192 224.56 393.649 221.641 391.418 223.576C388.604 226.016 386.597 228.666 380.965 240.207C379.015 244.204 373.903 256.563 371.758 263.42C369.612 270.277 369.204 274.007 371.117 276.553C373.03 279.1 377.096 281.898 391.676 282.848C406.257 283.798 412.911 281.694 416.973 275.677C421.035 269.66 415.568 261.856 409.001 261.536Z" fill="#FBA489"/>
<path d="M416.973 275.677C421.035 269.66 415.568 261.856 409.001 261.536C405.056 261.343 396.896 262.957 390.659 264.411L384 282.054C386.169 282.384 388.704 282.654 391.676 282.848C406.257 283.798 412.911 281.694 416.973 275.677Z" fill="white"/>
<path d="M407.923 242.998C409.675 242.382 413.964 240.688 417.113 238.84C421.049 236.53 425.279 234.339 428.421 234.51C429.948 235.808 431.453 236.824 434.545 238.137C437.638 239.45 438.65 239.652 439.165 240.748C440.062 239.538 440.276 238.667 437.855 236.873C435.435 235.079 434.026 233.487 436.053 232.185C438.08 230.883 441.231 232.081 441.192 234.185C441.159 235.943 439.325 237.83 440.763 237.865C443.204 237.923 445.192 233.362 442.686 231.867C445.773 231.258 447.978 232.881 449.045 232.837C453.169 232.666 446.33 229.026 442.75 228.417C440.699 228.069 435.049 227.814 428.87 228.591C417.118 230.071 404.494 228.773 399.218 230.339C393.942 231.904 389.937 233.366 391.423 242.915C391.726 244.867 392.118 246.73 392.574 248.5C394.02 254.111 396.115 258.797 398.118 262.5M407.923 242.998C406.452 242.975 403.28 242.55 402.361 241.032M407.923 242.998L409.85 245.5L416.597 254.263" stroke="#B7735E" stroke-width="0.2"/>
<path d="M385.311 265.733C391.019 264.227 403.748 261.279 409.001 261.536C415.568 261.856 421.035 269.66 416.973 275.677C412.911 281.694 406.257 283.798 391.676 282.848C377.096 281.898 373.03 279.1 371.117 276.553C369.204 274.007 369.612 270.277 371.758 263.42C373.903 256.563 379.015 244.204 380.965 240.207C386.597 228.666 388.604 226.016 391.418 223.576C393.649 221.641 394.192 224.56 389.368 229.856C392.069 228.383 393.713 230.345 394.059 231.679C394.504 233.397 392.725 233.548 391.633 232.357C390.541 231.166 389.102 231.248 387.959 233.525C387.188 235.062 387.372 238.55 390.659 237.003C393.946 235.457 398.256 234.254 395.462 236.614C392.794 238.866 389.696 241.802 386.62 243.303C385.31 244.689 384.742 246.441 385.246 252.657C385.75 258.872 385.765 262.567 385.311 265.733ZM385.311 265.733C385.259 266.258 384.704 267.716 382.902 269.341" stroke="#B7735E" stroke-width="0.2"/>
<path d="M413.98 295.27C407.266 302.844 395.375 302.736 390.268 301.736C390.395 315.233 404.414 329.38 411.641 330.951C418.867 332.523 433.166 336.984 448.038 336.532C462.909 336.08 462.128 330.28 461.846 323.324C461.314 309.56 457.301 289.39 455.361 281.025L445.327 283.742L445.544 317.292C442.944 315.977 436.432 312.731 431.179 310.272C429.873 300.646 417.677 298.98 414.681 298.631C415.075 297.341 415.059 295.395 413.98 295.27Z" fill="#684945"/>
<path d="M413.98 295.27C407.266 302.844 395.375 302.736 390.268 301.736C390.277 302.633 390.346 303.533 390.471 304.432C399.371 305.47 404.389 304.597 409.201 301.879C414.542 307.118 431.593 322.346 441.43 326.53C451.267 330.714 457.584 332.787 458.59 316.871C459.395 304.137 455.937 287.895 454.107 281.365L451.347 282.112C455.551 296.061 458.185 313.058 456.114 321.44C454.043 329.823 446.709 326.053 433.364 317.573C422.689 310.789 414.526 303.431 411.779 300.601L414.681 298.631C415.074 297.341 415.058 295.395 413.98 295.27Z" fill="#4F2F2B"/>
<path d="M443.653 280.388C444.89 282.282 445.284 283.413 445.327 283.742L454.483 281.263C455.042 279.595 456.175 275.508 456.234 272.503C456.307 268.746 456.461 267.428 458.045 265.304C459.629 263.181 459.437 261.701 457.16 261.436C454.883 261.17 452.862 262.878 451.751 266.149C450.641 269.421 450.473 270.859 445.76 272.739C441.046 274.618 442.107 278.022 443.653 280.388Z" fill="#FBA489"/>
<path d="M392.349 311.091C396.546 321.134 406.094 329.747 411.641 330.954L403.274 330.828L402.323 338.977C389.024 339.491 368.074 337.898 359.921 332.817C351.768 327.736 351.302 320.273 361.891 315.92C370.363 312.438 385.726 311.25 392.349 311.091Z" fill="#684945"/>
<path d="M371.475 320.196C383.896 319.507 397.85 326.997 403.274 330.828L411.641 330.954C406.956 329.935 399.418 323.632 394.659 315.648C394.911 317.231 395.575 320.885 396.214 322.828C391.427 320.687 381.609 317.613 371.475 320.196Z" fill="#4F2F2B"/>
<path d="M403.274 330.825L402.323 338.974C402.683 339.016 403.985 339.047 406.011 339.647C408.711 340.448 413.273 341.952 416.021 341.301C418.769 340.649 421.512 341.091 423.155 342.619C424.799 344.146 426.633 345.089 426.982 342.093C427.332 339.097 425.208 337.513 421.591 336.241C417.974 334.969 416.712 334.336 415.623 331.172C414.534 328.009 411.241 326.046 408.029 328.586C405.46 330.619 403.788 330.926 403.274 330.825Z" fill="#F6ACA3"/>
</g>
<g filter="url(#filter0_b_2_1561)">
<path d="M405.229 273.866C407.233 272.527 409.59 271.812 412 271.812C415.231 271.816 418.329 273.101 420.614 275.386C422.899 277.671 424.184 280.769 424.188 284C424.188 286.41 423.473 288.767 422.134 290.771C420.794 292.775 418.891 294.337 416.664 295.26C414.437 296.182 411.986 296.424 409.622 295.953C407.258 295.483 405.087 294.322 403.382 292.618C401.678 290.913 400.517 288.742 400.047 286.378C399.576 284.014 399.818 281.563 400.74 279.336C401.663 277.109 403.225 275.206 405.229 273.866Z" fill="#F76785"/>
</g>
<g filter="url(#filter1_d_2_1561)">
<path d="M416.27 284.78L410.645 288.53C410.504 288.624 410.34 288.678 410.17 288.687C410.001 288.695 409.832 288.657 409.682 288.577C409.533 288.497 409.408 288.378 409.32 288.232C409.233 288.086 409.187 287.92 409.188 287.75V280.25C409.187 280.08 409.233 279.914 409.32 279.768C409.408 279.622 409.533 279.503 409.682 279.423C409.832 279.343 410.001 279.305 410.17 279.313C410.34 279.321 410.504 279.376 410.645 279.47L416.27 283.22C416.398 283.305 416.504 283.421 416.577 283.558C416.649 283.694 416.688 283.846 416.688 284C416.688 284.154 416.649 284.306 416.577 284.442C416.504 284.578 416.398 284.694 416.27 284.78Z" fill="white"/>
</g>
<path d="M394.165 529.001H1090.83L1172 595.646H313L394.165 529.001Z" fill="#BFD6ED"/>
<path d="M313 595.647H1172V601.002C823.5 609.501 640 604.501 313 601.002V595.647Z" fill="#8FABC6"/>
<ellipse cx="743.12" cy="563.91" rx="292.646" ry="26.1818" fill="#8FABC6"/>
<path d="M795.322 205.715C794.519 212.395 785.735 215.34 782.581 215.203L798.414 251.007C799.374 250.732 805.369 246.813 810.533 244.732C831.18 237.118 830.337 230.57 825.574 222.707C822.39 217.45 831.088 220.113 835.526 221.899C845.273 225.823 851.427 221.788 853.437 217.5C813.817 179.466 796.434 196.46 795.322 205.715Z" fill="#FBA489"/>
<path d="M835.526 221.899C845.273 225.823 851.427 221.788 853.436 217.5C859.49 212.221 870.429 209.05 880.255 221.217C890.081 233.384 884.876 249.127 881.08 267.702C879.214 276.832 875.866 280.962 880.492 291.05C884.91 300.682 880.24 304.548 882.672 318.096C884.34 327.384 876.902 332.49 875.852 345.473C874.995 356.068 863.408 358.742 856.67 371.386C852.296 379.594 832.393 388.281 822 383.5C810.909 378.398 827.622 342.055 819.541 351.205C802.5 370.5 789.919 378.543 790.5 347.5C790.76 333.623 777.414 324.477 774.144 318.563C766.41 304.577 801.451 249.063 801.451 249.063C801.451 249.063 807.729 244.711 810.797 243.94C828.122 239.588 830.337 230.57 825.574 222.706C822.541 217.699 825.779 217.976 835.526 221.899Z" fill="#1F2E43"/>
<path d="M863.674 222.528C868.661 215.569 881.441 206.612 892.66 226.457C906.683 251.265 867.893 276.657 877.494 302.327M872.719 222.517C877.028 219.696 887.922 216.851 897.019 228.037C908.39 242.019 899.618 250.347 889.804 270.625C881.953 286.848 886.559 301.503 889.844 306.803" stroke="#1F2E43"/>
<path d="M766.318 153.266C753.268 160.925 735.492 167.945 728.235 170.498L747.665 195.733L670.948 214C666.312 200.909 662.36 186.274 659.852 170.152C653.695 130.581 670.292 124.521 692.158 118.033C714.024 111.545 766.338 116.923 815.041 110.793C840.649 107.57 864.061 108.626 872.565 110.071C887.399 112.593 915.743 127.68 898.652 128.388C894.23 128.571 885.091 121.845 872.297 124.366C882.683 130.563 874.446 149.466 864.331 149.223C858.369 149.08 865.97 141.261 866.106 133.974C866.27 125.254 853.211 120.288 844.81 125.684C836.408 131.08 842.247 137.677 852.278 145.113C862.31 152.549 861.424 156.157 857.706 161.172C855.57 156.631 851.377 155.793 838.561 150.351C825.745 144.909 819.511 140.7 813.182 135.322C800.16 134.61 782.63 143.693 766.318 153.266Z" fill="#FBA489"/>
<path d="M767.096 220.969C746.549 241.295 702.997 277.787 693.161 261.143C682.727 243.486 670.447 218.765 663.206 187.5C674.5 188.5 715 175.5 734.781 179L767.096 220.969Z" fill="#21C58E"/>
<path opacity="0.4" d="M767.096 220.969C746.549 241.295 702.997 277.787 693.161 261.143C686.262 249.468 678.555 234.703 672.032 217C716.5 225 740 206 761.73 214L767.096 220.969Z" fill="#1EBB87"/>
<path d="M680.285 256.795C704.118 239.238 744.929 222.999 784.531 210.715C790.539 221.817 803.418 245.953 806.874 253.687C796.764 258.976 785.936 268.527 787.62 293.312C789.695 323.856 779.969 340.062 762.889 358.859C756.539 365.847 749.665 377.627 753.5 386.5C744.305 396.83 718.086 428.033 654.841 413.847C651.538 403.282 640.616 286.018 680.285 256.795Z" fill="#21C58E"/>
<path d="M716.5 326.5C691.7 353.05 662.51 356.229 651.015 354.5C651.284 340.27 652.372 325.086 654.841 310.834C685.727 304.993 741.3 299.949 716.5 326.5Z" fill="#1EBB87"/>
<path d="M659.852 170.152C653.695 130.581 670.292 124.521 692.158 118.033C714.024 111.545 766.338 116.923 815.041 110.793C840.649 107.569 864.062 108.626 872.565 110.071C887.399 112.593 915.743 127.68 898.652 128.388C894.231 128.571 885.091 121.845 872.297 124.366C882.683 130.563 874.446 149.466 864.331 149.223C858.369 149.079 865.97 141.261 866.106 133.974C866.27 125.254 853.211 120.288 844.81 125.684C836.408 131.08 842.247 137.677 852.278 145.113C862.31 152.549 861.424 156.156 857.706 161.172C855.57 156.631 851.377 155.793 838.561 150.351C825.745 144.909 819.511 140.7 813.182 135.322C800.16 134.61 782.63 143.693 766.318 153.266C753.268 160.924 735.492 167.945 728.235 170.498C722.138 170.403 708.992 168.64 705.181 162.349" stroke="#E07A5B"/>
<path d="M575.7 309.564C583.627 320.117 600.478 331.713 660.903 335.65L699 250.602C675.989 254.46 649.458 260.781 634.524 264.72C636.406 251.602 636.343 236.29 634.253 210.531C632.164 184.773 634.521 177.511 639.947 171.767C652.695 165.547 665.536 153.379 676.59 144.045C688.171 134.267 670.309 139.252 656.686 145.66C643.064 152.069 642.303 137.615 645.499 131.247C650.235 121.81 656.196 121.47 660.722 126.406C665.247 131.343 672.622 130.714 670.776 123.594C669.342 118.066 662.53 109.937 651.337 116.041C671.329 94.0933 669.078 81.9964 659.832 90.013C648.168 100.126 639.854 111.109 616.514 158.936C608.43 175.502 587.246 226.719 578.356 255.136C569.465 283.552 567.773 299.011 575.7 309.564Z" fill="#FBA489"/>
<path d="M765.738 305.932C782.572 280.996 759.913 248.656 732.699 247.328C713.122 246.372 668.495 256.153 642.5 262.672C630 281.5 636 311.5 624.541 331.629C634.484 333.328 646.446 334.709 660.903 335.65C721.327 339.588 748.905 330.868 765.738 305.932Z" fill="#21C58E"/>
<path d="M711.5 248.72C719.877 247.627 727.256 247.062 732.699 247.328C759.913 248.656 782.572 280.996 765.738 305.932C751.435 327.12 729.375 336.6 686 336.556" stroke="#129E6F"/>
<path d="M624.541 279.674C632.009 272.94 634.308 266.899 634.524 264.72C636.406 251.602 636.343 236.29 634.253 210.531C632.164 184.773 634.521 177.511 639.947 171.767C652.695 165.547 665.536 153.379 676.59 144.045C688.171 134.267 670.309 139.252 656.686 145.66C643.064 152.069 642.303 137.615 645.499 131.247C650.235 121.81 656.196 121.47 660.722 126.406C665.247 131.343 672.622 130.714 670.776 123.594C669.342 118.066 662.53 109.937 651.337 116.041C671.329 94.0933 669.078 81.9964 659.832 90.013C648.168 100.126 639.854 111.109 616.514 158.936C608.43 175.502 587.246 226.719 578.356 255.136C569.465 283.552 567.773 299.011 575.7 309.564C579.922 315.185 586.677 321.102 601.199 326" stroke="#E07A5B"/>
<path d="M753.5 386.5C725.677 417.888 676.23 418.074 655.068 413.928C655.592 469.865 713.692 528.49 743.639 535.003C773.586 541.516 832.843 560.004 894.475 558.131C956.107 556.258 952.87 532.221 951.702 503.392C949.494 446.352 932.865 362.763 924.827 328.099L883.242 339.357L884.142 478.397C873.368 472.946 846.378 459.496 824.611 449.306C819.196 409.41 768.656 402.509 756.24 401.061C757.87 395.714 757 388 753.5 386.5Z" fill="#7D5C58"/>
<path opacity="0.5" d="M753.5 386.5C725.677 417.888 676.23 418.073 655.068 413.927C655.103 417.645 655.392 421.375 655.91 425.1C692.791 429.401 713.588 425.786 733.527 414.52C755.662 436.23 826.327 499.341 867.092 516.68C907.858 534.019 934.039 542.61 938.208 476.649C941.544 423.88 927.211 356.566 919.628 329.506L908.193 332.602C925.614 390.409 936.528 460.847 927.946 495.587C919.363 530.327 888.969 514.701 833.668 479.558C789.427 451.444 755.597 420.953 744.213 409.222L756.24 401.06C757.87 395.713 757 388.5 753.5 386.5Z" fill="#563531"/>
<path d="M876.305 325.46C881.431 333.306 883.066 337.994 883.242 339.357L921.188 329.083C923.504 322.172 928.198 305.235 928.442 292.779C928.748 277.21 929.385 271.747 935.948 262.948C942.512 254.149 941.717 248.016 932.281 246.915C922.845 245.815 914.469 252.892 909.867 266.45C905.265 280.009 904.57 285.968 885.037 293.758C865.503 301.548 869.899 315.652 876.305 325.46Z" fill="#FBA489"/>
<path d="M663.692 452.688C681.084 494.307 720.654 530.005 743.639 535.003L708.966 534.483L705.027 568.255C649.91 570.384 563.09 563.782 529.302 542.727C495.513 521.671 493.583 490.739 537.468 472.701C572.576 458.271 636.245 453.347 663.692 452.688Z" fill="#7D5C58"/>
<path d="M577.183 490.421C628.66 487.564 686.487 518.605 708.966 534.483L743.639 535.003C724.226 530.781 692.984 504.662 673.263 471.572C674.307 478.136 677.057 493.277 679.707 501.328C659.87 492.455 619.18 479.719 577.183 490.421Z" fill="#684945"/>
<path d="M708.966 534.483L705.027 568.254C706.517 568.428 711.914 568.554 720.307 571.043C731.498 574.362 750.403 580.594 761.793 577.895C773.182 575.196 784.547 577.025 791.359 583.357C798.171 589.689 805.77 593.595 807.218 581.179C808.666 568.763 799.867 562.2 784.877 556.928C769.887 551.656 764.655 549.032 760.144 535.921C755.632 522.811 741.983 514.675 728.673 525.204C718.026 533.627 711.099 534.9 708.966 534.483Z" fill="#FBA489"/>
<defs>
<filter id="filter0_b_2_1561" x="395.812" y="267.812" width="32.375" height="32.375" filterUnits="userSpaceOnUse" color-interpolation-filters="sRGB">
<feFlood flood-opacity="0" result="BackgroundImageFix"/>
<feGaussianBlur in="BackgroundImage" stdDeviation="2"/>
<feComposite in2="SourceAlpha" operator="in" result="effect1_backgroundBlur_2_1561"/>
<feBlend mode="normal" in="SourceGraphic" in2="effect1_backgroundBlur_2_1561" result="shape"/>
</filter>
<filter id="filter1_d_2_1561" x="403.188" y="276.312" width="19.5" height="21.3757" filterUnits="userSpaceOnUse" color-interpolation-filters="sRGB">
<feFlood flood-opacity="0" result="BackgroundImageFix"/>
<feColorMatrix in="SourceAlpha" type="matrix" values="0 0 0 0 0 0 0 0 0 0 0 0 0 0 0 0 0 0 127 0" result="hardAlpha"/>
<feOffset dy="3"/>
<feGaussianBlur stdDeviation="3"/>
<feComposite in2="hardAlpha" operator="out"/>
<feColorMatrix type="matrix" values="0 0 0 0 0.679167 0 0 0 0 0.183941 0 0 0 0 0.287113 0 0 0 0.4 0"/>
<feBlend mode="normal" in2="BackgroundImageFix" result="effect1_dropShadow_2_1561"/>
<feBlend mode="normal" in="SourceGraphic" in2="effect1_dropShadow_2_1561" result="shape"/>
</filter>
<linearGradient id="paint0_linear_2_1561" x1="139.25" y1="111.5" x2="204.5" y2="326.5" gradientUnits="userSpaceOnUse">
<stop stop-color="#ABD8FF" stop-opacity="0.51"/>
<stop offset="1" stop-color="#ABD8FF" stop-opacity="0"/>
</linearGradient>
</defs>
</svg>
