<svg width="83" height="33" viewBox="0 0 83 33" fill="none" xmlns="http://www.w3.org/2000/svg">
<path d="M56.4836 13.1193C56.3416 12.6591 56.1456 12.2472 55.8956 11.8835C55.6512 11.5142 55.3558 11.1989 55.0092 10.9375C54.6683 10.6761 54.2762 10.4801 53.8331 10.3494C53.3899 10.2131 52.9069 10.1449 52.3842 10.1449C51.4467 10.1449 50.6115 10.3807 49.8785 10.8523C49.1456 11.3239 48.5688 12.017 48.1484 12.9318C47.7336 13.8409 47.5262 14.9489 47.5262 16.2557C47.5262 17.5739 47.7336 18.6903 48.1484 19.6051C48.5632 20.5199 49.1399 21.2159 49.8785 21.6932C50.6171 22.1648 51.4751 22.4006 52.4524 22.4006C53.3387 22.4006 54.1058 22.2301 54.7535 21.8892C55.4069 21.5483 55.9098 21.0653 56.262 20.4403C56.6143 19.8097 56.7904 19.071 56.7904 18.2244L57.5063 18.3352H52.7677V15.8636H59.8501V17.9602C59.8501 19.4545 59.5319 20.7472 58.8956 21.8381C58.2592 22.929 57.3842 23.7699 56.2706 24.3608C55.1569 24.946 53.8785 25.2386 52.4353 25.2386C50.8274 25.2386 49.4154 24.8778 48.1995 24.1562C46.9893 23.429 46.0433 22.3977 45.3615 21.0625C44.6853 19.7216 44.3473 18.1307 44.3473 16.2898C44.3473 14.8807 44.5461 13.6222 44.9438 12.5142C45.3473 11.4062 45.9098 10.4659 46.6313 9.69318C47.3529 8.91477 48.1995 8.32386 49.1711 7.92045C50.1427 7.51136 51.1995 7.30682 52.3416 7.30682C53.3075 7.30682 54.2081 7.44886 55.0433 7.73295C55.8785 8.01136 56.62 8.40909 57.2677 8.92614C57.9211 9.44318 58.4581 10.0568 58.8785 10.767C59.299 11.4773 59.5745 12.2614 59.7052 13.1193H56.4836ZM65.3765 7.54545V25H62.2913V7.54545H65.3765ZM73.7793 25.2557C72.5009 25.2557 71.3929 24.9744 70.4554 24.4119C69.5179 23.8494 68.7907 23.0625 68.2736 22.0511C67.7623 21.0398 67.5066 19.858 67.5066 18.5057C67.5066 17.1534 67.7623 15.9687 68.2736 14.9517C68.7907 13.9347 69.5179 13.1449 70.4554 12.5824C71.3929 12.0199 72.5009 11.7386 73.7793 11.7386C75.0577 11.7386 76.1657 12.0199 77.1032 12.5824C78.0407 13.1449 78.7651 13.9347 79.2765 14.9517C79.7935 15.9687 80.052 17.1534 80.052 18.5057C80.052 19.858 79.7935 21.0398 79.2765 22.0511C78.7651 23.0625 78.0407 23.8494 77.1032 24.4119C76.1657 24.9744 75.0577 25.2557 73.7793 25.2557ZM73.7963 22.7841C74.4895 22.7841 75.0691 22.5937 75.535 22.2131C76.0009 21.8267 76.3475 21.3097 76.5748 20.6619C76.8077 20.0142 76.9242 19.2926 76.9242 18.4972C76.9242 17.696 76.8077 16.9716 76.5748 16.3239C76.3475 15.6705 76.0009 15.1506 75.535 14.7642C75.0691 14.3778 74.4895 14.1847 73.7963 14.1847C73.0861 14.1847 72.4952 14.3778 72.0236 14.7642C71.5577 15.1506 71.2083 15.6705 70.9753 16.3239C70.7481 16.9716 70.6344 17.696 70.6344 18.4972C70.6344 19.2926 70.7481 20.0142 70.9753 20.6619C71.2083 21.3097 71.5577 21.8267 72.0236 22.2131C72.4952 22.5937 73.0861 22.7841 73.7963 22.7841Z" fill="#072E75"/>
<path d="M33.069 16.5345C33.069 11.6229 30.9275 7.21153 27.5272 4.18314C24.5595 5.96846 18.5456 11.5221 17.443 19.3508C16.5729 25.5285 19.26 28.4357 19.6234 32.781C27.2789 31.3343 33.069 24.6106 33.069 16.5345Z" fill="#21C58E"/>
<path fill-rule="evenodd" clip-rule="evenodd" d="M16.5345 0C20.7547 0 24.6056 1.58107 27.5272 4.18313C18 8.5 12 23.5 14.9901 32.9978C6.58246 32.219 0 25.1455 0 16.5345C0 11.6229 2.14154 7.21158 5.54178 4.18313C8.5398 6.08963 14.3905 11.9376 13.809 20.0776C17.0069 12.4463 11.023 5.24564 7.63131 2.59931C10.2013 0.953914 13.2565 0 16.5345 0ZM16.0803 9.99338C17.0336 9.99338 17.8064 9.0172 17.8064 7.81301C17.8064 6.60881 17.0336 5.63263 16.0803 5.63263C15.1269 5.63263 14.3541 6.60881 14.3541 7.81301C14.3541 9.0172 15.1269 9.99338 16.0803 9.99338Z" fill="#072E75"/>
</svg>
