<svg width="481" height="549" viewBox="0 0 481 549" fill="none" xmlns="http://www.w3.org/2000/svg">
<path opacity="0.2" d="M242.117 118.486C245.263 116.619 249.178 116.619 252.325 118.486L315.428 155.94L379.416 191.862C382.606 193.653 384.564 197.044 384.52 200.703L383.635 274.079L384.52 347.454C384.564 351.113 382.606 354.504 379.416 356.295L315.428 392.217L252.325 429.671C249.178 431.538 245.263 431.538 242.117 429.671L179.014 392.217L115.026 356.295C111.835 354.504 109.878 351.113 109.922 347.454L110.806 274.079L109.922 200.703C109.878 197.044 111.835 193.653 115.026 191.862L179.014 155.94L242.117 118.486Z" stroke="#919AA4" stroke-width="1.5" stroke-linecap="round" stroke-dasharray="8 8"/>
<path opacity="0.2" d="M242.117 43.8868C245.263 42.0193 249.179 42.0193 252.325 43.8868L347.506 100.38L444.021 154.562C447.211 156.354 449.169 159.744 449.125 163.403L447.791 274.078L449.125 384.754C449.169 388.413 447.211 391.803 444.021 393.594L347.506 447.777L252.325 504.27C249.179 506.138 245.263 506.138 242.117 504.27L146.936 447.777L50.4212 393.594C47.2307 391.803 45.2731 388.413 45.3172 384.754L46.651 274.078L45.3172 163.403C45.2731 159.744 47.2307 156.354 50.4212 154.562L146.936 100.38L242.117 43.8868Z" stroke="#919AA4" stroke-width="1.5" stroke-linecap="round" stroke-dasharray="8 8"/>
<path d="M242.2 187.205C245.347 185.337 249.262 185.337 252.408 187.205L286.135 207.223L320.335 226.422C323.525 228.213 325.483 231.604 325.439 235.263L324.966 274.48L325.439 313.697C325.483 317.356 323.525 320.746 320.335 322.538L286.135 341.737L252.408 361.755C249.262 363.622 245.347 363.622 242.2 361.755L208.473 341.737L174.274 322.538C171.083 320.746 169.126 317.356 169.17 313.697L169.643 274.48L169.17 235.263C169.126 231.604 171.083 228.213 174.274 226.422L208.473 207.223L242.2 187.205Z" fill="white"/>
<path d="M241.906 292.293H245.128C244.591 288.867 241.625 286.481 237.764 286.481C233.196 286.481 229.77 289.839 229.77 295.464C229.77 300.986 233.043 304.412 237.858 304.412C242.179 304.412 245.273 301.634 245.273 297.134V295.037H238.191V297.509H242.213C242.162 299.998 240.5 301.574 237.875 301.574C234.952 301.574 232.949 299.384 232.949 295.43C232.949 291.501 234.986 289.319 237.807 289.319C239.912 289.319 241.344 290.444 241.906 292.293ZM250.799 286.719H247.714V304.174H250.799V286.719ZM259.202 304.43C263.037 304.43 265.475 301.728 265.475 297.68C265.475 293.623 263.037 290.912 259.202 290.912C255.367 290.912 252.929 293.623 252.929 297.68C252.929 301.728 255.367 304.43 259.202 304.43ZM259.219 301.958C257.097 301.958 256.057 300.066 256.057 297.671C256.057 295.276 257.097 293.358 259.219 293.358C261.307 293.358 262.347 295.276 262.347 297.671C262.347 300.066 261.307 301.958 259.219 301.958Z" fill="#072E75"/>
<path d="M263.069 254.71C263.069 249.799 260.927 245.387 257.527 242.359C254.559 244.144 248.546 249.698 247.443 257.527C246.573 263.704 249.26 266.611 249.623 270.957C257.279 269.51 263.069 262.786 263.069 254.71Z" fill="#21C58E"/>
<path fill-rule="evenodd" clip-rule="evenodd" d="M246.535 238.176C250.755 238.176 254.606 239.757 257.527 242.359C248 246.676 242 261.676 244.99 271.174C236.582 270.395 230 263.321 230 254.71C230 249.799 232.142 245.387 235.542 242.359C238.54 244.265 244.39 250.113 243.809 258.253C247.007 250.622 241.023 243.421 237.631 240.775C240.201 239.13 243.256 238.176 246.535 238.176ZM246.08 248.169C247.034 248.169 247.806 247.193 247.806 245.989C247.806 244.785 247.034 243.808 246.08 243.808C245.127 243.808 244.354 244.785 244.354 245.989C244.354 247.193 245.127 248.169 246.08 248.169Z" fill="#072E75"/>
<path d="M375.323 392.822C398.145 392.822 416.647 374.321 416.647 351.499C416.647 328.677 398.145 310.176 375.323 310.176C352.501 310.176 334 328.677 334 351.499C334 374.321 352.501 392.822 375.323 392.822Z" fill="white"/>
<path d="M386.993 364.694C371.89 375.182 367.415 369.063 367.065 364.694L369.094 343.736L386.544 333.131L384.821 363.746L386.993 364.694Z" fill="url(#paint0_linear_60_79)"/>
<path d="M411.412 371.764C404.343 384.399 390.83 392.941 375.323 392.941C360.972 392.941 348.33 385.626 340.922 374.522C343.399 372.462 346.314 370.933 349.732 370.051C356.047 368.422 363.919 365.801 367.065 364.694C367.415 369.064 376.76 374.835 384.873 363.735C391.257 365.743 400.137 368.075 406.616 369.776C408.124 370.172 409.502 370.534 410.689 370.85C410.936 371.151 411.177 371.455 411.412 371.764Z" fill="#58B1FF"/>
<path d="M384.874 363.735C376.76 374.835 367.416 369.064 367.066 364.694C366.155 365.015 364.848 365.462 363.298 365.975C363.562 369.102 365.172 375.251 372.956 375.251C380.507 375.251 387.245 369.467 389.487 365.123C387.861 364.651 386.304 364.185 384.874 363.735Z" fill="#2C89DB"/>
<path d="M387.734 338.682C387.583 340.517 387.752 342.571 388.376 342.692C388.145 340.161 389.965 339.635 390.905 339.689C393.899 340.273 389.574 348.495 386.982 348.507C385.108 363.026 365.887 363.299 364.832 345.867C362.529 343.734 361.921 336.233 364.581 339.213C364.624 339.511 364.651 339.818 364.656 340.135L365.155 340.232C365.716 337.362 367.329 330.425 366.872 328.782C368.966 327.159 371.663 326.443 374.403 326.31C380.048 326.037 385.87 328.243 386.946 330.11C389.05 333.758 386.045 334.726 385.851 335.724C387.646 335.815 387.902 336.642 387.734 338.682Z" fill="#FFC0AE"/>
<path d="M370.692 321.79C359.104 315.238 361.847 332.491 364.667 341.47C366.556 338.252 366.87 331.707 367.115 330.139C367.115 330.139 367.58 330.888 370.28 328.122C371.502 331.939 373.559 332.944 377.002 334.292C377.238 334.413 377.478 334.507 377.717 334.57L377.703 334.564C377.463 334.472 377.229 334.381 377.002 334.292C375.407 333.473 373.906 331.365 373.286 328.438C374.115 331.603 380.367 336.508 384.283 336.943C379.299 333.422 376.727 327.917 376.283 326.563C380.756 334.556 385.676 337.133 387.577 337.423C386.783 340.538 385.287 346.537 385.655 345.613C387.495 341.58 389.759 341.729 389.759 344.095C389.759 344.88 389.049 348.28 386.546 348.69C386.345 349.808 385.485 352.584 385.08 353.832C386.989 352.412 396.203 342.155 392.396 341.839C396.806 339.744 395.457 335.095 394.751 333.75C394.142 332.591 396.671 330.924 398.011 330.236C397.613 330.308 396.345 330.344 394.461 329.91C389.977 328.875 394.461 327.917 392.396 327.917C388.375 327.301 389.715 321.577 382.035 317.375C374.355 313.172 371.064 321.979 370.888 321.79C370.525 321.79 371.893 321.863 370.692 321.79Z" fill="#292742"/>
<path d="M255.323 82.822C278.145 82.822 296.647 64.3211 296.647 41.4987C296.647 18.6767 278.145 0.175781 255.323 0.175781C232.501 0.175781 214 18.6767 214 41.4987C214 64.3211 232.501 82.822 255.323 82.822Z" fill="white"/>
<path d="M285.687 69.5291C285.926 66.5875 285.737 64.389 284.871 63.6437C284.289 63.1393 283.538 62.6686 282.692 62.234C279.475 60.5818 274.854 59.4577 272.523 59.042L263.072 66.0654C263.248 72.9294 263.08 78.0008 262.677 82.1695C271.705 80.5479 279.715 75.994 285.687 69.5291Z" fill="#9093FD"/>
<path d="M262.678 82.1695C260.291 82.5982 257.833 82.822 255.323 82.822C252.775 82.822 250.281 82.5914 247.861 82.15C247.835 81.0641 247.818 80.2702 247.818 79.8691C247.818 77.4475 247.416 67.9618 247.21 63.5214L254.597 63.1582L258.837 69.213L263.072 66.0646C263.248 72.9291 263.08 78.0006 262.678 82.1695Z" fill="#5256C4"/>
<path d="M247.862 82.1502C247.835 81.0642 247.818 80.2702 247.818 79.8693C247.818 77.4476 247.415 67.9615 247.214 63.5215L244.67 58.6777C243.418 59.0007 240.045 59.6463 236.557 59.6463C233.828 60.1518 229.246 64.5193 225.59 70.1962C231.465 76.282 239.191 80.569 247.862 82.1502Z" fill="#9093FD"/>
<path d="M242.733 35.9121C243.944 34.3379 244.305 32.7637 244.063 31.6737C244.67 31.4315 246.968 30.342 246.242 27.072C248.06 26.8299 249.271 25.3767 249.271 24.4082C250.723 25.0135 252.903 25.3767 255.324 23.1971C256.777 25.1346 258.718 27.5567 262.711 24.8924C263.318 27.4356 263.802 28.6462 267.073 29.4941C267.073 32.7637 267.8 35.5489 271.066 35.67C270.824 34.9432 271.674 33.6115 273.368 34.3379C275.063 35.0643 276.639 37.9706 274.214 40.877C273.368 42.0881 270.34 42.4512 269.737 41.3613C269.351 42.9043 267.66 45.983 263.437 47.9069L264.89 51.8967C265.739 51.5737 267.484 50.5404 267.676 48.9903C269.494 49.4746 272.277 48.264 272.519 46.2051C274.579 46.4476 276.639 46.9318 278.453 44.1465C279.906 41.9186 278.17 39.2625 277.124 38.2128C278.051 37.6074 279.906 35.7669 279.906 33.2479C279.906 30.7294 278.453 29.1309 277.727 28.6462C279.221 27.072 280.85 23.5119 275.429 21.865C276.639 18.7165 275.429 15.8102 273.245 14.2359C271.505 12.9769 268.403 13.9536 267.073 14.5995C267.635 13.6708 268.354 11.5237 266.708 10.3611C264.648 8.90787 260.897 10.7242 258.352 13.2674C258.837 10.1189 258.837 3.82195 250.239 7.0915C249.271 6.36511 243.944 5.7598 243.579 9.5136C240.915 9.02935 238.978 9.27148 237.767 12.1778C236.799 14.5027 238.252 16.537 239.097 17.2638C238.17 17.2231 236.339 17.9417 236.434 21.1386C236.532 24.3355 237.767 25.2963 238.371 25.3771C236.635 26.1843 234.595 28.8892 240.308 33.2483C240.094 33.5397 239.914 33.8696 239.766 34.2287C238.19 34.8267 236.778 36.6545 237.767 38.697C238.633 40.4916 239.725 41.3178 240.743 41.5985C241.005 41.9551 241.305 42.283 241.641 42.5727C241.157 45.3576 242.003 49.2329 244.912 49.475C245.639 52.1392 250.604 54.7263 251.692 51.8967C252.566 49.633 252.176 48.9267 251.872 48.8566C248.368 47.9357 244.941 45.7241 243.46 41.1191C242.889 41.5615 241.859 41.905 240.743 41.5985C239.725 41.3178 238.633 40.4916 237.767 38.697C236.778 36.6545 238.19 34.8267 239.766 34.2287C241.083 33.7285 242.512 34.0904 242.733 35.9121Z" fill="#292742"/>
<path d="M264.652 45.8418L265.739 56.8611L254.601 63.1581L249.878 58.3143L250.239 47.2946L264.652 45.8418Z" fill="#FFBFC7"/>
<path d="M250.239 47.2946L264.652 45.8418L249.878 58.3143L250.239 47.2946Z" fill="#EC9BA5"/>
<path d="M254.601 63.1587L249.878 56.6191L244.305 58.7991L249.997 69.2131L254.601 63.1587Z" fill="#F7F4FB"/>
<path d="M254.597 63.1588L266.347 56.0139L272.523 59.0413L258.836 69.2136L254.597 63.1588Z" fill="#F6F6F6"/>
<path d="M243.459 41.1186C246.172 49.5471 255.405 49.9588 259.686 49.1109C266.707 47.6577 269.252 43.2986 269.736 41.3612C270.339 42.4511 273.368 42.0875 274.217 40.8769C276.639 37.9705 275.063 35.0642 273.368 34.3378C271.673 33.611 270.824 34.9431 271.066 35.6695C267.799 35.5484 267.073 32.7636 267.073 29.4936C263.802 28.6461 263.318 27.4351 262.71 24.8923C258.717 27.5562 256.78 25.1345 255.323 23.197C252.902 25.3766 250.723 25.0134 249.27 24.4077C249.27 25.3766 248.059 26.8298 246.241 27.0719C246.968 30.3415 244.67 31.4314 244.062 31.6736C244.304 32.7635 243.943 34.3378 242.733 35.9116C242.248 31.9157 235.949 34.9431 237.767 38.6969C239.585 42.4507 242.367 41.9665 243.459 41.1186Z" fill="#FFBFC7"/>
<path d="M249.323 548.822C272.145 548.822 290.647 530.321 290.647 507.499C290.647 484.677 272.145 466.176 249.323 466.176C226.501 466.176 208 484.677 208 507.499C208 530.321 226.501 548.822 249.323 548.822Z" fill="white"/>
<path d="M252.839 484.982C252.301 487.671 255.192 489.576 256.705 490.193C251.158 491.874 244.097 490.361 242.08 487.335C242.08 488.344 242.921 490.529 243.929 491.706C242.417 491.033 240.399 489.184 238.55 487.335C239.055 489.52 238.718 493.218 238.55 495.404C238.382 497.589 238.214 500.278 237.542 501.119C237.542 498.093 236.701 495.74 235.357 495.404C234.012 495.067 231.658 496.244 232.331 499.102C233.003 501.959 235.357 502.968 238.046 503.136C238.429 504.925 240.172 509.237 244.602 511.205L242.766 517.76C237.551 517.368 224.733 514.096 215.185 504.145C221.404 502.295 224.262 498.093 232.331 482.46C235.02 476.073 240.903 473.719 250.485 473.215C260.066 472.711 266.622 477.081 269.312 486.494C272.001 495.908 270.152 511.541 272.169 515.239C268.471 516.584 260.252 519.105 256.293 518.601L254.519 511.259C258.883 509.26 260.353 504.378 260.739 499.102C261.243 492.21 259.562 488.848 256.873 486.494C254.183 484.141 253.175 484.141 252.839 484.982Z" fill="#292742"/>
<path d="M238.046 503.135C238.429 504.924 240.172 509.237 244.602 511.204L242.766 517.76C242.223 517.719 241.599 517.647 240.904 517.54C239.041 516.311 239.055 512.381 238.886 510.027C238.752 508.145 237.598 504.577 237.038 503.028C237.366 503.079 237.703 503.114 238.046 503.135Z" fill="#161427"/>
<path d="M256.293 518.601L254.519 511.259C257.983 509.673 259.623 506.27 260.346 502.295C261.168 502.351 262.567 502.934 261.58 504.817C260.346 507.17 258.049 511.205 258.89 513.894C259.562 516.046 258.834 517.951 258.386 518.634C257.609 518.684 256.901 518.678 256.293 518.601Z" fill="#161427"/>
<path d="M256.705 490.193C255.192 489.576 252.301 487.671 252.839 484.982C253.175 484.141 254.183 484.141 256.873 486.495C259.563 488.848 261.243 492.21 260.739 499.102C260.353 504.378 258.883 509.26 254.52 511.259L256.293 518.601L256.537 519.61H262.588C262.14 523.308 257.713 530.67 250.99 531.208C242.585 531.881 239.223 523.98 238.551 519.61H242.249L242.766 517.761L244.602 511.205C240.172 509.237 238.429 504.925 238.046 503.136C235.357 502.968 233.004 501.96 232.331 499.102C231.659 496.244 234.012 495.068 235.357 495.404C236.702 495.74 237.542 498.094 237.542 501.119C238.214 500.279 238.382 497.589 238.551 495.404C238.719 493.219 239.055 489.521 238.551 487.335C240.399 489.184 242.417 491.033 243.929 491.706C242.921 490.529 242.081 488.344 242.081 487.335C244.098 490.361 251.158 491.874 256.705 490.193Z" fill="#FFBFC7"/>
<path d="M280.934 534.116C273.353 543.109 262.005 548.822 249.323 548.822C237.314 548.822 226.502 543.7 218.952 535.52L219.555 534.065C225.338 521.021 234.628 518.993 238.55 519.609C238.807 521.28 239.457 523.466 240.632 525.492C242.53 528.767 245.797 531.623 250.989 531.208C255.63 530.836 259.175 527.215 261.075 523.791C261.928 522.253 262.449 520.755 262.588 519.609C266.734 519.385 276.204 521.962 280.911 534.065C280.918 534.082 280.926 534.099 280.934 534.116Z" fill="#FF6E6E"/>
<path d="M129.388 222.952C152.246 222.952 170.776 204.422 170.776 181.564C170.776 158.706 152.246 140.176 129.388 140.176C106.53 140.176 88 158.706 88 181.564C88 204.422 106.53 222.952 129.388 222.952Z" fill="#F3F6FB"/>
<path d="M162.947 205.911C155.428 216.307 143.198 223.071 129.388 223.071C115.578 223.071 103.347 216.307 95.8291 205.911H162.947Z" fill="#58B1FF"/>
<path d="M144.657 205.911C146.855 210.252 145.916 214.571 143.257 218.042C142.139 219.501 140.715 220.814 139.086 221.928C138.1 222.165 137.099 222.366 136.087 222.531C138.663 221.244 140.894 219.482 142.463 217.433C144.98 214.148 145.787 210.155 143.653 206.146L144.094 205.911H144.657Z" fill="#2C89DB"/>
<path d="M109.466 205.911C110.189 213.097 112.649 217.878 115.913 220.828C115.174 220.573 114.443 220.298 113.723 220.003C111.02 216.83 109.09 212.242 108.466 205.96L108.963 205.911H109.466Z" fill="#2C89DB"/>
<path d="M118.179 183.079C117.841 186.8 113.563 200.182 112.297 206.102C112.297 236.969 152.853 216.906 141.011 205.489C136.657 199.178 137.493 191.317 138.196 188.921C133.124 188.78 124.944 183.755 118.179 183.079Z" fill="#FFBFC7"/>
<path d="M138.196 188.921C133.124 188.78 124.944 183.755 118.179 183.079C118.046 184.545 117.851 186.132 116.912 189.434C119.615 192.768 127.323 200.768 138.765 200.973C137.032 195.851 137.652 190.766 138.196 188.921Z" fill="#F4A2AC"/>
<path d="M138.899 194.306C120.969 199.718 114.502 185.383 112.261 177.771C105.917 156.207 126.785 150.356 138.899 154.325C146.658 156.867 146.34 192.06 138.899 194.306Z" fill="#FFBFC7"/>
<path d="M112.261 177.771C105.917 156.207 126.785 150.356 138.898 154.325C142.478 155.498 144.34 163.622 144.576 172.253C141.252 173.364 132.862 174.304 125.887 169.176C122.297 166.612 120.759 172.007 122.041 177.771C119.477 176.612 115.117 168.674 114.348 177.771C114.348 179.433 116.143 182.254 119.477 184.818C118.861 187.69 118.41 189.092 118.261 189.434C115.04 185.742 113.24 181.11 112.261 177.771Z" fill="#F4A2AC"/>
<path d="M118.338 184.96L116.913 189.645C109.707 178.014 110.102 175.133 110.979 171.28C105.332 161.895 115.205 154.953 118.338 154.854C122.318 142.794 132.201 146.299 136.642 149.559C141.16 148.694 149.905 149.6 148.756 160.142C147.315 173.321 138.396 172.646 128.324 167.927C120.267 164.152 119.959 171.046 120.718 176.08C119.857 174.174 117.754 171.374 115.646 172.275C109.04 175.097 114.805 182.627 118.338 184.96Z" fill="#292742"/>
<path d="M148.756 160.143C147.315 173.321 138.396 172.646 128.324 167.927C135.037 169.556 147.899 168.467 145.627 151.08C147.807 152.644 149.269 155.431 148.756 160.143Z" fill="#161427"/>
<path d="M148.197 152.764C149.905 156.354 151.479 164.868 144.094 170.201C148.197 168.15 153.838 161.996 148.197 152.764Z" fill="#161427"/>
<path d="M117.682 154.56C114.605 155.072 108.399 158.252 108.194 166.868C107.681 163.791 108.963 155.585 117.682 154.56Z" fill="#161427"/>
<path d="M47.8275 442.831C74.2422 442.831 95.6562 421.418 95.6562 395.003C95.6562 368.589 74.2422 347.176 47.8275 347.176C21.4131 347.176 0 368.589 0 395.003C0 421.418 21.4131 442.831 47.8275 442.831Z" fill="white"/>
<path d="M33.0302 390.71C32.9114 390.353 29.9385 373.292 29.5852 366.655C29.2287 360.019 40.2478 359.071 40.2478 359.071C40.2478 359.071 49.254 354.214 55.7717 356.702C62.2895 359.19 66.7253 363.376 69.6854 368.59C72.6488 373.804 67.0786 390.053 67.0786 390.053L33.0302 390.71Z" fill="#2F2F2F"/>
<path d="M81.8272 428.76C73.1591 437.522 61.1272 442.95 47.828 442.95C35.6542 442.95 24.543 438.402 16.1001 430.912C21.9039 422.686 35.8201 420.149 49.7127 420.149C64.5016 420.149 75.8489 422.107 81.8272 428.76Z" fill="#21C58E"/>
<path d="M53.2196 431.122C51.1942 434.11 49.7094 434.236 47.5115 431.122C45.7642 428.646 39.9282 423.001 39.9282 420.146L42.3225 391.691C42.3225 388.837 44.6574 386.502 47.5115 386.502H53.2196C56.0736 386.502 58.4089 388.837 58.4089 391.691L59.5219 420.146C59.5219 423.001 55.0357 428.443 53.2196 431.122Z" fill="#FFBFC7"/>
<path d="M53.2193 386.504H47.5145C44.6605 386.504 42.3252 388.84 42.3252 391.694L40.2466 416.936C46.6549 418.977 55.3074 414.829 59.1337 410.262L58.4087 391.694C58.4087 388.84 56.0733 386.504 53.2193 386.504Z" fill="#EC9BA5"/>
<path d="M55.3154 442.368C52.8757 442.751 50.3749 442.951 47.8275 442.951C46.8453 442.951 45.8698 442.921 44.9021 442.863C45.2359 439.953 45.5793 436.357 45.3015 435.895C44.8298 435.104 39.931 439.134 39.931 439.134L30.7812 422.222L32.4662 421.872L50.3687 430.681L67.1055 421.675L69.35 422.222L59.1343 438.502C59.1343 438.502 55.8082 435.501 54.7014 435.501C54.0555 435.501 54.703 439.03 55.2593 442.062C55.2779 442.164 55.2969 442.267 55.3154 442.368Z" fill="#0CA370"/>
<path d="M54.3391 442.512C52.2097 442.802 50.0361 442.951 47.8275 442.951C47.4115 442.951 46.9972 442.946 46.5841 442.936L48.04 434.574L41.2441 430.016L43.8918 427.521H55.7958L58.4402 430.016L52.8101 435.158L54.3391 442.512Z" fill="white"/>
<path d="M40.4039 413.935L32.0015 421.931C32.0015 421.931 40.5632 437.158 41.0386 437.158C41.5136 437.158 48.3033 428.761 48.3033 428.761L52.6516 428.686L59.5226 435.895L67.5061 421.771L59.3662 413.144C59.3662 413.144 52.4139 426.573 51.1511 426.889C49.8883 427.205 49.8788 427.364 48.8566 426.573C47.8312 425.782 40.4039 413.935 40.4039 413.935Z" fill="#21C58E"/>
<path d="M50.3656 410.297C59.8921 410.297 67.6149 399.773 67.6149 386.792C67.6149 373.811 59.8921 363.288 50.3656 363.288C40.8394 363.288 33.1167 373.811 33.1167 386.792C33.1167 399.773 40.8394 410.297 50.3656 410.297Z" fill="#FFBFC7"/>
<path d="M34.8833 386.429C36.4964 389.827 35.9682 393.453 33.7047 394.529C31.4416 395.604 28.297 393.722 26.6839 390.324C25.0707 386.927 25.599 383.3 27.8625 382.225C30.1256 381.15 33.2705 383.031 34.8833 386.429Z" fill="#FFBFC7"/>
<path d="M65.0737 386.429C63.461 389.827 63.9892 393.453 66.2523 394.529C68.5154 395.604 71.6604 393.722 73.2735 390.324C74.8862 386.927 74.358 383.3 72.0949 382.225C69.8318 381.15 66.6868 383.031 65.0737 386.429Z" fill="#FFBFC7"/>
<path d="M40.2464 370.802C47.3551 365.825 50.5562 366.654 55.8859 374.832C61.2188 383.006 67.6177 383.153 67.6177 383.153L68.4459 374.675C68.4459 374.675 60.5028 359.311 49.8402 361.324C39.1776 363.337 33.1129 372.937 33.1129 372.937C33.1129 372.937 32.5942 390.927 34.0819 391.54C35.57 392.153 35.7421 385.735 36.808 384.432C37.874 383.128 35.7421 376.967 37.1642 374.122C38.5866 371.277 40.2464 370.802 40.2464 370.802Z" fill="#2F2F2F"/>
<path d="M63.1167 380.046C65.5985 382.763 64.6576 393.554 65.9613 393.435C67.2649 393.316 67.7399 383.126 67.3837 382.06C67.0243 380.994 63.1167 380.046 63.1167 380.046Z" fill="#2F2F2F"/>
<path d="M431.902 180.981C458.359 180.981 479.805 159.534 479.805 133.078C479.805 106.623 458.359 85.1758 431.902 85.1758C405.447 85.1758 384 106.623 384 133.078C384 159.534 405.447 180.981 431.902 180.981Z" fill="white"/>
<path d="M406.971 126.102C406.971 139.266 414.896 160.504 433.592 159.822C452.289 159.141 456.423 138.896 457.146 133.184C457.871 127.469 406.971 126.102 406.971 126.102Z" fill="#161427"/>
<path d="M462.699 169.894C457.355 163.685 447.722 159.82 432.961 159.82C418.775 159.82 409.175 162.727 402.786 171.242C420.482 184.822 445.486 184.372 462.699 169.894Z" fill="#21C58E"/>
<path d="M436.348 170.421C434.391 173.309 432.957 173.427 430.836 170.421C429.149 168.029 425.826 162.599 425.826 159.843V132.335C425.826 129.579 428.08 127.322 430.836 127.322H436.348C439.104 127.322 441.361 129.576 441.361 132.335V159.843C441.361 162.599 438.102 167.833 436.348 170.421Z" fill="#FFBFC7"/>
<path d="M436.348 127.322H430.836C428.08 127.322 425.826 129.576 425.826 132.335V156.878C432.014 158.85 437.665 154.93 441.361 150.517V132.335C441.361 129.579 439.104 127.322 436.348 127.322Z" fill="#F4A2AC"/>
<path d="M450.256 127.601C450.256 140.138 442.796 150.305 433.593 150.305C424.39 150.305 416.93 140.138 416.93 127.601C416.93 115.06 424.39 104.896 433.593 104.896C442.796 104.896 450.256 115.063 450.256 127.601Z" fill="#FFBFC7"/>
<path d="M442.751 110.344C440.771 117.325 436.431 117.246 430.381 119.538C424.331 121.83 421.44 124.139 419.459 128.606C416.935 134.3 420.605 150.908 420.605 150.908C420.605 150.908 405.285 139.442 407.057 121.413C408.828 103.383 419.459 96.4019 429.464 96.4019C439.469 96.4019 443.274 102.499 443.274 102.499C443.274 102.499 448.604 102.522 453.644 108.49C460.416 116.515 458.333 136.004 453.644 142.986C448.954 149.967 445.827 152.156 445.93 151.845C446.036 151.533 450.308 135.496 448.014 125.582C445.722 115.668 442.751 110.344 442.751 110.344Z" fill="#292742"/>
<defs>
<linearGradient id="paint0_linear_60_79" x1="377.029" y1="333.131" x2="376.689" y2="375.737" gradientUnits="userSpaceOnUse">
<stop offset="0.341122" stop-color="#FFC0AE"/>
<stop offset="1" stop-color="#EE9F88"/>
</linearGradient>
</defs>
</svg>
